CommissionerLoud-Regular.ufo
<glyph name="numbersign" format="2">
  <advance width="682.7684210526315"/>
  <unicode hex="0023"/>
  <outline>
    <contour>
      <point x="17.263157894736842" y="150.1157894736842" type="line"/>
      <point x="79.91578947368421" y="151.66315789473686"/>
      <point x="149.37894736842105" y="153.21052631578948"/>
      <point x="190.4" y="153.7578947368421" type="curve"/>
      <point x="436.0210526315789" y="153.7578947368421" type="line"/>
      <point x="477.04210526315785" y="153.21052631578948"/>
      <point x="546.5052631578948" y="151.66315789473686"/>
      <point x="609.1578947368421" y="150.1157894736842" type="curve"/>
      <point x="609.1578947368421" y="221.5263157894737" type="line"/>
      <point x="546.5052631578948" y="219.97894736842105"/>
      <point x="477.04210526315785" y="218.43157894736842"/>
      <point x="436.0210526315789" y="217.8842105263158" type="curve"/>
      <point x="190.4" y="217.8842105263158" type="line"/>
      <point x="149.37894736842105" y="218.43157894736842"/>
      <point x="79.91578947368421" y="219.97894736842105"/>
      <point x="17.263157894736842" y="221.5263157894737" type="curve"/>
    </contour>
    <contour>
      <point x="113.76842105263157" y="0.0" type="curve"/>
      <point x="192.2842105263158" y="0.0" type="line"/>
      <point x="204.09473684210525" y="67.54736842105262"/>
      <point x="214.45263157894738" y="127.46315789473684"/>
      <point x="228.98947368421054" y="211.73684210526315" type="curve"/>
      <point x="274.70526315789476" y="438.65263157894736" type="line"/>
      <point x="293.978947368421" y="526.7473684210527"/>
      <point x="307.70526315789476" y="585.4736842105264"/>
      <point x="323.70526315789476" y="658.4736842105264" type="curve"/>
      <point x="245.73684210526315" y="658.4736842105264" type="line"/>
      <point x="233.65263157894736" y="586.2842105263157"/>
      <point x="223.8421052631579" y="528.3789473684211"/>
      <point x="207.85263157894735" y="440.10526315789474" type="curve"/>
      <point x="162.13684210526316" y="211.73684210526315" type="line"/>
      <point x="142.58947368421053" y="126.91578947368421"/>
      <point x="128.7684210526316" y="66.45263157894736"/>
    </contour>
    <contour>
      <point x="73.61052631578947" y="433.94736842105266" type="line"/>
      <point x="136.26315789473685" y="435.4947368421053"/>
      <point x="205.7263157894737" y="437.0421052631579"/>
      <point x="246.74736842105264" y="437.58947368421053" type="curve"/>
      <point x="492.36842105263156" y="437.58947368421053" type="line"/>
      <point x="533.3894736842105" y="437.0421052631579"/>
      <point x="602.8526315789474" y="435.4947368421053"/>
      <point x="665.5052631578948" y="433.94736842105266" type="curve"/>
      <point x="665.5052631578948" y="505.35789473684207" type="line"/>
      <point x="602.8526315789474" y="503.81052631578945"/>
      <point x="533.3894736842105" y="502.2631578947368"/>
      <point x="492.36842105263156" y="501.7157894736842" type="curve"/>
      <point x="246.74736842105264" y="501.7157894736842" type="line"/>
      <point x="205.7263157894737" y="502.2631578947368"/>
      <point x="136.26315789473685" y="503.81052631578945"/>
      <point x="73.61052631578947" y="505.35789473684207" type="curve"/>
    </contour>
    <contour>
      <point x="351.978947368421" y="0.0" type="curve"/>
      <point x="430.4947368421053" y="0.0" type="line"/>
      <point x="442.3052631578948" y="67.54736842105262"/>
      <point x="452.66315789473686" y="127.46315789473684"/>
      <point x="467.2" y="211.73684210526315" type="curve"/>
      <point x="512.9157894736842" y="438.65263157894736" type="line"/>
      <point x="532.1894736842105" y="526.7473684210527"/>
      <point x="545.9157894736842" y="585.4736842105264"/>
      <point x="561.9157894736842" y="658.4736842105264" type="curve"/>
      <point x="483.9473684210526" y="658.4736842105264" type="line"/>
      <point x="471.86315789473684" y="586.2842105263157"/>
      <point x="462.0526315789474" y="528.3789473684211"/>
      <point x="446.06315789473683" y="440.10526315789474" type="curve"/>
      <point x="400.34736842105264" y="211.73684210526315" type="line"/>
      <point x="380.8" y="126.91578947368421"/>
      <point x="366.978947368421" y="66.45263157894736"/>
    </contour>
  </outline>
</glyph>
<glyph name="dollar" format="2">
  <advance width="561.8526315789474"/>
  <unicode hex="0024"/>
  <outline>
    <contour>
      <point x="287.53684210526313" y="-10.642105263157895" type="curve" smooth="yes"/>
      <point x="450.0421052631579" y="-10.642105263157895"/>
      <point x="521.7894736842105" y="73.71578947368421"/>
      <point x="521.7894736842105" y="185.21052631578948" type="curve" smooth="yes"/>
      <point x="521.7894736842105" y="283.06315789473683"/>
      <point x="470.2421052631579" y="331.61052631578946"/>
      <point x="307.06315789473683" y="383.87368421052633" type="curve" smooth="yes"/>
      <point x="186.47368421052633" y="423.12631578947367"/>
      <point x="134.67368421052632" y="445.7368421052632"/>
      <point x="134.67368421052632" y="510.9578947368421" type="curve" smooth="yes"/>
      <point x="134.67368421052632" y="590.1578947368421"/>
      <point x="206.7263157894737" y="621.7684210526315"/>
      <point x="284.9578947368421" y="623.2210526315789" type="curve"/>
      <point x="305.5894736842106" y="623.2210526315789"/>
      <point x="392.5052631578947" y="596.7684210526315"/>
      <point x="471.9684210526316" y="566.7684210526315" type="curve"/>
      <point x="481.1578947368421" y="648.1999999999999" type="line"/>
      <point x="424.76842105263154" y="664.6526315789473"/>
      <point x="319.2105263157895" y="697.0947368421052"/>
      <point x="276.18947368421055" y="697.0947368421052" type="curve" smooth="yes"/>
      <point x="130.14736842105262" y="697.0947368421052"/>
      <point x="54.77894736842105" y="617.0842105263158"/>
      <point x="54.77894736842105" y="510.6842105263158" type="curve" smooth="yes"/>
      <point x="54.77894736842105" y="403.10526315789474"/>
      <point x="128.86315789473684" y="359.6421052631579"/>
      <point x="258.4842105263158" y="318.9263157894737" type="curve" smooth="yes"/>
      <point x="372.5473684210526" y="283.0315789473684"/>
      <point x="442.1684210526316" y="256.9684210526316"/>
      <point x="442.1684210526316" y="184.8421052631579" type="curve" smooth="yes"/>
      <point x="442.1684210526316" y="95.74736842105264"/>
      <point x="374.12631578947367" y="63.589473684210525"/>
      <point x="284.8" y="62.13684210526316" type="curve"/>
      <point x="245.2842105263158" y="62.13684210526316"/>
      <point x="161.89473684210523" y="87.41052631578947"/>
      <point x="71.88421052631578" y="119.86315789473683" type="curve"/>
      <point x="63.873684210526314" y="36.61052631578947" type="line"/>
      <point x="145.06315789473683" y="12.621052631578948"/>
      <point x="239.81052631578947" y="-10.642105263157895"/>
    </contour>
    <contour>
      <point x="249.22105263157894" y="-137.0" type="curve"/>
      <point x="324.2736842105263" y="-137.0" type="line"/>
      <point x="322.178947368421" y="1.0"/>
      <point x="319.81052631578945" y="154.0"/>
      <point x="319.53684210526313" y="192.0" type="curve"/>
      <point x="319.53684210526313" y="474.0" type="line"/>
      <point x="319.81052631578945" y="512.0"/>
      <point x="322.178947368421" y="665.0"/>
      <point x="324.2736842105263" y="803.0" type="curve"/>
      <point x="249.22105263157894" y="803.0" type="line"/>
      <point x="251.3157894736842" y="665.0"/>
      <point x="253.68421052631578" y="512.0"/>
      <point x="253.9578947368421" y="474.0" type="curve"/>
      <point x="253.9578947368421" y="192.0" type="line"/>
      <point x="253.68421052631578" y="154.0"/>
      <point x="251.3157894736842" y="1.0"/>
    </contour>
  </outline>
</glyph>
<glyph name="ampersand" format="2">
  <advance width="735.1034482758621"/>
  <unicode hex="0026"/>
  <outline>
    <contour>
      <point x="605.3333333333334" y="0.0" type="curve"/>
      <point x="725.8620689655173" y="0.0" type="line"/>
      <point x="664.2873563218391" y="60.367816091954026"/>
      <point x="602.7126436781609" y="121.13793103448276"/>
      <point x="540.1379310344828" y="181.9080459770115" type="curve"/>
      <point x="313.28735632183907" y="410.7241379310345" type="line" smooth="yes"/>
      <point x="254.44827586206895" y="469.35632183908046"/>
      <point x="229.02298850574712" y="509.57471264367814"/>
      <point x="229.02298850574712" y="559.6206896551724" type="curve" smooth="yes"/>
      <point x="229.02298850574712" y="617.8735632183908"/>
      <point x="265.2528735632184" y="658.528735632184"/>
      <point x="325.51724137931035" y="661.1264367816092" type="curve"/>
      <point x="379.9655172413793" y="658.528735632184"/>
      <point x="420.39080459770116" y="622.7011494252873"/>
      <point x="420.39080459770116" y="566.6321839080459" type="curve" smooth="yes"/>
      <point x="420.39080459770116" y="523.9540229885057"/>
      <point x="357.14942528735634" y="472.7586206896551"/>
      <point x="291.6896551724138" y="422.54022988505744" type="curve"/>
      <point x="338.18390804597703" y="374.4367816091954" type="line"/>
      <point x="417.3793103448276" y="437.0"/>
      <point x="498.01149425287355" y="499.58620689655174"/>
      <point x="498.01149425287355" y="568.4252873563219" type="curve" smooth="yes"/>
      <point x="498.01149425287355" y="668.0"/>
      <point x="419.45977011494256" y="726.1954022988506"/>
      <point x="321.9310344827586" y="726.1954022988506" type="curve" smooth="yes"/>
      <point x="224.183908045977" y="726.1954022988506"/>
      <point x="145.42528735632183" y="663.3908045977012"/>
      <point x="145.42528735632183" y="559.0229885057471" type="curve" smooth="yes"/>
      <point x="145.42528735632183" y="486.60919540229884"/>
      <point x="184.4367816091954" y="432.01149425287355"/>
      <point x="246.45977011494253" y="369.0" type="curve" smooth="yes"/>
      <point x="476.8965517241379" y="136.0" type="line"/>
      <point x="519.9080459770115" y="91.0"/>
      <point x="563.3218390804598" y="44.0"/>
    </contour>
    <contour>
      <point x="268.82758620689657" y="-10.195402298850574" type="curve" smooth="yes"/>
      <point x="335.4022988505747" y="-10.195402298850574"/>
      <point x="397.62068965517244" y="33.81609195402299"/>
      <point x="496.8390804597701" y="106.8735632183908" type="curve"/>
      <point x="509.4367816091954" y="106.8735632183908" type="line"/>
      <point x="505.04597701149424" y="125.04597701149424" type="line"/>
      <point x="463.90804597701145" y="171.33333333333331" type="line"/>
      <point x="373.64367816091954" y="101.04597701149426"/>
      <point x="311.04597701149424" y="60.850574712643684"/>
      <point x="278.98850574712645" y="60.850574712643684" type="curve"/>
      <point x="185.68965517241378" y="63.448275862068975"/>
      <point x="130.44827586206895" y="113.88505747126436"/>
      <point x="130.44827586206895" y="192.35632183908046" type="curve" smooth="yes"/>
      <point x="130.44827586206895" y="272.0344827586207"/>
      <point x="187.91954022988506" y="324.4597701149425"/>
      <point x="267.7816091954023" y="360.6896551724138" type="curve"/>
      <point x="231.26436781609195" y="414.7816091954023" type="line"/>
      <point x="141.8735632183908" y="374.7816091954023"/>
      <point x="49.241379310344826" y="306.58620689655174"/>
      <point x="49.241379310344826" y="184.58620689655172" type="curve" smooth="yes"/>
      <point x="49.241379310344826" y="76.20689655172413"/>
      <point x="122.4367816091954" y="-10.195402298850574"/>
    </contour>
    <contour>
      <point x="550.1149425287356" y="164.73563218390805" type="line"/>
      <point x="596.4942528735633" y="225.3448275862069"/>
      <point x="641.2758620689655" y="283.95402298850576"/>
      <point x="687.0574712643678" y="345.1609195402299" type="curve"/>
      <point x="610.2298850574712" y="393.64367816091954" type="line"/>
      <point x="573.4252873563219" y="331.8390804597701"/>
      <point x="538.6206896551724" y="273.8390804597701"/>
      <point x="501.0114942528736" y="210.22988505747128" type="curve"/>
    </contour>
  </outline>
</glyph>
<glyph name="quotesingle" format="2">
  <advance width="201.8842105263158"/>
  <unicode hex="0027"/>
  <outline>
    <contour>
      <point x="58.97894736842105" y="436.7157894736842" type="curve"/>
      <point x="121.65263157894736" y="437.7157894736842" type="line"/>
      <point x="124.66315789473684" y="540.8421052631579"/>
      <point x="132.30526315789473" y="643.421052631579"/>
      <point x="139.4" y="744.2736842105263" type="curve"/>
      <point x="40.23157894736842" y="742.1789473684211" type="line"/>
      <point x="48.32631578947368" y="641.6"/>
      <point x="55.968421052631584" y="540.021052631579"/>
    </contour>
  </outline>
</glyph>
<glyph name="parenleft" format="2">
  <advance width="385.0736842105263"/>
  <unicode hex="0028"/>
  <outline>
    <contour>
      <point x="276.2526315789474" y="-121.03157894736842" type="curve"/>
      <point x="348.11578947368423" y="-93.16842105263157" type="line"/>
      <point x="246.38947368421054" y="31.673684210526314"/>
      <point x="143.6" y="166.73684210526315"/>
      <point x="143.6" y="323.7263157894737" type="curve" smooth="yes"/>
      <point x="143.6" y="481.44210526315794"/>
      <point x="246.38947368421054" y="615.7789473684211"/>
      <point x="348.11578947368423" y="740.6210526315789" type="curve"/>
      <point x="276.2526315789474" y="768.4842105263158" type="line"/>
      <point x="181.81052631578947" y="648.4947368421053"/>
      <point x="59.05263157894737" y="503.94736842105266"/>
      <point x="59.05263157894737" y="323.7263157894737" type="curve" smooth="yes"/>
      <point x="59.05263157894737" y="144.23157894736843"/>
      <point x="181.81052631578947" y="-1.0421052631578949"/>
    </contour>
  </outline>
</glyph>
<glyph name="asterisk" format="2">
  <advance width="473.0526315789474"/>
  <unicode hex="002A"/>
  <outline>
    <contour>
      <point x="413.5578947368421" y="371.3157894736842" type="curve"/>
      <point x="447.33684210526314" y="427.58947368421053" type="line"/>
      <point x="380.87368421052633" y="463.4"/>
      <point x="313.41052631578947" y="498.66315789473686"/>
      <point x="246.94736842105263" y="534.4736842105264" type="curve"/>
      <point x="184.22105263157894" y="578.1157894736842"/>
      <point x="121.49473684210525" y="621.578947368421"/>
      <point x="59.49473684210527" y="664.4947368421052" type="curve"/>
      <point x="25.71578947368421" y="607.9473684210526" type="line"/>
      <point x="92.17894736842105" y="572.1368421052632"/>
      <point x="159.3684210526316" y="536.8736842105263"/>
      <point x="226.83157894736843" y="500.33684210526314" type="curve"/>
      <point x="288.8315789473684" y="457.42105263157896"/>
      <point x="351.5578947368421" y="414.2315789473684"/>
    </contour>
    <contour>
      <point x="59.76842105263158" y="371.0421052631579" type="line"/>
      <point x="121.76842105263158" y="414.2315789473684"/>
      <point x="184.22105263157894" y="457.42105263157896"/>
      <point x="246.94736842105263" y="501.33684210526314" type="curve"/>
      <point x="313.41052631578947" y="536.8736842105263"/>
      <point x="380.6" y="572.6842105263158"/>
      <point x="447.06315789473683" y="608.2210526315789" type="curve"/>
      <point x="413.2842105263158" y="664.7684210526315" type="line"/>
      <point x="351.2842105263158" y="621.578947368421"/>
      <point x="288.8315789473684" y="578.3894736842105"/>
      <point x="226.83157894736843" y="535.2" type="curve"/>
      <point x="159.6421052631579" y="498.93684210526317"/>
      <point x="92.17894736842105" y="463.4"/>
      <point x="25.71578947368421" y="427.86315789473684" type="curve"/>
    </contour>
    <contour>
      <point x="203.33684210526317" y="290.4421052631579" type="curve"/>
      <point x="269.7157894736842" y="290.4421052631579" type="line"/>
      <point x="265.25263157894733" y="366.2631578947368"/>
      <point x="260.5157894736842" y="442.0842105263158"/>
      <point x="256.0526315789474" y="518.6315789473684" type="curve"/>
      <point x="260.5157894736842" y="593.7263157894737"/>
      <point x="264.978947368421" y="669.5473684210526"/>
      <point x="269.4421052631579" y="745.3684210526316" type="curve"/>
      <point x="203.33684210526317" y="745.3684210526316" type="line"/>
      <point x="207.8" y="669.5473684210526"/>
      <point x="212.53684210526316" y="593.7263157894737"/>
      <point x="217.0" y="518.6315789473684" type="curve"/>
      <point x="212.53684210526316" y="442.0842105263158"/>
      <point x="207.8" y="366.2631578947368"/>
    </contour>
  </outline>
</glyph>
<glyph name="plus" format="2">
  <advance width="588.2105263157895"/>
  <unicode hex="002B"/>
  <outline>
    <contour>
      <point x="252.74736842105264" y="59.252631578947366" type="curve"/>
      <point x="335.4631578947368" y="59.252631578947366" type="line"/>
      <point x="333.9157894736842" y="121.90526315789474"/>
      <point x="332.36842105263156" y="191.3684210526316"/>
      <point x="331.82105263157894" y="232.38947368421051" type="curve"/>
      <point x="331.82105263157894" y="365.2736842105263" type="line"/>
      <point x="332.36842105263156" y="406.29473684210524"/>
      <point x="333.9157894736842" y="475.7578947368421"/>
      <point x="335.4631578947368" y="538.4105263157895" type="curve"/>
      <point x="252.74736842105264" y="538.4105263157895" type="line"/>
      <point x="254.2947368421053" y="475.7578947368421"/>
      <point x="255.84210526315792" y="406.29473684210524"/>
      <point x="256.38947368421054" y="365.2736842105263" type="curve"/>
      <point x="256.38947368421054" y="232.38947368421051" type="line"/>
      <point x="255.84210526315792" y="191.3684210526316"/>
      <point x="254.2947368421053" y="121.90526315789474"/>
    </contour>
    <contour>
      <point x="61.78947368421053" y="258.2947368421053" type="line"/>
      <point x="124.4421052631579" y="259.8421052631579"/>
      <point x="193.90526315789472" y="261.38947368421054"/>
      <point x="234.92631578947368" y="261.93684210526317" type="curve"/>
      <point x="353.2842105263158" y="261.93684210526317" type="line"/>
      <point x="394.30526315789473" y="261.38947368421054"/>
      <point x="463.7684210526316" y="259.8421052631579"/>
      <point x="526.421052631579" y="258.2947368421053" type="curve"/>
      <point x="526.421052631579" y="339.36842105263156" type="line"/>
      <point x="463.7684210526316" y="337.82105263157894"/>
      <point x="394.30526315789473" y="336.2736842105263"/>
      <point x="353.2842105263158" y="335.7263157894737" type="curve"/>
      <point x="234.92631578947368" y="335.7263157894737" type="line"/>
      <point x="193.90526315789472" y="336.2736842105263"/>
      <point x="124.4421052631579" y="337.82105263157894"/>
      <point x="61.78947368421053" y="339.36842105263156" type="curve"/>
    </contour>
  </outline>
</glyph>
<glyph name="comma" format="2">
  <advance width="230.69473684210524"/>
  <unicode hex="002C"/>
  <outline>
    <contour>
      <point x="44.863157894736844" y="-157.0" type="curve"/>
      <point x="89.7578947368421" y="-155.7263157894737" type="line"/>
      <point x="120.22105263157896" y="-94.47368421052633"/>
      <point x="178.82105263157894" y="13.105263157894736"/>
      <point x="178.82105263157894" y="55.76842105263158" type="curve" smooth="yes"/>
      <point x="178.82105263157894" y="92.08421052631579"/>
      <point x="162.34736842105264" y="119.21052631578948"/>
      <point x="125.8421052631579" y="122.67368421052632" type="curve"/>
      <point x="75.48421052631579" y="119.48421052631579" type="line"/>
      <point x="78.4" y="87.0"/>
      <point x="81.76842105263158" y="54.51578947368421"/>
      <point x="83.86315789473684" y="23.673684210526318" type="curve"/>
      <point x="72.41052631578947" y="-34.96842105263158"/>
      <point x="59.04210526315789" y="-98.27368421052631"/>
    </contour>
  </outline>
</glyph>
<glyph name="hyphen" format="2">
  <advance width="422.7368421052632"/>
  <unicode hex="002D"/>
  <outline>
    <contour>
      <point x="61.78947368421053" y="256.92631578947373" type="line"/>
      <point x="116.07368421052631" y="258.47368421052636"/>
      <point x="175.7157894736842" y="260.021052631579"/>
      <point x="211.3684210526316" y="260.5684210526316" type="curve"/>
      <point x="247.02105263157895" y="260.021052631579"/>
      <point x="306.66315789473686" y="258.47368421052636"/>
      <point x="360.94736842105266" y="256.92631578947373" type="curve"/>
      <point x="360.94736842105266" y="338.0" type="line"/>
      <point x="306.66315789473686" y="336.4526315789474"/>
      <point x="247.02105263157895" y="334.90526315789475"/>
      <point x="211.3684210526316" y="334.3578947368421" type="curve"/>
      <point x="175.7157894736842" y="334.90526315789475"/>
      <point x="116.07368421052631" y="336.4526315789474"/>
      <point x="61.78947368421053" y="338.0" type="curve"/>
    </contour>
  </outline>
</glyph>
<glyph name="slash" format="2">
  <advance width="450.86315789473684"/>
  <unicode hex="002F"/>
  <outline>
    <contour>
      <point x="26.505263157894735" y="0.0" type="curve"/>
      <point x="120.15789473684211" y="0.0" type="line"/>
      <point x="149.87368421052633" y="74.0"/>
      <point x="174.86315789473684" y="136.0"/>
      <point x="211.7578947368421" y="228.0" type="curve"/>
      <point x="316.64210526315793" y="474.0" type="line"/>
      <point x="359.2736842105263" y="569.0"/>
      <point x="388.17894736842106" y="632.7263157894737"/>
      <point x="424.3578947368421" y="713.0" type="curve"/>
      <point x="330.9789473684211" y="713.0" type="line"/>
      <point x="300.2631578947368" y="636.7263157894737"/>
      <point x="274.27368421052637" y="571.7263157894737"/>
      <point x="235.65263157894736" y="476.0" type="curve"/>
      <point x="129.76842105263157" y="228.0" type="line"/>
      <point x="88.13684210526316" y="136.82105263157894"/>
      <point x="59.95789473684211" y="73.82105263157895"/>
    </contour>
  </outline>
</glyph>
<glyph name="one" format="2">
  <advance width="430.44210526315794"/>
  <unicode hex="0031"/>
  <outline>
    <contour>
      <point x="54.65263157894737" y="482.4947368421052" type="line"/>
      <point x="128.29473684210527" y="524.6736842105264"/>
      <point x="202.1157894736842" y="566.578947368421"/>
      <point x="276.30526315789473" y="609.0315789473684" type="curve"/>
      <point x="278.7684210526316" y="688.7368421052631" type="line"/>
      <point x="195.65263157894736" y="646.5578947368421"/>
      <point x="113.08421052631579" y="605.378947368421"/>
      <point x="29.96842105263158" y="563.1999999999999" type="curve"/>
    </contour>
    <contour>
      <point x="229.37894736842105" y="0.0" type="curve"/>
      <point x="327.6" y="0.0" type="line"/>
      <point x="325.2315789473684" y="73.63157894736841"/>
      <point x="323.13684210526316" y="136.98947368421054"/>
      <point x="320.4947368421053" y="218.81052631578947" type="curve"/>
      <point x="320.4947368421053" y="447.5473684210526" type="line"/>
      <point x="322.86315789473684" y="530.9052631578948"/>
      <point x="325.2315789473684" y="610.6315789473684"/>
      <point x="327.6" y="685.6421052631579" type="curve"/>
      <point x="278.7684210526316" y="688.7368421052631" type="line"/>
      <point x="232.29473684210527" y="648.5684210526316" type="line"/>
      <point x="233.1157894736842" y="576.7578947368421"/>
      <point x="234.93684210526317" y="497.95789473684215"/>
      <point x="235.7578947368421" y="434.13684210526316" type="curve"/>
      <point x="235.7578947368421" y="218.81052631578947" type="line"/>
      <point x="233.1157894736842" y="136.98947368421054"/>
      <point x="231.7473684210526" y="73.63157894736841"/>
    </contour>
  </outline>
</glyph>
<glyph name="two" format="2">
  <advance width="554.4947368421052"/>
  <unicode hex="0032"/>
  <outline>
    <contour>
      <point x="48.62105263157895" y="0.0" type="line"/>
      <point x="501.33684210526314" y="0.0" type="line"/>
      <point x="501.33684210526314" y="83.0842105263158" type="line"/>
      <point x="425.90526315789475" y="80.4421052631579"/>
      <point x="350.0210526315789" y="77.80000000000001"/>
      <point x="273.4947368421053" y="74.8842105263158" type="curve"/>
      <point x="134.26315789473685" y="74.8842105263158" type="line"/>
      <point x="147.18947368421053" y="57.30526315789474" type="line"/>
      <point x="258.33684210526314" y="151.89473684210526" type="line"/>
      <point x="409.11578947368423" y="280.2"/>
      <point x="488.1684210526316" y="389.0"/>
      <point x="488.1684210526316" y="502.5263157894737" type="curve" smooth="yes"/>
      <point x="488.1684210526316" y="623.5473684210526"/>
      <point x="410.5157894736842" y="698.7368421052631"/>
      <point x="272.29473684210524" y="698.7368421052631" type="curve" smooth="yes"/>
      <point x="228.38947368421051" y="698.7368421052631"/>
      <point x="102.17894736842105" y="660.4736842105262"/>
      <point x="45.34736842105263" y="641.5684210526316" type="curve"/>
      <point x="54.63157894736842" y="555.0315789473684" type="line"/>
      <point x="136.96842105263158" y="589.5684210526316"/>
      <point x="236.4421052631579" y="623.4947368421052"/>
      <point x="258.61052631578946" y="623.4947368421052" type="curve"/>
      <point x="353.5473684210526" y="621.9473684210526"/>
      <point x="400.7894736842105" y="579.5263157894736"/>
      <point x="400.7894736842105" y="493.0421052631579" type="curve" smooth="yes"/>
      <point x="400.7894736842105" y="390.53684210526313"/>
      <point x="313.98947368421057" y="294.30526315789473"/>
      <point x="171.22105263157894" y="167.7157894736842" type="curve"/>
      <point x="130.50526315789475" y="134.3684210526316"/>
      <point x="89.33684210526316" y="100.56842105263158"/>
      <point x="48.62105263157895" y="67.22105263157896" type="curve"/>
    </contour>
  </outline>
</glyph>
<glyph name="three" format="2">
  <advance width="570.5632183908046"/>
  <unicode hex="0033"/>
  <outline>
    <contour>
      <point x="276.39080459770116" y="-10.793103448275861" type="curve" smooth="yes"/>
      <point x="440.5402298850575" y="-10.793103448275861"/>
      <point x="519.528735632184" y="73.80459770114942"/>
      <point x="519.528735632184" y="183.183908045977" type="curve" smooth="yes"/>
      <point x="519.528735632184" y="293.7931034482759"/>
      <point x="437.1034482758621" y="348.4022988505747"/>
      <point x="364.7011494252874" y="361.0" type="curve"/>
      <point x="364.7011494252874" y="369.39080459770116" type="line"/>
      <point x="436.5057471264368" y="386.1954022988506"/>
      <point x="496.51724137931035" y="444.81609195402297"/>
      <point x="496.51724137931035" y="530.816091954023" type="curve" smooth="yes"/>
      <point x="496.51724137931035" y="634.4022988505748"/>
      <point x="409.91954022988506" y="698.9885057471264"/>
      <point x="281.39080459770116" y="698.9885057471264" type="curve" smooth="yes"/>
      <point x="238.58620689655174" y="698.9885057471264"/>
      <point x="114.41379310344827" y="657.5747126436781"/>
      <point x="58.827586206896555" y="637.3678160919541" type="curve"/>
      <point x="67.816091954023" y="553.7471264367816" type="line"/>
      <point x="149.64367816091954" y="589.5632183908046"/>
      <point x="248.02298850574712" y="623.3563218390805"/>
      <point x="270.4367816091954" y="623.3563218390805" type="curve"/>
      <point x="350.28735632183907" y="621.7586206896552"/>
      <point x="409.3333333333333" y="589.9310344827586"/>
      <point x="409.3333333333333" y="517.0689655172414" type="curve" smooth="yes"/>
      <point x="409.3333333333333" y="446.2068965517241"/>
      <point x="355.6896551724138" y="393.5402298850575"/>
      <point x="229.3793103448276" y="392.3448275862069" type="curve"/>
      <point x="209.19540229885058" y="393.5402298850575"/>
      <point x="188.41379310344828" y="395.1379310344828"/>
      <point x="169.42528735632183" y="395.7356321839081" type="curve"/>
      <point x="169.42528735632183" y="318.90804597701145" type="line"/>
      <point x="190.80459770114942" y="319.50574712643675"/>
      <point x="211.58620689655172" y="321.10344827586204"/>
      <point x="233.5632183908046" y="321.7011494252873" type="curve"/>
      <point x="358.8735632183908" y="320.50574712643675"/>
      <point x="432.3448275862069" y="274.85057471264366"/>
      <point x="432.3448275862069" y="188.5632183908046" type="curve" smooth="yes"/>
      <point x="432.3448275862069" y="116.49425287356323"/>
      <point x="384.1034482758621" y="65.83908045977012"/>
      <point x="268.81609195402297" y="64.24137931034483" type="curve"/>
      <point x="228.37931034482762" y="64.24137931034483"/>
      <point x="137.22988505747122" y="94.22988505747126"/>
      <point x="53.01149425287356" y="125.64367816091955" type="curve"/>
      <point x="44.02298850574712" y="41.827586206896555" type="line"/>
      <point x="122.4367816091954" y="17.011494252873565"/>
      <point x="229.3793103448276" y="-10.793103448275861"/>
    </contour>
  </outline>
</glyph>
<glyph name="four" format="2">
  <advance width="599.7586206896551"/>
  <unicode hex="0034"/>
  <outline>
    <contour>
      <point x="354.2988505747126" y="0.0" type="curve"/>
      <point x="452.65517241379314" y="0.0" type="line"/>
      <point x="450.45977011494256" y="63.39080459770115"/>
      <point x="448.264367816092" y="113.37931034482759"/>
      <point x="445.4712643678161" y="190.367816091954" type="curve"/>
      <point x="445.4712643678161" y="444.7931034482759" type="line"/>
      <point x="448.264367816092" y="522.7931034482758"/>
      <point x="450.45977011494256" y="602.7931034482758"/>
      <point x="452.65517241379314" y="685.7931034482758" type="curve"/>
      <point x="355.28735632183907" y="685.7931034482758" type="line"/>
      <point x="325.67816091954023" y="641.183908045977"/>
      <point x="295.0689655172414" y="594.9770114942529"/>
      <point x="265.4597701149425" y="550.3678160919541" type="curve"/>
      <point x="177.64367816091954" y="425.7471264367816" type="line"/>
      <point x="132.0344827586207" y="363.52873563218395"/>
      <point x="72.02298850574712" y="281.5057471264368"/>
      <point x="30.2183908045977" y="224.49425287356323" type="curve"/>
      <point x="30.2183908045977" y="158.24137931034483" type="line"/>
      <point x="397.42528735632186" y="158.24137931034483" type="line"/>
      <point x="449.8045977011494" y="157.04597701149424"/>
      <point x="525.9770114942529" y="155.44827586206895"/>
      <point x="573.7586206896551" y="153.85057471264366" type="curve"/>
      <point x="573.7586206896551" y="238.05747126436782" type="line"/>
      <point x="525.9770114942529" y="236.45977011494256"/>
      <point x="449.8045977011494" y="234.26436781609198"/>
      <point x="397.42528735632186" y="233.0689655172414" type="curve"/>
      <point x="383.2298850574713" y="233.0689655172414" type="line"/>
      <point x="99.45977011494253" y="233.0689655172414" type="line"/>
      <point x="107.44827586206897" y="202.33333333333334" type="line"/>
      <point x="138.05747126436782" y="247.3448275862069"/>
      <point x="167.0689655172414" y="291.35632183908046"/>
      <point x="197.67816091954023" y="336.9655172413793" type="curve"/>
      <point x="317.5057471264368" y="506.8045977011494" type="line"/>
      <point x="354.11494252873564" y="557.0229885057472"/>
      <point x="390.7241379310345" y="607.6436781609195"/>
      <point x="427.9310344827586" y="658.4597701149426" type="curve"/>
      <point x="358.28735632183907" y="644.0689655172414" type="line"/>
      <point x="360.08045977011494" y="572.8620689655172"/>
      <point x="362.2758620689655" y="501.0574712643678"/>
      <point x="363.4712643678161" y="431.04597701149424" type="curve"/>
      <point x="363.4712643678161" y="206.14942528735634" type="line"/>
      <point x="361.08045977011494" y="190.367816091954" type="line"/>
      <point x="358.28735632183907" y="113.37931034482759"/>
      <point x="356.4942528735632" y="63.39080459770115"/>
    </contour>
  </outline>
</glyph>
<glyph name="five" format="2">
  <advance width="574.5747126436781"/>
  <unicode hex="0035"/>
  <outline>
    <contour>
      <point x="273.7931034482759" y="-10.793103448275861" type="curve" smooth="yes"/>
      <point x="437.5402298850575" y="-10.793103448275861"/>
      <point x="523.5402298850574" y="81.59770114942529"/>
      <point x="523.5402298850574" y="218.79310344827587" type="curve" smooth="yes"/>
      <point x="523.5402298850574" y="363.8045977011494"/>
      <point x="426.32183908045977" y="441.9655172413793"/>
      <point x="308.3103448275862" y="441.9655172413793" type="curve" smooth="yes"/>
      <point x="264.6666666666667" y="441.9655172413793"/>
      <point x="215.64367816091954" y="424.3448275862069"/>
      <point x="176.82758620689657" y="408.9310344827586" type="curve"/>
      <point x="168.4367816091954" y="408.9310344827586" type="line"/>
      <point x="168.4367816091954" y="454.7701149425287" type="line"/>
      <point x="170.22988505747128" y="510.00000000000006"/>
      <point x="172.42528735632186" y="576.6666666666666"/>
      <point x="174.2183908045977" y="639.9080459770115" type="curve"/>
      <point x="139.29885057471265" y="610.9655172413793" type="line"/>
      <point x="240.9080459770115" y="610.9655172413793" type="line"/>
      <point x="320.71264367816093" y="608.1724137931035"/>
      <point x="402.51724137931035" y="605.3793103448277"/>
      <point x="482.7241379310345" y="602.5862068965517" type="curve"/>
      <point x="482.7241379310345" y="685.7931034482758" type="line"/>
      <point x="80.44827586206895" y="685.7931034482758" type="line"/>
      <point x="82.64367816091954" y="609.0114942528736"/>
      <point x="84.8390804597701" y="524.2298850574713"/>
      <point x="87.03448275862068" y="433.85057471264366" type="curve"/>
      <point x="87.03448275862068" y="326.8735632183908" type="line"/>
      <point x="125.14942528735632" y="323.67816091954023" type="line"/>
      <point x="174.39080459770113" y="352.3103448275862"/>
      <point x="235.42528735632183" y="369.91954022988506"/>
      <point x="274.8390804597701" y="369.91954022988506" type="curve"/>
      <point x="365.0919540229885" y="368.32183908045977"/>
      <point x="436.35632183908046" y="329.0919540229885"/>
      <point x="436.35632183908046" y="220.58620689655172" type="curve" smooth="yes"/>
      <point x="436.35632183908046" y="121.89655172413794"/>
      <point x="380.5057471264368" y="65.83908045977012"/>
      <point x="267.2183908045977" y="64.24137931034483" type="curve"/>
      <point x="227.37931034482762" y="64.24137931034483"/>
      <point x="136.63218390804593" y="94.22988505747126"/>
      <point x="53.01149425287356" y="125.64367816091955" type="curve"/>
      <point x="44.02298850574712" y="41.827586206896555" type="line"/>
      <point x="121.4367816091954" y="17.011494252873565"/>
      <point x="226.7816091954023" y="-10.793103448275861"/>
    </contour>
  </outline>
</glyph>
<glyph name="six" format="2">
  <advance width="606.7701149425287"/>
  <unicode hex="0036"/>
  <outline>
    <contour>
      <point x="317.37931034482756" y="-10.793103448275861" type="curve" smooth="yes"/>
      <point x="476.735632183908" y="-10.793103448275861"/>
      <point x="555.735632183908" y="104.98850574712644"/>
      <point x="555.735632183908" y="228.77011494252875" type="curve" smooth="yes"/>
      <point x="555.735632183908" y="355.95402298850576"/>
      <point x="472.5402298850575" y="443.9655172413793"/>
      <point x="340.11494252873564" y="443.9655172413793" type="curve" smooth="yes"/>
      <point x="270.4827586206896" y="443.9655172413793"/>
      <point x="203.85057471264372" y="403.7356321839081"/>
      <point x="149.42528735632186" y="365.1264367816092" type="curve"/>
      <point x="135.0344827586207" y="366.1264367816092" type="line"/>
      <point x="119.28735632183908" y="334.1954022988506"/>
      <point x="118.6896551724138" y="317.39080459770116"/>
      <point x="135.632183908046" y="285.632183908046" type="curve"/>
      <point x="196.89655172413796" y="341.6896551724138"/>
      <point x="269.9655172413793" y="371.51724137931035"/>
      <point x="318.5977011494253" y="372.51724137931035" type="curve"/>
      <point x="424.10344827586204" y="370.32183908045977"/>
      <point x="470.9425287356322" y="306.6551724137931"/>
      <point x="470.9425287356322" y="224.58620689655172" type="curve" smooth="yes"/>
      <point x="470.9425287356322" y="141.91954022988506"/>
      <point x="423.10344827586204" y="66.83908045977012"/>
      <point x="314.39080459770116" y="64.24137931034483" type="curve"/>
      <point x="201.08045977011494" y="68.63218390804597"/>
      <point x="139.0344827586207" y="151.31034482758622"/>
      <point x="139.0344827586207" y="326.37931034482756" type="curve" smooth="yes"/>
      <point x="139.0344827586207" y="520.6781609195402"/>
      <point x="196.88505747126436" y="620.1609195402299"/>
      <point x="331.55172413793105" y="623.3563218390805" type="curve"/>
      <point x="350.5632183908046" y="623.3563218390805"/>
      <point x="435.7356321839081" y="596.5632183908045"/>
      <point x="505.55172413793105" y="568.1494252873563" type="curve"/>
      <point x="515.5402298850574" y="650.7701149425288" type="line"/>
      <point x="468.55172413793105" y="666.9770114942529"/>
      <point x="363.17241379310343" y="698.9885057471264"/>
      <point x="326.7701149425287" y="698.9885057471264" type="curve" smooth="yes"/>
      <point x="154.57471264367817" y="698.9885057471264"/>
      <point x="55.4367816091954" y="570.735632183908"/>
      <point x="55.4367816091954" y="328.57471264367814" type="curve" smooth="yes"/>
      <point x="55.4367816091954" y="107.80459770114942"/>
      <point x="148.22988505747125" y="-10.793103448275861"/>
    </contour>
  </outline>
</glyph>
<glyph name="eight" format="2">
  <advance width="606.9655172413793"/>
  <unicode hex="0038"/>
  <outline>
    <contour>
      <point x="303.7816091954023" y="-10.793103448275861" type="curve" smooth="yes"/>
      <point x="474.9425287356322" y="-10.793103448275861"/>
      <point x="555.9310344827586" y="78.01149425287356"/>
      <point x="555.9310344827586" y="192.19540229885058" type="curve" smooth="yes"/>
      <point x="555.9310344827586" y="304.2068965517241"/>
      <point x="474.9080459770115" y="356.01149425287355"/>
      <point x="413.91954022988506" y="369.2068965517241" type="curve"/>
      <point x="413.91954022988506" y="377.5977011494253" type="line"/>
      <point x="475.3103448275862" y="394.0"/>
      <point x="532.9195402298851" y="446.60919540229884"/>
      <point x="532.9195402298851" y="528.0114942528736" type="curve" smooth="yes"/>
      <point x="532.9195402298851" y="630.5977011494252"/>
      <point x="443.9310344827586" y="698.9885057471264"/>
      <point x="303.7816091954023" y="698.9885057471264" type="curve" smooth="yes"/>
      <point x="163.0344827586207" y="698.9885057471264"/>
      <point x="74.04597701149424" y="630.5977011494252"/>
      <point x="74.04597701149424" y="528.0114942528736" type="curve" smooth="yes"/>
      <point x="74.04597701149424" y="446.60919540229884"/>
      <point x="131.6551724137931" y="394.0"/>
      <point x="192.64367816091954" y="377.5977011494253" type="curve"/>
      <point x="192.64367816091954" y="369.2068965517241" type="line"/>
      <point x="132.05747126436782" y="356.01149425287355"/>
      <point x="51.03448275862069" y="304.8045977011494"/>
      <point x="51.03448275862069" y="192.19540229885058" type="curve" smooth="yes"/>
      <point x="51.03448275862069" y="78.01149425287356"/>
      <point x="132.02298850574712" y="-10.793103448275861"/>
    </contour>
    <contour>
      <point x="303.7816091954023" y="64.83908045977012" type="curve"/>
      <point x="185.4712643678161" y="67.0344827586207"/>
      <point x="135.82758620689657" y="122.49425287356323"/>
      <point x="135.82758620689657" y="199.367816091954" type="curve" smooth="yes"/>
      <point x="135.82758620689657" y="289.4597701149425"/>
      <point x="208.70114942528735" y="330.7011494252873"/>
      <point x="303.18390804597703" y="333.4942528735632" type="curve"/>
      <point x="398.264367816092" y="330.7011494252873"/>
      <point x="471.13793103448273" y="289.4597701149425"/>
      <point x="471.13793103448273" y="199.367816091954" type="curve" smooth="yes"/>
      <point x="471.13793103448273" y="122.49425287356323"/>
      <point x="421.4942528735632" y="67.0344827586207"/>
    </contour>
    <contour>
      <point x="303.7816091954023" y="401.7471264367816" type="curve"/>
      <point x="210.09195402298852" y="404.5402298850575"/>
      <point x="157.64367816091954" y="449.7931034482759"/>
      <point x="157.64367816091954" y="517.6551724137931" type="curve" smooth="yes"/>
      <point x="157.64367816091954" y="587.1149425287356"/>
      <point x="214.89655172413794" y="622.9540229885057"/>
      <point x="303.7816091954023" y="625.1494252873563" type="curve"/>
      <point x="391.6666666666667" y="622.9540229885057"/>
      <point x="449.91954022988506" y="587.1149425287356"/>
      <point x="449.91954022988506" y="517.6551724137931" type="curve" smooth="yes"/>
      <point x="449.91954022988506" y="449.7931034482759"/>
      <point x="396.4712643678161" y="404.5402298850575"/>
    </contour>
  </outline>
</glyph>
<glyph name="less" format="2">
  <advance width="568.2105263157895"/>
  <unicode hex="003C"/>
  <outline>
    <contour>
      <point x="506.42105263157896" y="68.7578947368421" type="curve"/>
      <point x="506.42105263157896" y="157.02105263157895" type="line"/>
      <point x="436.17894736842106" y="185.00000000000003"/>
      <point x="360.12631578947367" y="215.8842105263158"/>
      <point x="288.4315789473684" y="244.58947368421053" type="curve"/>
      <point x="173.03157894736842" y="293.7368421052632" type="line"/>
      <point x="173.03157894736842" y="302.4736842105263" type="line"/>
      <point x="288.4315789473684" y="351.62105263157895" type="line"/>
      <point x="360.12631578947367" y="380.3263157894737"/>
      <point x="436.17894736842106" y="411.2105263157895"/>
      <point x="506.42105263157896" y="439.18947368421055" type="curve"/>
      <point x="506.42105263157896" y="527.4526315789474" type="line"/>
      <point x="443.22105263157897" y="499.35789473684207"/>
      <point x="382.2105263157895" y="472.08421052631576"/>
      <point x="332.5578947368421" y="449.9894736842105" type="curve"/>
      <point x="234.2" y="408.2736842105263" type="line"/>
      <point x="182.36842105263156" y="387.82105263157894"/>
      <point x="123.71578947368421" y="364.36842105263156"/>
      <point x="61.78947368421053" y="339.91578947368424" type="curve"/>
      <point x="61.78947368421053" y="256.29473684210524" type="line"/>
      <point x="123.71578947368421" y="232.56842105263158"/>
      <point x="183.82105263157894" y="208.38947368421054"/>
      <point x="234.2" y="187.93684210526317" type="curve"/>
      <point x="332.5578947368421" y="146.22105263157894" type="line"/>
      <point x="383.66315789473686" y="123.39999999999999"/>
      <point x="444.67368421052635" y="96.12631578947368"/>
    </contour>
  </outline>
</glyph>
<glyph name="equal" format="2">
  <advance width="568.2105263157895"/>
  <unicode hex="003D"/>
  <outline>
    <contour>
      <point x="64.52631578947368" y="146.45263157894735" type="line"/>
      <point x="127.17894736842105" y="148.0"/>
      <point x="196.6421052631579" y="149.54736842105262"/>
      <point x="237.66315789473686" y="150.09473684210525" type="curve"/>
      <point x="330.5473684210526" y="150.09473684210525" type="line"/>
      <point x="371.56842105263155" y="149.54736842105262"/>
      <point x="441.0315789473684" y="148.0"/>
      <point x="503.6842105263158" y="146.45263157894735" type="curve"/>
      <point x="503.6842105263158" y="227.5263157894737" type="line"/>
      <point x="441.0315789473684" y="225.97894736842105"/>
      <point x="371.56842105263155" y="224.43157894736842"/>
      <point x="330.5473684210526" y="223.8842105263158" type="curve"/>
      <point x="237.66315789473686" y="223.8842105263158" type="line"/>
      <point x="196.6421052631579" y="224.43157894736842"/>
      <point x="127.17894736842105" y="225.97894736842105"/>
      <point x="64.52631578947368" y="227.5263157894737" type="curve"/>
    </contour>
    <contour>
      <point x="64.52631578947368" y="370.13684210526316" type="line"/>
      <point x="127.17894736842105" y="371.6842105263158"/>
      <point x="196.6421052631579" y="373.2315789473684"/>
      <point x="237.66315789473686" y="373.77894736842103" type="curve"/>
      <point x="330.5473684210526" y="373.77894736842103" type="line"/>
      <point x="371.56842105263155" y="373.2315789473684"/>
      <point x="441.0315789473684" y="371.6842105263158"/>
      <point x="503.6842105263158" y="370.13684210526316" type="curve"/>
      <point x="503.6842105263158" y="451.2105263157895" type="line"/>
      <point x="441.0315789473684" y="449.66315789473686"/>
      <point x="371.56842105263155" y="448.11578947368423"/>
      <point x="330.5473684210526" y="447.5684210526316" type="curve"/>
      <point x="237.66315789473686" y="447.5684210526316" type="line"/>
      <point x="196.6421052631579" y="448.11578947368423"/>
      <point x="127.17894736842105" y="449.66315789473686"/>
      <point x="64.52631578947368" y="451.2105263157895" type="curve"/>
    </contour>
  </outline>
</glyph>
<glyph name="greater" format="2">
  <advance width="568.2105263157895"/>
  <unicode hex="003E"/>
  <outline>
    <contour>
      <point x="61.78947368421053" y="68.7578947368421" type="line"/>
      <point x="124.98947368421052" y="96.85263157894737"/>
      <point x="186.0" y="124.12631578947368"/>
      <point x="235.65263157894736" y="146.22105263157894" type="curve"/>
      <point x="334.0105263157895" y="187.93684210526317" type="line"/>
      <point x="385.8421052631579" y="208.38947368421054"/>
      <point x="444.4947368421053" y="231.8421052631579"/>
      <point x="506.42105263157896" y="256.29473684210524" type="curve"/>
      <point x="506.42105263157896" y="339.91578947368424" type="line"/>
      <point x="444.4947368421053" y="363.6421052631579"/>
      <point x="384.38947368421054" y="387.82105263157894"/>
      <point x="334.0105263157895" y="408.2736842105263" type="curve"/>
      <point x="235.65263157894736" y="449.9894736842105" type="line"/>
      <point x="184.54736842105262" y="472.81052631578945"/>
      <point x="123.53684210526316" y="500.08421052631576"/>
      <point x="61.78947368421053" y="527.4526315789474" type="curve"/>
      <point x="61.78947368421053" y="439.18947368421055" type="line"/>
      <point x="132.03157894736842" y="411.2105263157895"/>
      <point x="208.0842105263158" y="380.3263157894737"/>
      <point x="279.77894736842103" y="351.62105263157895" type="curve"/>
      <point x="395.17894736842106" y="302.4736842105263" type="line"/>
      <point x="395.17894736842106" y="293.7368421052632" type="line"/>
      <point x="279.77894736842103" y="244.58947368421053" type="line"/>
      <point x="208.0842105263158" y="215.8842105263158"/>
      <point x="132.03157894736842" y="185.00000000000003"/>
      <point x="61.78947368421053" y="157.02105263157895" type="curve"/>
    </contour>
  </outline>
</glyph>
<glyph name="at" format="2">
  <advance width="882.3894736842105"/>
  <unicode hex="0040"/>
  <outline>
    <contour>
      <point x="472.7368421052632" y="-131.57894736842104" type="curve" smooth="yes"/>
      <point x="537.2842105263159" y="-131.57894736842104"/>
      <point x="663.4631578947368" y="-88.49473684210527"/>
      <point x="755.2842105263157" y="-59.410526315789475" type="curve"/>
      <point x="755.2842105263157" y="5.778947368421054" type="line"/>
      <point x="641.0" y="-37.589473684210525"/>
      <point x="519.3578947368421" y="-73.94736842105262"/>
      <point x="472.7368421052632" y="-76.22105263157894" type="curve"/>
      <point x="195.58947368421053" y="-72.6736842105263"/>
      <point x="71.42105263157895" y="117.54736842105264"/>
      <point x="117.51578947368421" y="334.36842105263156" type="curve" smooth="yes"/>
      <point x="158.23157894736843" y="526.3052631578947"/>
      <point x="291.0" y="616.6947368421053"/>
      <point x="467.7368421052632" y="620.2421052631579" type="curve"/>
      <point x="683.4315789473684" y="616.6947368421053"/>
      <point x="804.5052631578948" y="462.93684210526317"/>
      <point x="766.6" y="258.6736842105263" type="curve" smooth="yes"/>
      <point x="759.9684210526316" y="223.5157894736842"/>
      <point x="674.9263157894737" y="124.19999999999999"/>
      <point x="642.2947368421053" y="120.36842105263158" type="curve"/>
      <point x="592.5894736842106" y="123.64210526315789"/>
      <point x="572.9684210526316" y="154.01052631578946"/>
      <point x="585.1473684210526" y="213.81052631578947" type="curve"/>
      <point x="612.4000000000001" y="344.89473684210526" type="line"/>
      <point x="624.5894736842105" y="386.5473684210526"/>
      <point x="638.957894736842" y="435.9157894736842"/>
      <point x="652.5999999999999" y="481.2842105263158" type="curve"/>
      <point x="582.8315789473685" y="476.9157894736842" type="line"/>
      <point x="567.0105263157894" y="422.9263157894737" type="line"/>
      <point x="559.8210526315789" y="422.9263157894737" type="line"/>
      <point x="525.0947368421054" y="454.1157894736842"/>
      <point x="469.38947368421054" y="487.0105263157895"/>
      <point x="430.13684210526316" y="487.0105263157895" type="curve" smooth="yes"/>
      <point x="336.6842105263158" y="487.0105263157895"/>
      <point x="266.2421052631579" y="413.3578947368421"/>
      <point x="243.61052631578949" y="303.8315789473684" type="curve" smooth="yes"/>
      <point x="218.33684210526314" y="182.2736842105263"/>
      <point x="267.62105263157895" y="71.3578947368421"/>
      <point x="384.7894736842105" y="71.3578947368421" type="curve" smooth="yes"/>
      <point x="414.9578947368421" y="71.3578947368421"/>
      <point x="468.30526315789473" y="101.4421052631579"/>
      <point x="514.1263157894737" y="139.52631578947367" type="curve"/>
      <point x="521.0421052631579" y="139.52631578947367" type="line"/>
      <point x="532.9684210526316" y="99.89473684210526"/>
      <point x="569.3684210526316" y="61.90526315789474"/>
      <point x="648.4736842105262" y="61.90526315789474" type="curve" smooth="yes"/>
      <point x="686.4842105263158" y="61.90526315789474"/>
      <point x="810.0526315789474" y="177.17894736842103"/>
      <point x="823.421052631579" y="247.2" type="curve" smooth="yes"/>
      <point x="868.3368421052631" y="481.58947368421053"/>
      <point x="716.0421052631579" y="675.6"/>
      <point x="469.0105263157895" y="675.6" type="curve" smooth="yes"/>
      <point x="276.82105263157894" y="675.6"/>
      <point x="107.15789473684211" y="572.9578947368421"/>
      <point x="60.242105263157896" y="345.2105263157895" type="curve" smooth="yes"/>
      <point x="9.410526315789474" y="100.43157894736842"/>
      <point x="159.25263157894736" y="-131.57894736842104"/>
    </contour>
    <contour>
      <point x="402.7473684210526" y="134.47368421052633" type="curve"/>
      <point x="323.6421052631579" y="136.47368421052633"/>
      <point x="293.7578947368421" y="205.5157894736842"/>
      <point x="312.10526315789474" y="292.89473684210526" type="curve" smooth="yes"/>
      <point x="327.82105263157894" y="366.8421052631579"/>
      <point x="371.5157894736842" y="420.0736842105263"/>
      <point x="444.4526315789474" y="422.34736842105264" type="curve"/>
      <point x="475.3368421052632" y="420.8"/>
      <point x="518.6526315789473" y="397.1894736842105"/>
      <point x="549.0736842105263" y="371.57894736842104" type="curve"/>
      <point x="513.3684210526316" y="206.31578947368422" type="line"/>
      <point x="476.7684210526316" y="163.53684210526316"/>
      <point x="429.5473684210527" y="137.29473684210527"/>
    </contour>
  </outline>
</glyph>
<glyph name="A" format="2">
  <advance width="691.2631578947369"/>
  <unicode hex="0041"/>
  <anchor x="345.7684210526316" y="0.0" name="bottom"/>
  <anchor x="668.0210526315789" y="0.0" name="ogonek"/>
  <anchor x="345.7684210526316" y="713.0" name="top"/>
  <outline>
    <contour>
      <point x="21.42105263157895" y="0.0" type="curve"/>
      <point x="130.20000000000002" y="0.0" type="line"/>
      <point x="156.81052631578947" y="84.25263157894737"/>
      <point x="185.6" y="173.86315789473684"/>
      <point x="211.4842105263158" y="256.66315789473686" type="curve"/>
      <point x="342.30526315789473" y="631.2947368421053" type="line"/>
      <point x="351.0421052631579" y="631.2947368421053" type="line"/>
      <point x="480.86315789473684" y="253.38947368421051" type="line"/>
      <point x="505.2947368421053" y="174.58947368421053"/>
      <point x="533.6315789473684" y="82.43157894736842"/>
      <point x="559.5157894736842" y="0.0" type="curve"/>
      <point x="669.6631578947369" y="0.0" type="line"/>
      <point x="640.2105263157895" y="76.27368421052631"/>
      <point x="607.0315789473684" y="161.2736842105263"/>
      <point x="575.8526315789474" y="241.0" type="curve"/>
      <point x="488.14736842105265" y="486.7263157894737" type="line"/>
      <point x="460.25263157894733" y="573.1789473684211"/>
      <point x="438.5368421052632" y="640.9052631578948"/>
      <point x="415.5473684210526" y="713.0" type="curve"/>
      <point x="279.4421052631579" y="713.0" type="line"/>
      <point x="255.72631578947366" y="639.4526315789474"/>
      <point x="234.46315789473684" y="574.6315789473684"/>
      <point x="205.8421052631579" y="486.7263157894737" type="curve"/>
      <point x="117.41052631578948" y="241.7263157894737" type="line"/>
      <point x="87.23157894736843" y="165.45263157894738"/>
      <point x="52.32631578947368" y="77.72631578947369"/>
    </contour>
    <contour>
      <point x="162.17894736842103" y="179.18947368421053" type="line"/>
      <point x="537.4736842105264" y="179.18947368421053" type="line"/>
      <point x="531.1789473684211" y="250.2421052631579" type="line"/>
      <point x="169.8421052631579" y="250.2421052631579" type="line"/>
    </contour>
  </outline>
</glyph>
<glyph name="B" format="2">
  <advance width="647.3448275862069"/>
  <unicode hex="0042"/>
  <outline>
    <contour>
      <point x="315.9770114942529" y="-3.3908045977011496" type="curve"/>
      <point x="536.3218390804598" y="-3.3908045977011496"/>
      <point x="606.1149425287356" y="84.01149425287356"/>
      <point x="606.1149425287356" y="195.98850574712642" type="curve" smooth="yes"/>
      <point x="606.1149425287356" y="306.4022988505747"/>
      <point x="535.2873563218391" y="352.0"/>
      <point x="461.7241379310345" y="366.58620689655174" type="curve"/>
      <point x="461.7241379310345" y="375.57471264367814" type="line"/>
      <point x="533.1149425287357" y="397.58620689655174"/>
      <point x="586.9080459770115" y="453.98850574712645"/>
      <point x="586.9080459770115" y="544.9885057471264" type="curve" smooth="yes"/>
      <point x="586.9080459770115" y="651.7931034482758"/>
      <point x="519.1034482758621" y="715.7931034482758"/>
      <point x="356.18390804597703" y="715.7931034482758" type="curve"/>
      <point x="261.2068965517241" y="715.7931034482758"/>
      <point x="169.44827586206898" y="713.0"/>
      <point x="87.08045977011493" y="713.0" type="curve"/>
      <point x="89.27586206896551" y="633.1954022988506"/>
      <point x="91.06896551724138" y="564.9885057471264"/>
      <point x="93.86206896551724" y="475.0" type="curve"/>
      <point x="93.86206896551724" y="235.60919540229884" type="line"/>
      <point x="91.06896551724138" y="147.41379310344828"/>
      <point x="89.27586206896551" y="78.60919540229885"/>
      <point x="87.08045977011493" y="0.0" type="curve"/>
      <point x="160.65517241379308" y="0.0"/>
      <point x="216.0" y="-3.3908045977011496"/>
    </contour>
    <contour>
      <point x="185.24137931034483" y="75.22988505747126" type="line"/>
      <point x="184.24137931034483" y="131.8735632183908"/>
      <point x="183.64367816091954" y="186.5057471264368"/>
      <point x="182.64367816091954" y="252.3448275862069" type="curve"/>
      <point x="182.64367816091954" y="457.0689655172414" type="line"/>
      <point x="183.64367816091954" y="525.2988505747127"/>
      <point x="184.24137931034483" y="580.5287356321838"/>
      <point x="185.24137931034483" y="637.7701149425287" type="curve"/>
      <point x="349.4022988505747" y="637.7701149425287" type="line" smooth="yes"/>
      <point x="444.6896551724138" y="637.7701149425287"/>
      <point x="493.5402298850575" y="603.1494252873563"/>
      <point x="493.5402298850575" y="525.264367816092" type="curve" smooth="yes"/>
      <point x="493.5402298850575" y="456.8045977011494"/>
      <point x="447.5057471264368" y="397.1264367816092"/>
      <point x="336.7931034482759" y="397.1264367816092" type="curve" smooth="yes"/>
      <point x="162.29885057471265" y="397.1264367816092" type="line"/>
      <point x="162.29885057471265" y="324.6896551724138" type="line"/>
      <point x="337.17241379310343" y="324.6896551724138" type="line" smooth="yes"/>
      <point x="447.67816091954023" y="324.6896551724138"/>
      <point x="512.1494252873563" y="289.8620689655172"/>
      <point x="512.1494252873563" y="202.5632183908046" type="curve" smooth="yes"/>
      <point x="512.1494252873563" y="123.28735632183908"/>
      <point x="460.1034482758621" y="75.22988505747126"/>
      <point x="323.55172413793105" y="75.22988505747126" type="curve" smooth="yes"/>
    </contour>
  </outline>
</glyph>
<glyph name="C" format="2">
  <advance width="684.6315789473684"/>
  <unicode hex="0043"/>
  <anchor x="398.81052631578945" y="0.0" name="bottom"/>
  <anchor x="391.5473684210526" y="713.0" name="top"/>
  <outline>
    <contour>
      <point x="415.63157894736844" y="-10.91578947368421" type="curve" smooth="yes"/>
      <point x="460.8947368421052" y="-10.91578947368421"/>
      <point x="568.1999999999999" y="15.347368421052632"/>
      <point x="629.6526315789474" y="36.705263157894734" type="curve"/>
      <point x="622.2842105263157" y="127.15789473684211" type="line"/>
      <point x="551.5684210526315" y="95.07368421052632"/>
      <point x="453.7473684210526" y="67.2421052631579"/>
      <point x="423.4842105263158" y="67.2421052631579" type="curve"/>
      <point x="239.03157894736842" y="70.51578947368421"/>
      <point x="144.17894736842106" y="197.90526315789475"/>
      <point x="144.17894736842106" y="357.17894736842106" type="curve" smooth="yes"/>
      <point x="144.17894736842106" y="535.6421052631579"/>
      <point x="254.93684210526317" y="642.7473684210527"/>
      <point x="400.90526315789475" y="646.021052631579" type="curve"/>
      <point x="426.4421052631579" y="646.021052631579"/>
      <point x="529.7263157894737" y="617.9263157894737"/>
      <point x="626.5473684210526" y="583.1052631578947" type="curve"/>
      <point x="634.8315789473684" y="672.8315789473684" type="line"/>
      <point x="569.1684210526315" y="692.4736842105264"/>
      <point x="446.9894736842105" y="726.0947368421052"/>
      <point x="402.17894736842106" y="726.0947368421052" type="curve" smooth="yes"/>
      <point x="192.22105263157894" y="726.0947368421052"/>
      <point x="50.14736842105263" y="573.5368421052632"/>
      <point x="50.14736842105263" y="357.63157894736844" type="curve" smooth="yes"/>
      <point x="50.14736842105263" y="145.33684210526314"/>
      <point x="189.25263157894736" y="-10.91578947368421"/>
    </contour>
  </outline>
</glyph>
<glyph name="E" format="2">
  <advance width="594.5862068965517"/>
  <unicode hex="0045"/>
  <anchor x="315.2183908045977" y="0.0" name="bottom"/>
  <anchor x="536.3678160919541" y="0.0" name="ogonek"/>
  <anchor x="315.2183908045977" y="713.0" name="top"/>
  <anchor x="37.0" y="713.0" name="topleft"/>
  <outline>
    <contour>
      <point x="87.08045977011493" y="0.0" type="curve"/>
      <point x="190.42528735632183" y="0.0" type="line"/>
      <point x="190.42528735632183" y="13.160919540229886" type="line"/>
      <point x="187.63218390804596" y="92.36781609195403"/>
      <point x="185.4367816091954" y="161.57471264367817"/>
      <point x="182.64367816091954" y="249.17241379310346" type="curve"/>
      <point x="182.64367816091954" y="461.8390804597701" type="line"/>
      <point x="185.4367816091954" y="550.6321839080459"/>
      <point x="187.63218390804596" y="620.0344827586207"/>
      <point x="190.42528735632183" y="699.8390804597701" type="curve"/>
      <point x="190.42528735632183" y="713.0" type="line"/>
      <point x="87.08045977011493" y="713.0" type="line"/>
      <point x="89.27586206896551" y="633.1954022988506"/>
      <point x="91.06896551724138" y="564.9885057471264"/>
      <point x="93.86206896551724" y="475.0" type="curve"/>
      <point x="93.86206896551724" y="235.60919540229884" type="line"/>
      <point x="91.06896551724138" y="147.41379310344828"/>
      <point x="89.27586206896551" y="78.60919540229885"/>
    </contour>
    <contour>
      <point x="171.26436781609198" y="0.0" type="line"/>
      <point x="538.1609195402299" y="0.0" type="line"/>
      <point x="538.1609195402299" y="85.80459770114942" type="line"/>
      <point x="465.9425287356322" y="83.01149425287356"/>
      <point x="389.32183908045977" y="80.41379310344827"/>
      <point x="302.2988505747127" y="77.62068965517241" type="curve"/>
      <point x="171.26436781609198" y="77.62068965517241" type="line"/>
    </contour>
    <contour>
      <point x="162.89655172413794" y="323.6896551724138" type="line"/>
      <point x="300.91954022988506" y="323.6896551724138" type="line"/>
      <point x="390.7356321839081" y="322.4942528735632"/>
      <point x="451.3448275862069" y="320.8965517241379"/>
      <point x="517.3563218390805" y="320.2988505747126" type="curve"/>
      <point x="517.3563218390805" y="404.3103448275862" type="line"/>
      <point x="454.7471264367816" y="402.71264367816093"/>
      <point x="393.33333333333337" y="401.11494252873564"/>
      <point x="301.32183908045977" y="398.91954022988506" type="curve"/>
      <point x="162.89655172413794" y="398.91954022988506" type="line"/>
    </contour>
    <contour>
      <point x="167.08045977011494" y="635.3793103448276" type="line"/>
      <point x="294.71264367816093" y="635.3793103448276" type="line"/>
      <point x="398.1379310344828" y="631.9885057471264"/>
      <point x="469.95402298850576" y="629.9885057471264"/>
      <point x="536.7701149425287" y="627.1954022988506" type="curve"/>
      <point x="536.7701149425287" y="713.0" type="line"/>
      <point x="167.08045977011494" y="713.0" type="line"/>
    </contour>
  </outline>
</glyph>
<glyph name="F" format="2">
  <advance width="575.1052631578947"/>
  <unicode hex="0046"/>
  <outline>
    <contour>
      <point x="87.2" y="0.0" type="curve"/>
      <point x="190.1578947368421" y="0.0" type="line"/>
      <point x="187.78947368421052" y="79.08421052631579"/>
      <point x="185.42105263157896" y="147.44210526315788"/>
      <point x="182.77894736842106" y="235.53684210526316" type="curve"/>
      <point x="182.77894736842106" y="461.6" type="line"/>
      <point x="185.42105263157896" y="550.7894736842105"/>
      <point x="187.78947368421052" y="619.9684210526316"/>
      <point x="190.1578947368421" y="699.8736842105263" type="curve"/>
      <point x="190.1578947368421" y="713.0" type="line"/>
      <point x="87.2" y="713.0" type="line"/>
      <point x="89.56842105263158" y="633.0947368421052"/>
      <point x="90.93684210526315" y="564.7368421052631"/>
      <point x="93.85263157894737" y="474.7263157894737" type="curve"/>
      <point x="93.85263157894737" y="235.53684210526316" type="line"/>
      <point x="91.21052631578947" y="147.16842105263157"/>
      <point x="89.56842105263158" y="78.81052631578947"/>
    </contour>
    <contour>
      <point x="161.17894736842106" y="319.0842105263158" type="line"/>
      <point x="291.89473684210526" y="319.0842105263158" type="line"/>
      <point x="381.7894736842105" y="317.71578947368425"/>
      <point x="442.32631578947365" y="316.16842105263163"/>
      <point x="508.3157894736842" y="315.34736842105264" type="curve"/>
      <point x="508.3157894736842" y="399.8842105263158" type="line"/>
      <point x="446.05263157894734" y="398.33684210526314"/>
      <point x="384.06315789473683" y="396.5157894736842"/>
      <point x="292.62105263157895" y="394.42105263157896" type="curve"/>
      <point x="161.17894736842106" y="394.42105263157896" type="line"/>
    </contour>
    <contour>
      <point x="165.55789473684212" y="635.2" type="line"/>
      <point x="286.35789473684207" y="635.2" type="line"/>
      <point x="389.7894736842105" y="632.2842105263159"/>
      <point x="461.41052631578947" y="629.4631578947369"/>
      <point x="528.3052631578947" y="627.3684210526317" type="curve"/>
      <point x="528.3052631578947" y="713.0" type="line"/>
      <point x="165.55789473684212" y="713.0" type="line"/>
    </contour>
  </outline>
</glyph>
<glyph name="G" format="2">
  <advance width="732.8947368421053"/>
  <unicode hex="0047"/>
  <anchor x="398.81052631578945" y="0.0" name="bottom"/>
  <anchor x="398.81052631578945" y="713.0" name="top"/>
  <outline>
    <contour>
      <point x="429.9789473684211" y="-10.642105263157895" type="curve" smooth="yes"/>
      <point x="478.1473684210527" y="-10.642105263157895"/>
      <point x="601.7578947368421" y="11.894736842105264"/>
      <point x="668.2105263157895" y="28.978947368421053" type="curve"/>
      <point x="652.9052631578948" y="116.96842105263158" type="line"/>
      <point x="575.8210526315789" y="88.8842105263158"/>
      <point x="469.9052631578947" y="65.87368421052632"/>
      <point x="436.2736842105263" y="65.87368421052632" type="curve"/>
      <point x="233.67368421052632" y="69.14736842105263"/>
      <point x="143.63157894736844" y="194.6315789473684"/>
      <point x="143.63157894736844" y="357.63157894736844" type="curve" smooth="yes"/>
      <point x="143.63157894736844" y="537.6421052631579"/>
      <point x="255.85263157894738" y="643.021052631579"/>
      <point x="405.2631578947369" y="646.021052631579" type="curve"/>
      <point x="432.07368421052627" y="646.021052631579"/>
      <point x="540.8210526315789" y="618.2"/>
      <point x="643.2842105263157" y="583.378947368421" type="curve"/>
      <point x="651.5684210526316" y="672.0105263157894" type="line"/>
      <point x="582.2631578947368" y="692.1999999999999"/>
      <point x="453.1684210526316" y="726.0947368421052"/>
      <point x="405.81052631578945" y="726.0947368421052" type="curve" smooth="yes"/>
      <point x="191.05263157894737" y="726.0947368421052"/>
      <point x="50.14736842105263" y="573.0947368421052"/>
      <point x="50.14736842105263" y="357.90526315789475" type="curve" smooth="yes"/>
      <point x="50.14736842105263" y="148.07368421052632"/>
      <point x="182.62105263157895" y="-10.642105263157895"/>
    </contour>
    <contour>
      <point x="573.9157894736842" y="28.978947368421053" type="curve"/>
      <point x="668.2105263157895" y="28.978947368421053" type="line"/>
      <point x="666.3894736842105" y="99.16842105263157"/>
      <point x="665.2947368421053" y="149.17894736842106"/>
      <point x="663.7473684210527" y="201.9157894736842" type="curve"/>
      <point x="666.3894736842105" y="264.10526315789474"/>
      <point x="668.0315789473684" y="308.29473684210524"/>
      <point x="670.4000000000001" y="357.7578947368421" type="curve"/>
      <point x="570.4526315789473" y="357.7578947368421" type="line"/>
      <point x="572.8210526315789" y="308.29473684210524"/>
      <point x="575.1894736842105" y="264.10526315789474"/>
      <point x="577.8315789473684" y="201.9157894736842" type="curve"/>
      <point x="576.2842105263157" y="149.17894736842106"/>
      <point x="575.7368421052631" y="99.71578947368421"/>
    </contour>
  </outline>
</glyph>
<glyph name="I" format="2">
  <advance width="283.10526315789474"/>
  <unicode hex="0049"/>
  <anchor x="139.95789473684212" y="0.0" name="bottom"/>
  <anchor x="193.16842105263157" y="0.0" name="ogonek"/>
  <anchor x="139.95789473684212" y="713.0" name="top"/>
  <anchor x="35.357894736842105" y="713.0" name="topleft"/>
  <outline>
    <contour>
      <point x="88.56842105263158" y="0.0" type="curve"/>
      <point x="194.53684210526316" y="0.0" type="line"/>
      <point x="192.16842105263157" y="79.08421052631579"/>
      <point x="189.8" y="147.44210526315788"/>
      <point x="187.1578947368421" y="235.53684210526316" type="curve"/>
      <point x="187.1578947368421" y="474.7263157894737" type="line"/>
      <point x="190.07368421052632" y="564.7368421052631"/>
      <point x="192.16842105263157" y="633.0947368421052"/>
      <point x="194.53684210526316" y="713.0" type="curve"/>
      <point x="88.56842105263158" y="713.0" type="line"/>
      <point x="90.93684210526315" y="633.0947368421052"/>
      <point x="92.30526315789473" y="564.7368421052631"/>
      <point x="95.22105263157894" y="474.7263157894737" type="curve"/>
      <point x="95.22105263157894" y="235.53684210526316" type="line"/>
      <point x="92.57894736842104" y="147.16842105263157"/>
      <point x="90.93684210526315" y="78.81052631578947"/>
    </contour>
  </outline>
</glyph>
<glyph name="J" format="2">
  <advance width="294.53684210526313"/>
  <unicode hex="004A"/>
  <anchor x="151.7578947368421" y="0.0" name="bottom"/>
  <anchor x="151.7578947368421" y="713.0" name="top"/>
  <outline>
    <contour>
      <point x="26.25263157894737" y="-157.81052631578947" type="curve"/>
      <point x="113.87368421052632" y="-157.81052631578947" type="line"/>
      <point x="141.2421052631579" y="-107.17894736842105"/>
      <point x="203.14736842105265" y="14.621052631578946"/>
      <point x="203.14736842105265" y="47.0421052631579" type="curve" smooth="yes"/>
      <point x="203.14736842105265" y="127.8736842105263"/>
      <point x="198.58947368421053" y="212.5263157894737"/>
      <point x="198.58947368421053" y="295.82105263157894" type="curve"/>
      <point x="198.58947368421053" y="474.7263157894737" type="line"/>
      <point x="200.77894736842106" y="564.7368421052631"/>
      <point x="202.14736842105265" y="633.0947368421052"/>
      <point x="205.96842105263158" y="713.0" type="curve"/>
      <point x="101.36842105263158" y="713.0" type="line"/>
      <point x="104.46315789473682" y="633.0947368421052"/>
      <point x="105.83157894736841" y="564.7368421052631"/>
      <point x="108.02105263157894" y="474.7263157894737" type="curve"/>
      <point x="108.02105263157894" y="273.30526315789473" type="line"/>
      <point x="105.47368421052632" y="43.23157894736842" type="line"/>
      <point x="76.94736842105263" y="-29.326315789473682"/>
      <point x="51.60000000000001" y="-93.70526315789473"/>
    </contour>
  </outline>
</glyph>
<glyph name="K" format="2">
  <advance width="670.8105263157895"/>
  <unicode hex="004B"/>
  <anchor x="344.04210526315785" y="0.0" name="bottom"/>
  <anchor x="344.04210526315785" y="713.0" name="top"/>
  <outline>
    <contour>
      <point x="521.3157894736843" y="0.0" type="curve"/>
      <point x="651.0315789473685" y="0.0" type="line"/>
      <point x="590.3263157894736" y="62.284210526315796"/>
      <point x="494.9052631578947" y="161.03157894736842"/>
      <point x="423.56842105263155" y="234.86315789473684" type="curve"/>
      <point x="273.63157894736844" y="396.4421052631579" type="line"/>
      <point x="275.0" y="356.7157894736842" type="line"/>
      <point x="409.12631578947367" y="493.63157894736844" type="line"/>
      <point x="481.7368421052631" y="565.7263157894737"/>
      <point x="554.5263157894736" y="637.0"/>
      <point x="632.042105263158" y="713.0" type="curve"/>
      <point x="506.6105263157895" y="713.0" type="line"/>
      <point x="437.22105263157897" y="639.021052631579"/>
      <point x="389.0842105263158" y="587.3052631578947"/>
      <point x="335.04210526315785" y="528.8631578947368" type="curve"/>
      <point x="215.13684210526318" y="405.9894736842105" type="line"/>
      <point x="173.95789473684212" y="405.9894736842105" type="line"/>
      <point x="173.95789473684212" y="331.7473684210526" type="line"/>
      <point x="215.50526315789475" y="331.7473684210526" type="line"/>
      <point x="353.84210526315786" y="185.05263157894737" type="line"/>
      <point x="405.61052631578946" y="128.06315789473683"/>
      <point x="458.1052631578947" y="69.62105263157895"/>
    </contour>
    <contour>
      <point x="87.2" y="0.0" type="curve"/>
      <point x="191.5263157894737" y="0.0" type="line"/>
      <point x="189.1578947368421" y="79.08421052631579"/>
      <point x="186.78947368421055" y="147.44210526315788"/>
      <point x="184.14736842105265" y="235.53684210526316" type="curve"/>
      <point x="184.14736842105265" y="474.7263157894737" type="line"/>
      <point x="187.06315789473686" y="564.7368421052631"/>
      <point x="189.1578947368421" y="633.0947368421052"/>
      <point x="191.5263157894737" y="713.0" type="curve"/>
      <point x="87.2" y="713.0" type="line"/>
      <point x="89.56842105263158" y="633.0947368421052"/>
      <point x="90.93684210526315" y="564.7368421052631"/>
      <point x="93.85263157894737" y="474.7263157894737" type="curve"/>
      <point x="93.85263157894737" y="235.53684210526316" type="line"/>
      <point x="91.21052631578947" y="147.16842105263157"/>
      <point x="89.56842105263158" y="78.81052631578947"/>
    </contour>
  </outline>
</glyph>
<glyph name="L" format="2">
  <advance width="569.5578947368422"/>
  <unicode hex="004C"/>
  <anchor x="313.2526315789474" y="0.0" name="bottom"/>
  <anchor x="423.7684210526316" y="357.82105263157894" name="center"/>
  <anchor x="202.5263157894737" y="713.0" name="top"/>
  <anchor x="283.87368421052633" y="496.18947368421055" name="topright"/>
  <outline>
    <contour>
      <point x="87.2" y="0.0" type="curve"/>
      <point x="191.8" y="0.0" type="line"/>
      <point x="191.8" y="13.126315789473685" type="line"/>
      <point x="189.43157894736842" y="92.21052631578947"/>
      <point x="187.06315789473686" y="160.56842105263158"/>
      <point x="184.42105263157896" y="248.66315789473683" type="curve"/>
      <point x="184.42105263157896" y="474.7263157894737" type="line"/>
      <point x="187.33684210526317" y="564.7368421052631"/>
      <point x="189.43157894736842" y="633.0947368421052"/>
      <point x="191.8" y="713.0" type="curve"/>
      <point x="87.2" y="713.0" type="line"/>
      <point x="89.56842105263158" y="633.0947368421052"/>
      <point x="90.93684210526315" y="564.7368421052631"/>
      <point x="93.85263157894737" y="474.7263157894737" type="curve"/>
      <point x="93.85263157894737" y="235.53684210526316" type="line"/>
      <point x="91.21052631578947" y="147.16842105263157"/>
      <point x="89.56842105263158" y="78.81052631578947"/>
    </contour>
    <contour>
      <point x="171.30526315789476" y="0.0" type="line"/>
      <point x="535.3894736842105" y="0.0" type="line"/>
      <point x="535.3894736842105" y="90.28421052631579" type="line"/>
      <point x="457.13684210526316" y="87.36842105263159"/>
      <point x="391.06315789473683" y="85.0"/>
      <point x="277.09473684210525" y="80.53684210526316" type="curve"/>
      <point x="171.30526315789476" y="80.53684210526316" type="line"/>
    </contour>
  </outline>
</glyph>
<glyph name="N" format="2">
  <advance width="757.4526315789474"/>
  <unicode hex="004E"/>
  <anchor x="379.0" y="0.0" name="bottom"/>
  <anchor x="379.0" y="713.0" name="top"/>
  <outline>
    <contour>
      <point x="87.2" y="0.0" type="curve"/>
      <point x="187.14736842105265" y="0.0" type="line"/>
      <point x="184.77894736842106" y="79.08421052631579"/>
      <point x="182.4105263157895" y="147.44210526315788"/>
      <point x="179.7684210526316" y="235.53684210526316" type="curve"/>
      <point x="179.7684210526316" y="558.9368421052632" type="line"/>
      <point x="187.05263157894737" y="558.9368421052632" type="line"/>
      <point x="342.4947368421052" y="339.0736842105263" type="line"/>
      <point x="432.7894736842105" y="207.33684210526317"/>
      <point x="505.9157894736842" y="100.67368421052632"/>
      <point x="574.9578947368421" y="0.0" type="curve"/>
      <point x="670.2526315789474" y="0.0" type="line"/>
      <point x="667.8842105263158" y="79.08421052631579"/>
      <point x="665.5157894736842" y="147.44210526315788"/>
      <point x="662.8736842105263" y="235.53684210526316" type="curve"/>
      <point x="662.8736842105263" y="474.7263157894737" type="line"/>
      <point x="665.7894736842105" y="564.7368421052631"/>
      <point x="667.8842105263158" y="633.0947368421052"/>
      <point x="670.2526315789474" y="713.0" type="curve"/>
      <point x="570.3052631578947" y="713.0" type="line"/>
      <point x="572.6736842105263" y="633.0947368421052"/>
      <point x="574.0421052631579" y="564.7368421052631"/>
      <point x="576.957894736842" y="474.7263157894737" type="curve"/>
      <point x="576.957894736842" y="156.96842105263158" type="line"/>
      <point x="569.4" y="156.96842105263158" type="line"/>
      <point x="414.77894736842103" y="375.10526315789474" type="line"/>
      <point x="341.4736842105263" y="482.94736842105266"/>
      <point x="266.4421052631579" y="593.0631578947368"/>
      <point x="185.41052631578947" y="713.0" type="curve"/>
      <point x="87.2" y="713.0" type="line"/>
      <point x="89.56842105263158" y="633.0947368421052"/>
      <point x="90.93684210526315" y="564.7368421052631"/>
      <point x="93.85263157894737" y="474.7263157894737" type="curve"/>
      <point x="93.85263157894737" y="235.53684210526316" type="line"/>
      <point x="91.21052631578947" y="147.16842105263157"/>
      <point x="89.56842105263158" y="78.81052631578947"/>
    </contour>
  </outline>
</glyph>
<glyph name="R" format="2">
  <advance width="674.3333333333333"/>
  <unicode hex="0052"/>
  <anchor x="337.9655172413793" y="0.0" name="bottom"/>
  <anchor x="330.32183908045977" y="713.0" name="top"/>
  <outline>
    <contour>
      <point x="527.7586206896552" y="0.0" type="curve"/>
      <point x="649.4827586206897" y="0.0" type="line"/>
      <point x="601.6666666666666" y="57.0"/>
      <point x="533.0459770114943" y="139.79310344827587"/>
      <point x="479.2298850574713" y="203.98850574712642" type="curve"/>
      <point x="366.7816091954023" y="345.18390804597703" type="line"/>
      <point x="338.28735632183907" y="305.6666666666667" type="line"/>
      <point x="518.3103448275862" y="306.6666666666667"/>
      <point x="579.2873563218391" y="403.4597701149425"/>
      <point x="579.2873563218391" y="519.8390804597701" type="curve" smooth="yes"/>
      <point x="579.2873563218391" y="659.3908045977012"/>
      <point x="498.5287356321839" y="715.7931034482758"/>
      <point x="335.5632183908046" y="715.7931034482758" type="curve"/>
      <point x="236.17241379310346" y="715.1954022988506"/>
      <point x="150.64367816091954" y="713.5977011494252"/>
      <point x="87.08045977011493" y="713.0" type="curve"/>
      <point x="153.71264367816093" y="637.7701149425287" type="line"/>
      <point x="331.7701149425287" y="637.7701149425287" type="line" smooth="yes"/>
      <point x="399.62068965517244" y="637.7701149425287"/>
      <point x="486.51724137931035" y="630.1954022988506"/>
      <point x="486.51724137931035" y="510.8735632183908" type="curve" smooth="yes"/>
      <point x="486.51724137931035" y="404.1954022988506"/>
      <point x="427.4712643678161" y="364.14942528735634"/>
      <point x="302.33333333333337" y="364.14942528735634" type="curve" smooth="yes"/>
      <point x="166.88505747126436" y="364.14942528735634" type="line"/>
      <point x="166.88505747126436" y="289.32183908045977" type="line"/>
      <point x="330.67816091954023" y="289.32183908045977" type="line"/>
      <point x="275.2068965517241" y="333.98850574712645" type="line"/>
      <point x="403.632183908046" y="169.24137931034483" type="line"/>
      <point x="443.67816091954023" y="114.62068965517241"/>
      <point x="484.51724137931035" y="59.609195402298845"/>
    </contour>
    <contour>
      <point x="87.08045977011493" y="0.0" type="curve"/>
      <point x="190.42528735632183" y="0.0" type="line"/>
      <point x="188.22988505747125" y="79.20689655172414"/>
      <point x="185.4367816091954" y="147.41379310344828"/>
      <point x="183.24137931034483" y="235.60919540229884" type="curve"/>
      <point x="183.24137931034483" y="461.8390804597701" type="line"/>
      <point x="185.4367816091954" y="550.6321839080459"/>
      <point x="188.22988505747125" y="620.0344827586207"/>
      <point x="190.42528735632183" y="699.8390804597701" type="curve"/>
      <point x="87.08045977011493" y="713.0" type="line"/>
      <point x="89.27586206896551" y="633.1954022988506"/>
      <point x="91.06896551724138" y="564.9885057471264"/>
      <point x="93.86206896551724" y="475.0" type="curve"/>
      <point x="93.86206896551724" y="235.60919540229884" type="line"/>
      <point x="91.06896551724138" y="147.41379310344828"/>
      <point x="89.27586206896551" y="78.60919540229885"/>
    </contour>
  </outline>
</glyph>
<glyph name="S" format="2">
  <advance width="586.3563218390805"/>
  <unicode hex="0053"/>
  <anchor x="297.18390804597703" y="0.0" name="bottom"/>
  <anchor x="297.18390804597703" y="713.0" name="top"/>
  <outline>
    <contour>
      <point x="299.60919540229884" y="-10.793103448275861" type="curve" smooth="yes"/>
      <point x="471.14942528735634" y="-10.793103448275861"/>
      <point x="546.1264367816092" y="77.01149425287356"/>
      <point x="546.1264367816092" y="193.367816091954" type="curve" smooth="yes"/>
      <point x="546.1264367816092" y="299.51724137931035"/>
      <point x="491.5287356321839" y="347.51724137931035"/>
      <point x="320.1264367816092" y="402.1264367816092" type="curve" smooth="yes"/>
      <point x="200.83908045977012" y="440.1609195402299"/>
      <point x="149.80459770114942" y="467.97701149425285"/>
      <point x="149.80459770114942" y="535.4367816091954" type="curve" smooth="yes"/>
      <point x="149.80459770114942" y="613.1379310344828"/>
      <point x="217.27586206896552" y="645.7701149425287"/>
      <point x="295.1494252873563" y="647.7701149425287" type="curve"/>
      <point x="316.95402298850576" y="647.7701149425287"/>
      <point x="409.3448275862069" y="621.3678160919541"/>
      <point x="493.9310344827586" y="590.9655172413792" type="curve"/>
      <point x="501.91954022988506" y="678.5747126436781" type="line"/>
      <point x="443.14942528735634" y="694.9770114942528"/>
      <point x="332.9655172413793" y="726.1954022988506"/>
      <point x="287.98850574712645" y="726.1954022988506" type="curve" smooth="yes"/>
      <point x="134.4367816091954" y="726.1954022988506"/>
      <point x="54.643678160919535" y="643.2068965517242"/>
      <point x="54.643678160919535" y="531.8505747126437" type="curve" smooth="yes"/>
      <point x="54.643678160919535" y="418.2988505747126"/>
      <point x="132.85057471264366" y="372.5057471264368"/>
      <point x="269.0689655172414" y="330.0919540229885" type="curve" smooth="yes"/>
      <point x="384.735632183908" y="294.264367816092"/>
      <point x="451.5632183908046" y="264.04597701149424"/>
      <point x="451.5632183908046" y="188.58620689655172" type="curve" smooth="yes"/>
      <point x="451.5632183908046" y="101.26436781609195"/>
      <point x="383.4942528735632" y="69.0344827586207"/>
      <point x="299.0114942528736" y="67.0344827586207" type="curve"/>
      <point x="256.97701149425285" y="67.0344827586207"/>
      <point x="169.01149425287358" y="91.0344827586207"/>
      <point x="72.82758620689656" y="122.03448275862068" type="curve"/>
      <point x="64.4367816091954" y="34.229885057471265" type="line"/>
      <point x="149.82758620689657" y="11.218390804597703"/>
      <point x="249.20689655172413" y="-10.793103448275861"/>
    </contour>
  </outline>
</glyph>
<glyph name="T" format="2">
  <advance width="640.8315789473684"/>
  <unicode hex="0054"/>
  <anchor x="320.9157894736842" y="0.0" name="bottom"/>
  <anchor x="320.9157894736842" y="341.12631578947367" name="center"/>
  <anchor x="320.9157894736842" y="713.0" name="top"/>
  <outline>
    <contour>
      <point x="268.9789473684211" y="0.0" type="curve"/>
      <point x="373.30526315789473" y="0.0" type="line"/>
      <point x="370.9368421052631" y="79.08421052631579"/>
      <point x="368.56842105263155" y="147.44210526315788"/>
      <point x="365.9263157894737" y="235.53684210526316" type="curve"/>
      <point x="365.9263157894737" y="461.6" type="line"/>
      <point x="368.56842105263155" y="550.7894736842105"/>
      <point x="370.9368421052631" y="619.9684210526316"/>
      <point x="373.30526315789473" y="699.8736842105263" type="curve"/>
      <point x="373.30526315789473" y="713.0" type="line"/>
      <point x="268.2526315789474" y="713.0" type="line"/>
      <point x="268.2526315789474" y="699.8736842105263" type="line"/>
      <point x="270.621052631579" y="619.9684210526316"/>
      <point x="272.98947368421057" y="550.7894736842105"/>
      <point x="275.63157894736844" y="461.6" type="curve"/>
      <point x="275.63157894736844" y="235.53684210526316" type="line"/>
      <point x="272.98947368421057" y="147.16842105263157"/>
      <point x="271.3473684210527" y="78.81052631578947"/>
    </contour>
    <contour>
      <point x="30.894736842105264" y="622.7157894736841" type="line"/>
      <point x="86.88421052631578" y="625.3578947368421"/>
      <point x="145.8736842105263" y="629.0"/>
      <point x="226.76842105263157" y="632.4631578947368" type="curve"/>
      <point x="290.4842105263158" y="632.4631578947368" type="line"/>
      <point x="290.4842105263158" y="713.0" type="line"/>
      <point x="30.894736842105264" y="713.0" type="line"/>
    </contour>
    <contour>
      <point x="350.34736842105264" y="632.4631578947368" type="line"/>
      <point x="414.06315789473683" y="632.4631578947368" type="line"/>
      <point x="494.9578947368421" y="629.0"/>
      <point x="553.9473684210526" y="625.3578947368421"/>
      <point x="609.9368421052632" y="622.7157894736841" type="curve"/>
      <point x="609.9368421052632" y="713.0" type="line"/>
      <point x="350.34736842105264" y="713.0" type="line"/>
    </contour>
  </outline>
</glyph>
<glyph name="V" format="2">
  <advance width="687.7052631578947"/>
  <unicode hex="0056"/>
  <anchor x="344.57894736842104" y="0.0" name="bottom"/>
  <anchor x="344.57894736842104" y="713.0" name="top"/>
  <outline>
    <contour>
      <point x="276.61052631578946" y="0.0" type="curve"/>
      <point x="412.63157894736844" y="0.0" type="line"/>
      <point x="436.8" y="73.72631578947369"/>
      <point x="463.69473684210527" y="155.7263157894737"/>
      <point x="486.41052631578947" y="225.2736842105263" type="curve"/>
      <point x="566.021052631579" y="450.0" type="line"/>
      <point x="595.9263157894736" y="526.4526315789474"/>
      <point x="634.378947368421" y="626.2736842105263"/>
      <point x="668.2842105263159" y="713.0" type="curve"/>
      <point x="553.6631578947369" y="713.0" type="line"/>
      <point x="519.7894736842105" y="607.6736842105263"/>
      <point x="483.46315789473687" y="490.70526315789476"/>
      <point x="450.3157894736842" y="387.37894736842105" type="curve"/>
      <point x="349.12631578947367" y="93.74736842105264" type="line"/>
      <point x="340.38947368421054" y="93.74736842105264" type="line"/>
      <point x="240.1157894736842" y="386.37894736842105" type="line"/>
      <point x="207.2421052631579" y="488.5263157894737"/>
      <point x="168.0105263157895" y="610.3052631578947"/>
      <point x="134.86315789473684" y="713.0" type="curve"/>
      <point x="18.42105263157895" y="713.0" type="line"/>
      <point x="52.599999999999994" y="625.9052631578948"/>
      <point x="91.9578947368421" y="525.7263157894737"/>
      <point x="121.86315789473684" y="450.0" type="curve"/>
      <point x="202.37894736842105" y="226.0" type="line"/>
      <point x="224.82105263157897" y="157.7263157894737"/>
      <point x="254.1684210526316" y="69.54736842105262"/>
    </contour>
  </outline>
</glyph>
<glyph name="W" format="2">
  <advance width="1020.0736842105263"/>
  <unicode hex="0057"/>
  <anchor x="508.0315789473684" y="0.0" name="bottom"/>
  <anchor x="508.0315789473684" y="713.0" name="top"/>
  <outline>
    <contour>
      <point x="225.47368421052633" y="0.0" type="curve"/>
      <point x="351.62105263157895" y="0.0" type="line"/>
      <point x="374.5052631578947" y="94.86315789473686"/>
      <point x="403.4736842105263" y="212.07368421052632"/>
      <point x="427.0842105263158" y="307.8421052631579" type="curve"/>
      <point x="501.7473684210526" y="586.0631578947368" type="line"/>
      <point x="510.4842105263158" y="586.0631578947368" type="line"/>
      <point x="586.421052631579" y="308.11578947368423" type="line"/>
      <point x="610.0315789473684" y="212.34736842105264"/>
      <point x="639.2736842105263" y="97.0421052631579"/>
      <point x="662.8842105263159" y="0.0" type="curve"/>
      <point x="793.957894736842" y="0.0" type="line"/>
      <point x="811.0421052631579" y="67.54736842105262"/>
      <point x="833.3052631578947" y="154.0"/>
      <point x="852.1157894736842" y="225.7263157894737" type="curve"/>
      <point x="917.5578947368421" y="450.0" type="line"/>
      <point x="942.5578947368421" y="527.9052631578948"/>
      <point x="974.6526315789473" y="626.2736842105263"/>
      <point x="1003.2" y="713.0" type="curve"/>
      <point x="886.9368421052632" y="713.0" type="line"/>
      <point x="861.8736842105263" y="612.4947368421052"/>
      <point x="832.4526315789474" y="493.63157894736844"/>
      <point x="807.6631578947369" y="394.6736842105263" type="curve"/>
      <point x="730.7368421052631" y="106.78947368421053" type="line"/>
      <point x="722.0" y="106.78947368421053" type="line"/>
      <point x="646.0631578947368" y="393.6736842105263" type="line"/>
      <point x="621.0" y="495.0842105263158"/>
      <point x="593.2105263157895" y="611.0421052631579"/>
      <point x="568.1473684210525" y="713.0" type="curve"/>
      <point x="450.2" y="713.0" type="line"/>
      <point x="426.3157894736842" y="612.9473684210526"/>
      <point x="397.34736842105264" y="492.17894736842106"/>
      <point x="373.7368421052632" y="394.6736842105263" type="curve"/>
      <point x="299.0736842105263" y="106.78947368421053" type="line"/>
      <point x="290.33684210526314" y="106.78947368421053" type="line"/>
      <point x="214.13684210526316" y="392.22105263157897" type="line"/>
      <point x="188.62105263157895" y="494.3578947368421"/>
      <point x="159.6526315789474" y="610.5894736842105"/>
      <point x="134.13684210526316" y="713.0" type="curve"/>
      <point x="17.6" y="713.0" type="line"/>
      <point x="45.421052631578945" y="627.1789473684211"/>
      <point x="78.42105263157895" y="526.0"/>
      <point x="103.42105263157895" y="448.5473684210526" type="curve"/>
      <point x="167.58947368421053" y="225.0" type="line"/>
      <point x="185.4" y="156.2736842105263"/>
      <point x="206.93684210526314" y="71.27368421052633"/>
    </contour>
  </outline>
</glyph>
<glyph name="X" format="2">
  <advance width="686.0947368421052"/>
  <unicode hex="0058"/>
  <outline>
    <contour>
      <point x="30.505263157894735" y="0.0" type="curve"/>
      <point x="149.03157894736842" y="0.0" type="line"/>
      <point x="185.8105263157895" y="62.06315789473684"/>
      <point x="216.7789473684211" y="116.13684210526316"/>
      <point x="248.20000000000002" y="170.29473684210527" type="curve"/>
      <point x="328.76842105263154" y="299.9684210526316" type="line"/>
      <point x="337.5052631578947" y="299.9684210526316" type="line"/>
      <point x="423.7052631578947" y="171.02105263157895" type="line"/>
      <point x="457.12631578947367" y="118.0421052631579"/>
      <point x="492.5473684210526" y="61.78947368421053"/>
      <point x="532.0526315789474" y="0.0" type="curve"/>
      <point x="656.4105263157895" y="0.0" type="line"/>
      <point x="601.1473684210525" y="76.0"/>
      <point x="552.6105263157895" y="141.99999999999997"/>
      <point x="496.34736842105264" y="219.2736842105263" type="curve"/>
      <point x="390.65263157894736" y="374.82105263157894" type="line"/>
      <point x="390.65263157894736" y="346.05263157894734" type="line"/>
      <point x="493.1684210526316" y="509.2526315789474" type="line"/>
      <point x="532.2526315789473" y="566.8"/>
      <point x="579.6105263157895" y="636.4421052631579"/>
      <point x="631.7894736842105" y="713.0" type="curve"/>
      <point x="512.5368421052632" y="713.0" type="line"/>
      <point x="475.66315789473686" y="650.2"/>
      <point x="438.61052631578946" y="587.0421052631579"/>
      <point x="405.9157894736842" y="531.3368421052631" type="curve"/>
      <point x="338.7894736842105" y="423.5578947368421" type="line"/>
      <point x="330.05263157894734" y="423.5578947368421" type="line"/>
      <point x="260.9263157894737" y="530.6105263157895" type="line"/>
      <point x="227.95789473684212" y="584.8631578947369"/>
      <point x="190.3578947368421" y="647.8421052631579"/>
      <point x="151.03157894736842" y="713.0" type="curve"/>
      <point x="30.410526315789475" y="713.0" type="line"/>
      <point x="86.67368421052632" y="632.1789473684211"/>
      <point x="132.48421052631576" y="565.6315789473684"/>
      <point x="179.02105263157895" y="499.0842105263158" type="curve"/>
      <point x="274.9894736842105" y="352.2631578947368" type="line"/>
      <point x="274.9894736842105" y="378.8421052631579" type="line"/>
      <point x="165.66315789473686" y="203.10526315789474" type="line"/>
      <point x="117.12631578947368" y="130.46315789473684"/>
      <point x="74.13684210526316" y="65.73684210526315"/>
    </contour>
  </outline>
</glyph>
<glyph name="Z" format="2">
  <advance width="671.3157894736842"/>
  <unicode hex="005A"/>
  <anchor x="336.0210526315789" y="0.0" name="bottom"/>
  <anchor x="336.0210526315789" y="357.0" name="center"/>
  <anchor x="336.0210526315789" y="713.0" name="top"/>
  <outline>
    <contour>
      <point x="48.1578947368421" y="0.0" type="line"/>
      <point x="619.5263157894736" y="0.0" type="line"/>
      <point x="619.5263157894736" y="88.27368421052631" type="line"/>
      <point x="538.9157894736842" y="85.63157894736842"/>
      <point x="409.3263157894737" y="81.16842105263159"/>
      <point x="319.8105263157895" y="77.52631578947368" type="curve"/>
      <point x="133.87368421052633" y="77.52631578947368" type="line"/>
      <point x="147.32631578947368" y="39.48421052631579" type="line"/>
      <point x="434.0421052631579" y="411.2421052631579" type="line"/>
      <point x="495.84210526315786" y="488.66315789473686"/>
      <point x="555.8210526315789" y="564.9894736842106"/>
      <point x="615.4315789473684" y="640.2210526315789" type="curve"/>
      <point x="615.4315789473684" y="713.0" type="line"/>
      <point x="56.07368421052632" y="713.0" type="line"/>
      <point x="56.07368421052632" y="624.3578947368421" type="line"/>
      <point x="158.04210526315788" y="628.0947368421054"/>
      <point x="252.73684210526315" y="632.2842105263159"/>
      <point x="336.8" y="635.4736842105264" type="curve"/>
      <point x="540.6421052631579" y="635.4736842105264" type="line"/>
      <point x="519.2842105263157" y="667.7052631578947" type="line"/>
      <point x="248.3684210526316" y="313.18947368421055" type="line"/>
      <point x="186.2" y="235.1263157894737"/>
      <point x="100.58947368421052" y="128.26315789473685"/>
      <point x="48.1578947368421" y="61.93684210526316" type="curve"/>
    </contour>
  </outline>
</glyph>
<glyph name="bracketleft" format="2">
  <advance width="372.36842105263156"/>
  <unicode hex="005B"/>
  <outline>
    <contour>
      <point x="89.84210526315789" y="-116.92631578947369" type="curve"/>
      <point x="180.30526315789473" y="-116.92631578947369" type="line"/>
      <point x="180.30526315789473" y="-103.8" type="line"/>
      <point x="177.93684210526317" y="-24.71578947368421"/>
      <point x="175.56842105263158" y="44.36842105263158"/>
      <point x="172.92631578947368" y="132.46315789473684" type="curve"/>
      <point x="172.92631578947368" y="514.8947368421053" type="line"/>
      <point x="175.56842105263158" y="604.0842105263158"/>
      <point x="177.93684210526317" y="673.2631578947369"/>
      <point x="180.30526315789473" y="753.1684210526316" type="curve"/>
      <point x="180.30526315789473" y="766.2947368421053" type="line"/>
      <point x="89.84210526315789" y="766.2947368421053" type="line"/>
      <point x="91.93684210526315" y="685.8421052631579"/>
      <point x="93.03157894736842" y="618.0315789473684"/>
      <point x="95.67368421052632" y="528.021052631579" type="curve"/>
      <point x="95.67368421052632" y="118.61052631578947" type="line"/>
      <point x="93.30526315789474" y="30.515789473684208"/>
      <point x="91.93684210526315" y="-38.38947368421053"/>
    </contour>
    <contour>
      <point x="161.45263157894738" y="-116.92631578947369" type="line"/>
      <point x="356.1684210526316" y="-116.92631578947369" type="line"/>
      <point x="356.1684210526316" y="-43.50526315789474" type="line"/>
      <point x="308.5368421052632" y="-44.599999999999994"/>
      <point x="258.0" y="-46.421052631578945"/>
      <point x="200.09473684210528" y="-47.78947368421053" type="curve"/>
      <point x="161.45263157894738" y="-47.78947368421053" type="line"/>
    </contour>
    <contour>
      <point x="157.07368421052632" y="697.1578947368421" type="line"/>
      <point x="194.6315789473684" y="697.1578947368421" type="line"/>
      <point x="262.98947368421057" y="695.7894736842105"/>
      <point x="311.34736842105264" y="693.9684210526316"/>
      <point x="355.5263157894737" y="692.8736842105263" type="curve"/>
      <point x="355.5263157894737" y="766.2947368421053" type="line"/>
      <point x="157.07368421052632" y="766.2947368421053" type="line"/>
    </contour>
  </outline>
</glyph>
<glyph name="backslash" format="2">
  <advance width="450.86315789473684"/>
  <unicode hex="005C"/>
  <outline>
    <contour>
      <point x="330.70526315789476" y="0.0" type="curve"/>
      <point x="424.3578947368421" y="0.0" type="line"/>
      <point x="390.9052631578948" y="74.09473684210526"/>
      <point x="362.7263157894737" y="136.82105263157894"/>
      <point x="321.0947368421053" y="228.0" type="curve"/>
      <point x="215.21052631578948" y="476.0" type="line"/>
      <point x="176.58947368421053" y="571.7263157894737"/>
      <point x="150.6" y="636.7263157894737"/>
      <point x="119.8842105263158" y="713.0" type="curve"/>
      <point x="26.505263157894735" y="713.0" type="line"/>
      <point x="62.68421052631578" y="632.7263157894737"/>
      <point x="91.58947368421053" y="569.0"/>
      <point x="134.22105263157894" y="474.0" type="curve"/>
      <point x="239.10526315789474" y="228.0" type="line"/>
      <point x="276.00000000000006" y="136.0"/>
      <point x="300.9894736842105" y="74.0"/>
    </contour>
  </outline>
</glyph>
<glyph name="asciicircum" format="2">
  <advance width="608.6105263157895"/>
  <unicode hex="005E"/>
  <outline>
    <contour>
      <point x="471.3157894736842" y="378.9473684210526" type="curve"/>
      <point x="549.6421052631579" y="380.22105263157897" type="line"/>
      <point x="487.56842105263155" y="481.69473684210527"/>
      <point x="425.7684210526316" y="584.1684210526316"/>
      <point x="363.69473684210527" y="685.6421052631579" type="curve"/>
      <point x="244.9157894736842" y="685.6421052631579" type="line"/>
      <point x="182.8421052631579" y="584.1684210526316"/>
      <point x="121.0421052631579" y="483.69473684210527"/>
      <point x="58.96842105263158" y="382.22105263157897" type="curve"/>
      <point x="137.5684210526316" y="382.22105263157897" type="line"/>
      <point x="191.35789473684213" y="459.1894736842105"/>
      <point x="246.14736842105265" y="537.1578947368421"/>
      <point x="299.93684210526317" y="614.1263157894737" type="curve"/>
      <point x="308.6736842105263" y="614.1263157894737" type="line"/>
      <point x="362.7368421052632" y="535.8842105263158"/>
      <point x="417.2526315789474" y="457.1894736842105"/>
    </contour>
  </outline>
</glyph>
<glyph name="a" format="2">
  <advance width="526.1609195402299"/>
  <unicode hex="0061"/>
  <anchor x="263.5977011494253" y="0.0" name="bottom"/>
  <anchor x="449.3103448275862" y="0.0" name="ogonek"/>
  <anchor x="263.5977011494253" y="496.39080459770116" name="top"/>
  <outline>
    <contour>
      <point x="201.05747126436782" y="-10.195402298850574" type="curve" smooth="yes"/>
      <point x="241.8965517241379" y="-10.195402298850574"/>
      <point x="311.31034482758616" y="24.252873563218387"/>
      <point x="370.2988505747127" y="69.85057471264368" type="curve"/>
      <point x="378.0919540229885" y="69.85057471264368" type="line"/>
      <point x="397.8965517241379" y="0.0" type="line"/>
      <point x="480.5057471264368" y="0.0" type="line"/>
      <point x="467.5057471264368" y="52.57471264367816"/>
      <point x="458.3103448275862" y="93.94252873563218"/>
      <point x="448.9080459770115" y="140.1264367816092" type="curve"/>
      <point x="448.9080459770115" y="211.0" type="line" smooth="yes"/>
      <point x="448.9080459770115" y="253.41379310344828"/>
      <point x="451.5057471264368" y="303.60919540229884"/>
      <point x="451.5057471264368" y="334.0" type="curve" smooth="yes"/>
      <point x="451.5057471264368" y="455.98850574712645"/>
      <point x="376.55172413793105" y="507.58620689655174"/>
      <point x="269.18390804597703" y="507.58620689655174" type="curve" smooth="yes"/>
      <point x="234.57471264367817" y="507.58620689655174"/>
      <point x="119.64367816091954" y="483.7816091954023"/>
      <point x="73.85057471264368" y="472.9770114942529" type="curve"/>
      <point x="78.04597701149424" y="392.14942528735634" type="line"/>
      <point x="148.26436781609195" y="413.35632183908046"/>
      <point x="234.63218390804596" y="436.13793103448273"/>
      <point x="253.64367816091954" y="436.13793103448273" type="curve" smooth="yes"/>
      <point x="318.08045977011494" y="436.13793103448273"/>
      <point x="372.9080459770115" y="414.735632183908"/>
      <point x="369.1034482758621" y="316.18390804597703" type="curve"/>
      <point x="213.4367816091954" y="289.14942528735634" type="line" smooth="yes"/>
      <point x="137.86206896551724" y="276.3448275862069"/>
      <point x="51.85057471264368" y="241.75862068965517"/>
      <point x="51.85057471264368" y="133.57471264367817" type="curve" smooth="yes"/>
      <point x="51.85057471264368" y="43.60919540229885"/>
      <point x="112.22988505747126" y="-10.195402298850574"/>
    </contour>
    <contour>
      <point x="224.9655172413793" y="57.862068965517246" type="curve" smooth="yes"/>
      <point x="175.28735632183907" y="57.862068965517246"/>
      <point x="136.04597701149424" y="79.49425287356323"/>
      <point x="136.04597701149424" y="136.9655172413793" type="curve" smooth="yes"/>
      <point x="136.04597701149424" y="192.44827586206895"/>
      <point x="176.73563218390805" y="220.2528735632184"/>
      <point x="233.80459770114942" y="230.66666666666666" type="curve" smooth="yes"/>
      <point x="327.67816091954023" y="247.48275862068965"/>
      <point x="351.2988505747126" y="254.89655172413794"/>
      <point x="367.3103448275862" y="263.8965517241379" type="curve"/>
      <point x="366.9080459770115" y="139.73563218390805" type="line"/>
      <point x="318.6551724137931" y="95.08045977011493"/>
      <point x="251.42528735632183" y="57.862068965517246"/>
    </contour>
  </outline>
</glyph>
<glyph name="b" format="2">
  <advance width="592.1894736842105"/>
  <unicode hex="0062"/>
  <outline>
    <contour>
      <point x="329.7157894736842" y="-10.91578947368421" type="curve" smooth="yes"/>
      <point x="471.61052631578946" y="-10.91578947368421"/>
      <point x="541.6842105263157" y="110.54736842105264"/>
      <point x="541.6842105263157" y="249.54736842105262" type="curve" smooth="yes"/>
      <point x="541.6842105263157" y="397.09473684210525"/>
      <point x="463.978947368421" y="507.8315789473684"/>
      <point x="327.9894736842105" y="507.8315789473684" type="curve" smooth="yes"/>
      <point x="277.8421052631579" y="507.8315789473684"/>
      <point x="222.85263157894735" y="472.2105263157895"/>
      <point x="177.7684210526316" y="437.6631578947368" type="curve"/>
      <point x="169.03157894736844" y="437.6631578947368" type="line"/>
      <point x="169.03157894736844" y="493.7263157894737" type="line"/>
      <point x="172.22105263157897" y="581.7368421052631"/>
      <point x="175.13684210526318" y="662.6526315789474"/>
      <point x="177.77894736842106" y="743.2842105263157" type="curve"/>
      <point x="72.54736842105262" y="729.8210526315789" type="line"/>
      <point x="77.5578947368421" y="654.8105263157895"/>
      <point x="82.29473684210527" y="577.0842105263158"/>
      <point x="86.48421052631579" y="493.7263157894737" type="curve"/>
      <point x="86.48421052631579" y="218.81052631578947" type="line"/>
      <point x="83.84210526315789" y="136.98947368421054"/>
      <point x="82.47368421052632" y="73.63157894736841"/>
      <point x="80.10526315789473" y="0.0" type="curve"/>
      <point x="152.44210526315788" y="0.0" type="line"/>
      <point x="161.18947368421055" y="65.80000000000001" type="line"/>
      <point x="169.10526315789477" y="65.80000000000001" type="line"/>
      <point x="222.66315789473683" y="21.610526315789475"/>
      <point x="285.2736842105263" y="-10.91578947368421"/>
    </contour>
    <contour>
      <point x="304.81052631578945" y="62.95789473684211" type="curve"/>
      <point x="261.57894736842104" y="65.23157894736842"/>
      <point x="207.0842105263158" y="99.92631578947369"/>
      <point x="169.03157894736844" y="138.16842105263157" type="curve"/>
      <point x="169.03157894736844" y="364.29473684210524" type="line"/>
      <point x="214.34736842105264" y="407.88421052631577"/>
      <point x="268.56842105263155" y="431.58947368421053"/>
      <point x="303.35789473684207" y="433.13684210526316" type="curve"/>
      <point x="406.7157894736842" y="430.13684210526316"/>
      <point x="457.04210526315785" y="350.10526315789474"/>
      <point x="457.04210526315785" y="249.0" type="curve" smooth="yes"/>
      <point x="457.04210526315785" y="152.34736842105264"/>
      <point x="410.62105263157895" y="65.9578947368421"/>
    </contour>
  </outline>
</glyph>
<glyph name="c" format="2">
  <advance width="494.33684210526314"/>
  <unicode hex="0063"/>
  <anchor x="285.62105263157895" y="0.0" name="bottom"/>
  <anchor x="279.0842105263158" y="496.18947368421055" name="top"/>
  <outline>
    <contour>
      <point x="300.98947368421057" y="-9.821052631578947" type="curve" smooth="yes"/>
      <point x="332.0736842105263" y="-9.821052631578947"/>
      <point x="407.0947368421053" y="7.442105263157895"/>
      <point x="449.5473684210526" y="21.526315789473685" type="curve"/>
      <point x="442.2736842105263" y="97.75789473684212" type="line"/>
      <point x="397.7473684210526" y="78.31578947368422"/>
      <point x="336.40000000000003" y="62.13684210526316"/>
      <point x="317.41052631578947" y="62.13684210526316" type="curve" smooth="yes"/>
      <point x="196.4842105263158" y="64.58947368421052"/>
      <point x="134.32631578947368" y="142.8"/>
      <point x="134.32631578947368" y="250.18947368421053" type="curve" smooth="yes"/>
      <point x="134.32631578947368" y="362.5578947368421"/>
      <point x="200.09473684210528" y="430.9578947368421"/>
      <point x="299.2842105263158" y="433.9578947368421" type="curve"/>
      <point x="315.36842105263156" y="433.9578947368421"/>
      <point x="380.09473684210525" y="416.23157894736846"/>
      <point x="440.4526315789474" y="394.05263157894734" type="curve"/>
      <point x="448.18947368421055" y="471.37894736842105" type="line"/>
      <point x="403.89473684210526" y="485.0210526315789"/>
      <point x="321.0736842105264" y="507.5578947368421"/>
      <point x="291.1684210526316" y="507.5578947368421" type="curve" smooth="yes"/>
      <point x="137.41052631578947" y="507.5578947368421"/>
      <point x="49.95789473684211" y="396.0105263157895"/>
      <point x="49.95789473684211" y="248.2736842105263" type="curve" smooth="yes"/>
      <point x="49.95789473684211" y="101.53684210526316"/>
      <point x="141.06315789473683" y="-9.821052631578947"/>
    </contour>
  </outline>
</glyph>
<glyph name="d" format="2">
  <advance width="578.021052631579"/>
  <unicode hex="0064"/>
  <anchor x="310.37894736842105" y="0.0" name="bottom"/>
  <anchor x="290.9157894736842" y="248.09473684210528" name="center"/>
  <anchor x="310.37894736842105" y="725.7368421052631" name="top"/>
  <anchor x="553.7578947368421" y="496.18947368421055" name="topright"/>
  <outline>
    <contour>
      <point x="262.4736842105263" y="-10.91578947368421" type="curve" smooth="yes"/>
      <point x="306.91578947368424" y="-10.91578947368421"/>
      <point x="368.70526315789476" y="21.33684210526316"/>
      <point x="421.7157894736842" y="65.8" type="curve"/>
      <point x="429.63157894736844" y="65.8" type="line"/>
      <point x="435.18947368421055" y="0.0" type="line"/>
      <point x="512.8105263157895" y="0.0" type="line"/>
      <point x="510.4421052631579" y="73.63157894736841"/>
      <point x="508.34736842105264" y="136.98947368421054"/>
      <point x="505.70526315789476" y="218.81052631578947" type="curve"/>
      <point x="505.70526315789476" y="493.7263157894737" type="line"/>
      <point x="508.8947368421053" y="581.7368421052631"/>
      <point x="511.8105263157895" y="662.6526315789474"/>
      <point x="514.4526315789474" y="743.2842105263157" type="curve"/>
      <point x="409.2210526315789" y="729.8210526315789" type="line"/>
      <point x="414.2315789473684" y="654.8105263157895"/>
      <point x="418.9684210526315" y="577.0842105263158"/>
      <point x="423.1578947368421" y="493.7263157894737" type="curve"/>
      <point x="423.1578947368421" y="437.6631578947368" type="line"/>
      <point x="414.42105263157896" y="437.6631578947368" type="line"/>
      <point x="369.33684210526314" y="472.2105263157895"/>
      <point x="314.3473684210527" y="507.8315789473684"/>
      <point x="264.2" y="507.8315789473684" type="curve" smooth="yes"/>
      <point x="128.21052631578948" y="507.8315789473684"/>
      <point x="50.50526315789474" y="397.09473684210525"/>
      <point x="50.50526315789474" y="249.54736842105262" type="curve" smooth="yes"/>
      <point x="50.50526315789474" y="110.54736842105264"/>
      <point x="120.57894736842105" y="-10.91578947368421"/>
    </contour>
    <contour>
      <point x="287.37894736842105" y="62.95789473684211" type="curve"/>
      <point x="181.56842105263158" y="65.9578947368421"/>
      <point x="135.14736842105265" y="152.34736842105264"/>
      <point x="135.14736842105265" y="249.0" type="curve" smooth="yes"/>
      <point x="135.14736842105265" y="350.10526315789474"/>
      <point x="185.47368421052633" y="430.13684210526316"/>
      <point x="288.8315789473684" y="433.13684210526316" type="curve"/>
      <point x="323.621052631579" y="431.58947368421053"/>
      <point x="377.8421052631579" y="407.88421052631577"/>
      <point x="423.1578947368421" y="364.29473684210524" type="curve"/>
      <point x="423.1578947368421" y="138.16842105263157" type="line"/>
      <point x="385.10526315789474" y="99.92631578947369"/>
      <point x="330.61052631578946" y="65.23157894736842"/>
    </contour>
  </outline>
</glyph>
<glyph name="e" format="2">
  <advance width="527.4022988505748"/>
  <unicode hex="0065"/>
  <anchor x="284.81609195402297" y="0.0" name="bottom"/>
  <anchor x="388.7241379310345" y="0.0" name="ogonek"/>
  <anchor x="277.8045977011494" y="496.39080459770116" name="top"/>
  <outline>
    <contour>
      <point x="310.1954022988506" y="-10.793103448275861" type="curve" smooth="yes"/>
      <point x="347.5862068965517" y="-10.793103448275861"/>
      <point x="425.367816091954" y="7.011494252873565"/>
      <point x="472.5632183908046" y="22.413793103448278" type="curve"/>
      <point x="468.9655172413793" y="98.86206896551724" type="line"/>
      <point x="413.17241379310343" y="78.2528735632184"/>
      <point x="341.7701149425288" y="61.252873563218394"/>
      <point x="317.9655172413793" y="61.252873563218394" type="curve" smooth="yes"/>
      <point x="192.48275862068965" y="61.252873563218394"/>
      <point x="133.64367816091954" y="133.11494252873564"/>
      <point x="133.64367816091954" y="249.0" type="curve"/>
      <point x="133.64367816091954" y="258.17241379310343" type="line"/>
      <point x="133.64367816091954" y="362.8620689655172"/>
      <point x="189.68965517241378" y="436.7241379310345"/>
      <point x="280.60919540229884" y="440.32183908045977" type="curve"/>
      <point x="353.8965517241379" y="437.32183908045977"/>
      <point x="405.3448275862069" y="390.8965517241379"/>
      <point x="405.3448275862069" y="296.7931034482759" type="curve" smooth="yes"/>
      <point x="405.3448275862069" y="287.39080459770116"/>
      <point x="405.3448275862069" y="277.98850574712645"/>
      <point x="404.3448275862069" y="268.18390804597703" type="curve"/>
      <point x="477.9655172413793" y="231.6206896551724" type="line"/>
      <point x="480.9655172413793" y="251.2183908045977"/>
      <point x="481.9655172413793" y="269.81609195402297"/>
      <point x="481.9655172413793" y="294.60919540229884" type="curve" smooth="yes"/>
      <point x="481.9655172413793" y="432.97701149425285"/>
      <point x="404.97701149425285" y="507.58620689655174"/>
      <point x="279.60919540229884" y="507.58620689655174" type="curve" smooth="yes"/>
      <point x="136.05747126436782" y="507.58620689655174"/>
      <point x="50.04597701149425" y="400.98850574712645"/>
      <point x="50.04597701149425" y="251.0" type="curve" smooth="yes"/>
      <point x="50.04597701149425" y="99.20689655172414"/>
      <point x="132.24137931034483" y="-10.793103448275861"/>
    </contour>
    <contour>
      <point x="84.57471264367817" y="231.6206896551724" type="line"/>
      <point x="477.9655172413793" y="231.6206896551724" type="line"/>
      <point x="477.9655172413793" y="276.367816091954" type="line"/>
      <point x="427.2758620689655" y="295.0919540229885" type="line"/>
      <point x="84.57471264367817" y="292.1034482758621" type="line"/>
    </contour>
  </outline>
</glyph>
<glyph name="g" format="2">
  <advance width="543.1724137931035"/>
  <unicode hex="0067"/>
  <anchor x="270.18390804597703" y="-192.0" name="bottom"/>
  <anchor x="263.3448275862069" y="496.39080459770116" name="top"/>
  <outline>
    <contour>
      <point x="243.41379310344828" y="-203.19540229885058" type="curve" smooth="yes"/>
      <point x="360.17241379310343" y="-203.19540229885058"/>
      <point x="496.5287356321839" y="-148.58620689655172"/>
      <point x="496.5287356321839" y="-32.85057471264368" type="curve" smooth="yes"/>
      <point x="496.5287356321839" y="50.298850574712645"/>
      <point x="435.17241379310343" y="80.10344827586206"/>
      <point x="297.1379310344828" y="80.10344827586206" type="curve" smooth="yes"/>
      <point x="275.3333333333333" y="80.10344827586206" type="line" smooth="yes"/>
      <point x="201.88505747126436" y="80.10344827586206"/>
      <point x="172.4712643678161" y="88.51724137931035"/>
      <point x="172.4712643678161" y="117.35632183908046" type="curve" smooth="yes"/>
      <point x="172.4712643678161" y="144.5977011494253"/>
      <point x="205.28735632183907" y="154.60919540229884"/>
      <point x="275.7356321839081" y="171.02298850574712" type="curve" smooth="yes"/>
      <point x="372.95402298850576" y="193.63218390804596"/>
      <point x="437.3333333333333" y="241.6206896551724"/>
      <point x="437.3333333333333" y="340.2068965517241" type="curve" smooth="yes"/>
      <point x="437.3333333333333" y="397.60919540229884"/>
      <point x="412.91954022988506" y="445.82758620689657"/>
      <point x="354.4712643678161" y="474.2298850574713" type="curve"/>
      <point x="330.91954022988506" y="443.7011494252874" type="line"/>
      <point x="394.3333333333333" y="437.71264367816093"/>
      <point x="455.95402298850576" y="433.32183908045977"/>
      <point x="521.9655172413793" y="427.3333333333333" type="curve"/>
      <point x="521.9655172413793" y="496.98850574712645" type="line"/>
      <point x="367.71264367816093" y="496.98850574712645" type="line" smooth="yes"/>
      <point x="312.14942528735634" y="496.98850574712645"/>
      <point x="290.1609195402299" y="507.58620689655174"/>
      <point x="242.58620689655172" y="507.58620689655174" type="curve" smooth="yes"/>
      <point x="124.26436781609195" y="507.58620689655174"/>
      <point x="48.64367816091954" y="442.2068965517241"/>
      <point x="48.64367816091954" y="346.0" type="curve" smooth="yes"/>
      <point x="48.64367816091954" y="270.97701149425285"/>
      <point x="121.89655172413792" y="220.5632183908046"/>
      <point x="168.47126436781608" y="191.79310344827587" type="curve"/>
      <point x="168.47126436781608" y="185.0" type="line"/>
      <point x="116.47126436781609" y="166.2183908045977"/>
      <point x="94.85057471264368" y="138.42528735632183"/>
      <point x="94.85057471264368" y="103.01149425287356" type="curve" smooth="yes"/>
      <point x="94.85057471264368" y="56.81609195402299"/>
      <point x="129.64367816091954" y="37.816091954022994"/>
      <point x="149.6551724137931" y="31.2183908045977" type="curve"/>
      <point x="149.6551724137931" y="23.82758620689655" type="line"/>
      <point x="107.44827586206897" y="1.8275862068965512"/>
      <point x="53.03448275862069" y="-39.18390804597701"/>
      <point x="53.03448275862069" y="-85.98850574712644" type="curve" smooth="yes"/>
      <point x="53.03448275862069" y="-143.183908045977"/>
      <point x="96.02298850574712" y="-203.19540229885058"/>
    </contour>
    <contour>
      <point x="253.9655172413793" y="-135.9310344827586" type="curve"/>
      <point x="162.26436781609198" y="-133.9310344827586"/>
      <point x="129.45977011494253" y="-103.89655172413794"/>
      <point x="129.45977011494253" y="-68.85057471264368" type="curve" smooth="yes"/>
      <point x="129.45977011494253" y="-40.80459770114943"/>
      <point x="190.4942528735632" y="-5.758620689655172"/>
      <point x="233.3448275862069" y="10.850574712643677" type="curve"/>
      <point x="277.81609195402297" y="10.850574712643677" type="line" smooth="yes"/>
      <point x="388.50574712643675" y="10.850574712643677"/>
      <point x="417.71264367816093" y="-6.758620689655174"/>
      <point x="417.71264367816093" y="-45.60919540229885" type="curve" smooth="yes"/>
      <point x="417.71264367816093" y="-85.86206896551724"/>
      <point x="357.27586206896547" y="-130.94252873563215"/>
    </contour>
    <contour>
      <point x="234.58620689655172" y="226.29885057471262" type="curve"/>
      <point x="182.72413793103448" y="253.90804597701148"/>
      <point x="126.26436781609196" y="294.74712643678157"/>
      <point x="126.26436781609196" y="340.02298850574715" type="curve" smooth="yes"/>
      <point x="126.26436781609196" y="405.3103448275862"/>
      <point x="180.51724137931035" y="435.13793103448273"/>
      <point x="242.5977011494253" y="437.3333333333333" type="curve"/>
      <point x="296.42528735632186" y="434.3333333333333"/>
      <point x="359.71264367816093" y="407.3103448275862"/>
      <point x="359.71264367816093" y="334.82758620689657" type="curve" smooth="yes"/>
      <point x="359.71264367816093" y="258.3103448275862"/>
      <point x="286.4367816091954" y="237.9080459770115"/>
    </contour>
  </outline>
</glyph>
<glyph name="l" format="2">
  <advance width="255.51578947368424"/>
  <unicode hex="006C"/>
  <anchor x="127.75789473684212" y="0.0" name="bottom"/>
  <anchor x="129.1263157894737" y="409.0" name="center"/>
  <anchor x="127.75789473684212" y="725.7368421052631" name="top"/>
  <anchor x="216.44210526315788" y="496.18947368421055" name="topright"/>
  <outline>
    <contour>
      <point x="80.10526315789473" y="0.0" type="curve"/>
      <point x="176.13684210526318" y="0.0" type="line"/>
      <point x="173.76842105263162" y="73.63157894736841"/>
      <point x="171.67368421052635" y="136.98947368421054"/>
      <point x="169.03157894736844" y="218.81052631578947" type="curve"/>
      <point x="169.03157894736844" y="493.7263157894737" type="line"/>
      <point x="172.22105263157897" y="581.7368421052631"/>
      <point x="175.13684210526318" y="662.6526315789474"/>
      <point x="177.77894736842106" y="743.2842105263157" type="curve"/>
      <point x="72.54736842105262" y="729.8210526315789" type="line"/>
      <point x="77.5578947368421" y="654.8105263157895"/>
      <point x="82.29473684210527" y="577.0842105263158"/>
      <point x="86.48421052631579" y="493.7263157894737" type="curve"/>
      <point x="86.48421052631579" y="218.81052631578947" type="line"/>
      <point x="83.84210526315789" y="136.98947368421054"/>
      <point x="82.47368421052632" y="73.63157894736841"/>
    </contour>
  </outline>
</glyph>
<glyph name="m" format="2">
  <advance width="880.8315789473684"/>
  <unicode hex="006D"/>
  <anchor x="450.17894736842106" y="0.0" name="bottom"/>
  <anchor x="450.17894736842106" y="496.18947368421055" name="top"/>
  <outline>
    <contour>
      <point x="85.5578947368421" y="0.0" type="curve"/>
      <point x="181.58947368421053" y="0.0" type="line"/>
      <point x="179.22105263157897" y="73.3578947368421"/>
      <point x="176.8526315789474" y="136.98947368421054"/>
      <point x="174.48421052631582" y="215.25263157894736" type="curve"/>
      <point x="174.48421052631582" y="334.5789473684211" type="line"/>
      <point x="227.1578947368421" y="388.7052631578947"/>
      <point x="284.56842105263155" y="429.85263157894735"/>
      <point x="316.7157894736842" y="429.85263157894735" type="curve" smooth="yes"/>
      <point x="386.37894736842105" y="429.85263157894735"/>
      <point x="408.9052631578947" y="386.69473684210527"/>
      <point x="408.9052631578947" y="301.9157894736842" type="curve"/>
      <point x="408.9052631578947" y="215.25263157894736" type="line"/>
      <point x="406.81052631578945" y="136.98947368421054"/>
      <point x="405.4421052631579" y="73.3578947368421"/>
      <point x="403.3473684210526" y="0.0" type="curve"/>
      <point x="498.8315789473684" y="0.0" type="line"/>
      <point x="496.46315789473687" y="73.3578947368421"/>
      <point x="494.09473684210525" y="136.98947368421054"/>
      <point x="491.4526315789474" y="218.81052631578947" type="curve"/>
      <point x="491.4526315789474" y="248.3684210526316"/>
      <point x="493.5473684210527" y="286.8315789473684"/>
      <point x="493.5473684210527" y="330.10526315789474" type="curve" smooth="yes"/>
      <point x="493.5473684210527" y="351.0210526315789"/>
      <point x="492.00000000000006" y="369.93684210526317"/>
      <point x="488.4526315789474" y="387.7578947368421" type="curve"/>
      <point x="482.79999999999995" y="390.66315789473686" type="line"/>
      <point x="468.88421052631577" y="468.0210526315789"/>
      <point x="424.06315789473683" y="507.8315789473684"/>
      <point x="345.81052631578945" y="507.8315789473684" type="curve" smooth="yes"/>
      <point x="292.9263157894736" y="507.8315789473684"/>
      <point x="221.7578947368421" y="450.41052631578947"/>
      <point x="175.83157894736843" y="410.4947368421053" type="curve"/>
      <point x="166.82105263157897" y="410.4947368421053" type="line"/>
      <point x="159.72631578947372" y="501.10526315789474" type="line"/>
      <point x="77.46315789473684" y="496.18947368421055" type="line"/>
      <point x="82.65263157894735" y="436.43157894736845"/>
      <point x="88.02105263157894" y="376.86315789473684"/>
      <point x="91.93684210526315" y="320.378947368421" type="curve"/>
      <point x="91.93684210526315" y="218.81052631578947" type="line"/>
      <point x="89.29473684210525" y="136.98947368421054"/>
      <point x="87.92631578947368" y="73.63157894736841"/>
    </contour>
    <contour>
      <point x="716.6842105263158" y="0.0" type="curve"/>
      <point x="812.1684210526316" y="0.0" type="line"/>
      <point x="809.8" y="73.3578947368421"/>
      <point x="807.4315789473684" y="136.98947368421054"/>
      <point x="804.7894736842105" y="218.81052631578947" type="curve"/>
      <point x="804.7894736842105" y="248.3684210526316"/>
      <point x="806.8842105263158" y="286.8315789473684"/>
      <point x="806.8842105263158" y="330.10526315789474" type="curve" smooth="yes"/>
      <point x="806.8842105263158" y="445.74736842105267"/>
      <point x="759.6842105263157" y="507.8315789473684"/>
      <point x="659.1473684210526" y="507.8315789473684" type="curve" smooth="yes"/>
      <point x="605.9894736842105" y="507.8315789473684"/>
      <point x="534.2736842105263" y="451.58947368421053"/>
      <point x="485.89473684210526" y="407.4947368421053" type="curve"/>
      <point x="476.33684210526314" y="407.4947368421053" type="line"/>
      <point x="487.5473684210526" y="334.5789473684211" type="line"/>
      <point x="540.2210526315789" y="388.70526315789476"/>
      <point x="597.9052631578949" y="429.85263157894735"/>
      <point x="630.0526315789474" y="429.85263157894735" type="curve" smooth="yes"/>
      <point x="699.7157894736841" y="429.85263157894735"/>
      <point x="722.2421052631579" y="386.69473684210527"/>
      <point x="722.2421052631579" y="301.9157894736842" type="curve"/>
      <point x="722.2421052631579" y="215.25263157894736" type="line"/>
      <point x="720.1473684210526" y="136.98947368421054"/>
      <point x="718.7789473684211" y="73.3578947368421"/>
    </contour>
  </outline>
</glyph>
<glyph name="n" format="2">
  <advance width="581.6631578947367"/>
  <unicode hex="006E"/>
  <anchor x="295.36842105263156" y="0.0" name="bottom"/>
  <anchor x="295.36842105263156" y="496.18947368421055" name="top"/>
  <outline>
    <contour>
      <point x="85.5578947368421" y="0.0" type="curve"/>
      <point x="181.58947368421053" y="0.0" type="line"/>
      <point x="179.22105263157897" y="73.3578947368421"/>
      <point x="176.8526315789474" y="136.98947368421054"/>
      <point x="174.48421052631582" y="215.25263157894736" type="curve"/>
      <point x="174.48421052631582" y="334.5789473684211" type="line"/>
      <point x="227.1578947368421" y="388.70526315789476"/>
      <point x="292.378947368421" y="429.85263157894735"/>
      <point x="324.978947368421" y="429.85263157894735" type="curve" smooth="yes"/>
      <point x="399.09473684210525" y="429.85263157894735"/>
      <point x="423.0736842105263" y="386.69473684210527"/>
      <point x="423.0736842105263" y="301.9157894736842" type="curve"/>
      <point x="423.0736842105263" y="215.25263157894736" type="line"/>
      <point x="420.9789473684211" y="136.98947368421054"/>
      <point x="419.6105263157895" y="73.3578947368421"/>
      <point x="417.5157894736842" y="0.0" type="curve"/>
      <point x="513.0" y="0.0" type="line"/>
      <point x="510.63157894736844" y="73.3578947368421"/>
      <point x="508.2631578947368" y="136.98947368421054"/>
      <point x="505.62105263157895" y="218.81052631578947" type="curve"/>
      <point x="505.62105263157895" y="248.3684210526316"/>
      <point x="507.71578947368425" y="286.8315789473684"/>
      <point x="507.71578947368425" y="330.10526315789474" type="curve" smooth="yes"/>
      <point x="507.71578947368425" y="445.7473684210526"/>
      <point x="460.5157894736842" y="507.8315789473684"/>
      <point x="353.62105263157895" y="507.8315789473684" type="curve" smooth="yes"/>
      <point x="300.1894736842105" y="507.8315789473684"/>
      <point x="221.7578947368421" y="450.41052631578947"/>
      <point x="175.83157894736843" y="410.4947368421053" type="curve"/>
      <point x="166.82105263157897" y="410.4947368421053" type="line"/>
      <point x="159.72631578947372" y="501.10526315789474" type="line"/>
      <point x="77.46315789473684" y="496.18947368421055" type="line"/>
      <point x="82.65263157894735" y="436.43157894736845"/>
      <point x="88.02105263157894" y="376.86315789473684"/>
      <point x="91.93684210526315" y="320.378947368421" type="curve"/>
      <point x="91.93684210526315" y="218.81052631578947" type="line"/>
      <point x="89.29473684210525" y="136.98947368421054"/>
      <point x="87.92631578947368" y="73.63157894736841"/>
    </contour>
  </outline>
</glyph>
<glyph name="o" format="2">
  <advance width="597.2736842105263"/>
  <unicode hex="006F"/>
  <anchor x="298.2736842105263" y="0.0" name="bottom"/>
  <anchor x="298.2736842105263" y="248.09473684210528" name="center"/>
  <anchor x="374.4947368421053" y="0.0" name="ogonek"/>
  <anchor x="298.2736842105263" y="496.18947368421055" name="top"/>
  <anchor x="532.5263157894736" y="496.18947368421055" name="topright"/>
  <outline>
    <contour>
      <point x="300.5473684210526" y="-10.91578947368421" type="curve" smooth="yes"/>
      <point x="452.3157894736842" y="-10.91578947368421"/>
      <point x="547.3157894736842" y="103.53684210526316"/>
      <point x="547.3157894736842" y="251.0" type="curve" smooth="yes"/>
      <point x="547.3157894736842" y="396.36842105263156"/>
      <point x="457.41052631578947" y="507.8315789473684"/>
      <point x="299.17894736842106" y="507.8315789473684" type="curve" smooth="yes"/>
      <point x="145.22105263157894" y="507.8315789473684"/>
      <point x="49.95789473684211" y="399.5473684210526"/>
      <point x="49.95789473684211" y="251.0" type="curve" smooth="yes"/>
      <point x="49.95789473684211" y="112.45263157894736"/>
      <point x="136.31578947368422" y="-10.91578947368421"/>
    </contour>
    <contour>
      <point x="300.2736842105263" y="60.76842105263158" type="curve"/>
      <point x="187.83157894736843" y="64.0421052631579"/>
      <point x="134.32631578947368" y="152.33684210526317"/>
      <point x="134.32631578947368" y="251.0" type="curve" smooth="yes"/>
      <point x="134.32631578947368" y="354.5684210526316"/>
      <point x="190.18947368421055" y="432.6"/>
      <point x="300.2736842105263" y="436.14736842105265" type="curve"/>
      <point x="403.82105263157894" y="431.7789473684211"/>
      <point x="462.9473684210526" y="360.37894736842105"/>
      <point x="462.9473684210526" y="251.0" type="curve" smooth="yes"/>
      <point x="462.9473684210526" y="151.5157894736842"/>
      <point x="411.71578947368425" y="64.0421052631579"/>
    </contour>
  </outline>
</glyph>
<glyph name="p" format="2">
  <advance width="597.6421052631579"/>
  <unicode hex="0070"/>
  <outline>
    <contour>
      <point x="84.83157894736841" y="-195.09473684210528" type="curve"/>
      <point x="182.95789473684212" y="-192.0" type="line"/>
      <point x="180.0421052631579" y="-118.6421052631579"/>
      <point x="177.67368421052635" y="-55.01052631578948"/>
      <point x="174.48421052631582" y="23.25263157894737" type="curve"/>
      <point x="174.48421052631582" y="62.242105263157896" type="line"/>
      <point x="181.85263157894738" y="62.242105263157896" type="line"/>
      <point x="232.67368421052632" y="20.51578947368421"/>
      <point x="292.36842105263156" y="-10.91578947368421"/>
      <point x="335.1684210526316" y="-10.91578947368421" type="curve" smooth="yes"/>
      <point x="477.06315789473683" y="-10.91578947368421"/>
      <point x="547.1368421052631" y="110.54736842105264"/>
      <point x="547.1368421052631" y="249.54736842105262" type="curve" smooth="yes"/>
      <point x="547.1368421052631" y="397.09473684210525"/>
      <point x="469.4315789473684" y="507.8315789473684"/>
      <point x="333.4421052631579" y="507.8315789473684" type="curve" smooth="yes"/>
      <point x="282.20000000000005" y="507.8315789473684"/>
      <point x="223.29473684210524" y="469.8421052631579"/>
      <point x="176.29473684210527" y="432.378947368421" type="curve"/>
      <point x="167.55789473684212" y="432.378947368421" type="line"/>
      <point x="161.91578947368419" y="501.10526315789474" type="line"/>
      <point x="77.46315789473684" y="496.18947368421055" type="line"/>
      <point x="82.65263157894735" y="436.43157894736845"/>
      <point x="88.02105263157894" y="376.86315789473684"/>
      <point x="91.93684210526315" y="320.378947368421" type="curve"/>
      <point x="91.93684210526315" y="26.810526315789474" type="line"/>
      <point x="89.29473684210525" y="-55.01052631578948"/>
      <point x="87.19999999999999" y="-121.73684210526316"/>
    </contour>
    <contour>
      <point x="310.2631578947368" y="62.95789473684211" type="curve"/>
      <point x="267.0315789473684" y="65.23157894736842"/>
      <point x="212.53684210526316" y="99.92631578947369"/>
      <point x="174.48421052631582" y="138.16842105263157" type="curve"/>
      <point x="174.48421052631582" y="364.29473684210524" type="line"/>
      <point x="219.79999999999998" y="407.88421052631577"/>
      <point x="274.0210526315789" y="431.58947368421053"/>
      <point x="308.81052631578945" y="433.13684210526316" type="curve"/>
      <point x="412.1684210526316" y="430.13684210526316"/>
      <point x="462.4947368421052" y="350.10526315789474"/>
      <point x="462.4947368421052" y="249.0" type="curve" smooth="yes"/>
      <point x="462.4947368421052" y="152.34736842105264"/>
      <point x="416.0736842105263" y="65.9578947368421"/>
    </contour>
  </outline>
</glyph>
<glyph name="q" format="2">
  <advance width="587.0947368421052"/>
  <unicode hex="0071"/>
  <outline>
    <contour>
      <point x="416.05263157894734" y="-195.09473684210528" type="curve"/>
      <point x="512.8105263157895" y="-192.0" type="line"/>
      <point x="510.4421052631579" y="-118.36842105263159"/>
      <point x="508.34736842105264" y="-55.01052631578948"/>
      <point x="505.70526315789476" y="26.810526315789474" type="curve"/>
      <point x="505.70526315789476" y="320.378947368421" type="line"/>
      <point x="509.34736842105264" y="378.41052631578947"/>
      <point x="514.1684210526315" y="439.79999999999995"/>
      <point x="518.8105263157894" y="501.10526315789474" type="curve"/>
      <point x="435.7263157894737" y="496.18947368421055" type="line"/>
      <point x="430.0842105263158" y="432.378947368421" type="line"/>
      <point x="421.34736842105264" y="432.378947368421" type="line"/>
      <point x="374.34736842105264" y="469.8421052631579"/>
      <point x="315.4421052631579" y="507.8315789473684"/>
      <point x="264.2" y="507.8315789473684" type="curve" smooth="yes"/>
      <point x="128.21052631578948" y="507.8315789473684"/>
      <point x="50.50526315789474" y="397.09473684210525"/>
      <point x="50.50526315789474" y="249.54736842105262" type="curve" smooth="yes"/>
      <point x="50.50526315789474" y="110.54736842105264"/>
      <point x="120.57894736842105" y="-10.91578947368421"/>
      <point x="262.4736842105263" y="-10.91578947368421" type="curve" smooth="yes"/>
      <point x="305.2736842105263" y="-10.91578947368421"/>
      <point x="364.9684210526316" y="20.51578947368421"/>
      <point x="415.7894736842105" y="62.242105263157896" type="curve"/>
      <point x="423.1578947368421" y="62.242105263157896" type="line"/>
      <point x="423.1578947368421" y="23.25263157894737" type="line"/>
      <point x="420.7894736842105" y="-55.01052631578948"/>
      <point x="418.42105263157896" y="-121.73684210526316"/>
    </contour>
    <contour>
      <point x="287.37894736842105" y="62.95789473684211" type="curve"/>
      <point x="181.56842105263158" y="65.9578947368421"/>
      <point x="135.14736842105265" y="152.34736842105264"/>
      <point x="135.14736842105265" y="249.0" type="curve" smooth="yes"/>
      <point x="135.14736842105265" y="350.10526315789474"/>
      <point x="185.47368421052633" y="430.13684210526316"/>
      <point x="288.8315789473684" y="433.13684210526316" type="curve"/>
      <point x="323.621052631579" y="431.58947368421053"/>
      <point x="377.8421052631579" y="407.88421052631577"/>
      <point x="423.1578947368421" y="364.29473684210524" type="curve"/>
      <point x="423.1578947368421" y="138.16842105263157" type="line"/>
      <point x="385.10526315789474" y="99.92631578947369"/>
      <point x="330.61052631578946" y="65.23157894736842"/>
    </contour>
  </outline>
</glyph>
<glyph name="r" format="2">
  <advance width="406.04210526315785"/>
  <unicode hex="0072"/>
  <anchor x="127.11578947368422" y="0.0" name="bottom"/>
  <anchor x="233.3684210526316" y="496.18947368421055" name="top"/>
  <outline>
    <contour>
      <point x="85.5578947368421" y="0.0" type="curve"/>
      <point x="181.58947368421053" y="0.0" type="line"/>
      <point x="179.22105263157897" y="73.3578947368421"/>
      <point x="176.8526315789474" y="136.98947368421054"/>
      <point x="174.48421052631582" y="215.25263157894736" type="curve"/>
      <point x="174.48421052631582" y="318.5684210526316" type="line"/>
      <point x="244.6" y="397.4842105263158"/>
      <point x="285.5052631578948" y="423.5578947368421"/>
      <point x="313.3894736842105" y="423.5578947368421" type="curve" smooth="yes"/>
      <point x="320.11578947368423" y="423.5578947368421"/>
      <point x="344.7578947368421" y="417.28421052631575"/>
      <point x="374.13684210526316" y="410.1894736842105" type="curve"/>
      <point x="381.5157894736842" y="500.0105263157895" type="line"/>
      <point x="363.7894736842105" y="503.8315789473684"/>
      <point x="335.9789473684211" y="507.8315789473684"/>
      <point x="324.978947368421" y="507.8315789473684" type="curve" smooth="yes"/>
      <point x="290.53684210526313" y="507.8315789473684"/>
      <point x="243.82105263157897" y="479.3894736842105"/>
      <point x="173.6526315789474" y="401.0526315789474" type="curve"/>
      <point x="165.3684210526316" y="401.0526315789474" type="line"/>
      <point x="159.00000000000003" y="501.10526315789474" type="line"/>
      <point x="77.46315789473684" y="496.18947368421055" type="line"/>
      <point x="82.65263157894735" y="436.43157894736845"/>
      <point x="88.02105263157894" y="376.86315789473684"/>
      <point x="91.93684210526315" y="320.378947368421" type="curve"/>
      <point x="91.93684210526315" y="218.81052631578947" type="line"/>
      <point x="89.29473684210525" y="136.98947368421054"/>
      <point x="87.92631578947368" y="73.63157894736841"/>
    </contour>
  </outline>
</glyph>
<glyph name="s" format="2">
  <advance width="454.9655172413793"/>
  <unicode hex="0073"/>
  <anchor x="227.97701149425288" y="0.0" name="bottom"/>
  <anchor x="227.97701149425288" y="496.39080459770116" name="top"/>
  <outline>
    <contour>
      <point x="228.40229885057474" y="-10.793103448275861" type="curve" smooth="yes"/>
      <point x="355.9425287356322" y="-10.793103448275861"/>
      <point x="409.91954022988506" y="54.206896551724135"/>
      <point x="409.91954022988506" y="140.75862068965517" type="curve" smooth="yes"/>
      <point x="409.91954022988506" y="230.7471264367816"/>
      <point x="350.6896551724138" y="254.3448275862069"/>
      <point x="252.11494252873564" y="282.9425287356322" type="curve" smooth="yes"/>
      <point x="168.68965517241378" y="306.95402298850576"/>
      <point x="144.64367816091954" y="324.7701149425287"/>
      <point x="144.64367816091954" y="365.632183908046" type="curve" smooth="yes"/>
      <point x="144.64367816091954" y="422.13793103448273"/>
      <point x="196.51724137931035" y="434.13793103448273"/>
      <point x="235.54022988505747" y="436.13793103448273" type="curve"/>
      <point x="250.34482758620686" y="436.13793103448273"/>
      <point x="313.735632183908" y="417.1379310344828"/>
      <point x="373.1264367816092" y="394.5402298850575" type="curve"/>
      <point x="379.51724137931035" y="473.57471264367814" type="line"/>
      <point x="335.7471264367816" y="485.5747126436782"/>
      <point x="256.367816091954" y="507.58620689655174"/>
      <point x="222.39080459770113" y="507.58620689655174" type="curve" smooth="yes"/>
      <point x="123.62068965517241" y="507.58620689655174"/>
      <point x="59.85057471264368" y="452.1954022988506"/>
      <point x="59.85057471264368" y="362.44827586206895" type="curve" smooth="yes"/>
      <point x="59.85057471264368" y="275.0689655172414"/>
      <point x="118.08045977011494" y="244.08045977011494"/>
      <point x="196.85057471264366" y="222.08045977011494" type="curve" smooth="yes"/>
      <point x="293.5057471264368" y="194.6551724137931"/>
      <point x="325.7241379310345" y="180.4367816091954"/>
      <point x="325.7241379310345" y="138.3793103448276" type="curve" smooth="yes"/>
      <point x="325.7241379310345" y="74.6896551724138"/>
      <point x="278.67816091954023" y="62.6551724137931"/>
      <point x="223.6206896551724" y="60.6551724137931" type="curve"/>
      <point x="193.5977011494253" y="60.6551724137931"/>
      <point x="131.02298850574712" y="80.85057471264369"/>
      <point x="63.03448275862068" y="105.44827586206898" type="curve"/>
      <point x="56.241379310344826" y="24.620689655172413" type="line"/>
      <point x="118.82758620689656" y="7.011494252873563"/>
      <point x="191.80459770114945" y="-10.793103448275861"/>
    </contour>
  </outline>
</glyph>
<glyph name="u" format="2">
  <advance width="561.5894736842105"/>
  <unicode hex="0075"/>
  <anchor x="279.65263157894736" y="0.0" name="bottom"/>
  <anchor x="489.64210526315793" y="0.0" name="ogonek"/>
  <anchor x="279.65263157894736" y="496.18947368421055" name="top"/>
  <anchor x="533.6" y="496.18947368421055" name="topright"/>
  <outline>
    <contour>
      <point x="226.12631578947367" y="-10.91578947368421" type="curve" smooth="yes"/>
      <point x="279.4842105263158" y="-10.91578947368421"/>
      <point x="357.36842105263156" y="46.77894736842105"/>
      <point x="398.91578947368424" y="89.15789473684211" type="curve"/>
      <point x="407.9263157894737" y="89.15789473684211" type="line"/>
      <point x="412.8421052631579" y="0.0" type="line"/>
      <point x="491.2842105263158" y="0.0" type="line"/>
      <point x="488.91578947368424" y="73.63157894736841"/>
      <point x="486.82105263157894" y="136.98947368421054"/>
      <point x="484.17894736842106" y="218.81052631578947" type="curve"/>
      <point x="484.17894736842106" y="271.5473684210526" type="line"/>
      <point x="487.09473684210525" y="358.4736842105263"/>
      <point x="489.46315789473687" y="422.10526315789474"/>
      <point x="491.8315789473684" y="496.18947368421055" type="curve"/>
      <point x="395.0736842105263" y="496.18947368421055" type="line"/>
      <point x="397.44210526315794" y="422.8315789473684"/>
      <point x="399.5368421052632" y="358.4736842105263"/>
      <point x="401.63157894736844" y="279.7578947368421" type="curve"/>
      <point x="401.63157894736844" y="160.96842105263158" type="line"/>
      <point x="349.2315789473684" y="106.8421052631579"/>
      <point x="284.8315789473684" y="65.69473684210527"/>
      <point x="254.76842105263157" y="65.69473684210527" type="curve" smooth="yes"/>
      <point x="180.65263157894736" y="65.69473684210527"/>
      <point x="156.67368421052632" y="108.85263157894738"/>
      <point x="156.67368421052632" y="193.6315789473684" type="curve"/>
      <point x="156.67368421052632" y="279.7578947368421" type="line"/>
      <point x="158.7684210526316" y="359.2"/>
      <point x="160.86315789473684" y="425.2"/>
      <point x="162.95789473684212" y="499.2842105263158" type="curve"/>
      <point x="66.47368421052632" y="496.18947368421055" type="line"/>
      <point x="69.1157894736842" y="422.8315789473684"/>
      <point x="71.21052631578948" y="358.4736842105263"/>
      <point x="74.1263157894737" y="271.5473684210526" type="curve"/>
      <point x="74.1263157894737" y="239.81052631578947"/>
      <point x="72.57894736842105" y="210.0842105263158"/>
      <point x="72.57894736842105" y="166.81052631578947" type="curve" smooth="yes"/>
      <point x="72.57894736842105" y="51.16842105263158"/>
      <point x="119.23157894736842" y="-10.91578947368421"/>
    </contour>
  </outline>
</glyph>
<glyph name="v" format="2">
  <advance width="519.8105263157895"/>
  <unicode hex="0076"/>
  <outline>
    <contour>
      <point x="208.57894736842104" y="0.0" type="curve"/>
      <point x="310.0526315789474" y="0.0" type="line"/>
      <point x="332.41052631578947" y="62.27368421052632"/>
      <point x="353.76842105263154" y="123.54736842105264"/>
      <point x="375.4" y="186.09473684210528" type="curve"/>
      <point x="408.30526315789473" y="274.6421052631579" type="line"/>
      <point x="438.0315789473684" y="347.9157894736842"/>
      <point x="467.0315789473684" y="421.4631578947368"/>
      <point x="497.2105263157895" y="496.18947368421055" type="curve"/>
      <point x="398.82105263157894" y="496.18947368421055" type="line"/>
      <point x="372.0315789473684" y="415.2315789473684"/>
      <point x="345.9684210526316" y="334.0842105263158"/>
      <point x="318.4526315789474" y="249.7578947368421" type="curve"/>
      <point x="264.2315789473684" y="90.55789473684212" type="line"/>
      <point x="255.49473684210525" y="90.55789473684212" type="line"/>
      <point x="201.2736842105263" y="249.7578947368421" type="line"/>
      <point x="173.7578947368421" y="334.0842105263158"/>
      <point x="148.14736842105265" y="414.5052631578947"/>
      <point x="120.90526315789474" y="499.2842105263158" type="curve"/>
      <point x="22.6" y="496.18947368421055" type="line"/>
      <point x="51.599999999999994" y="423.6421052631579"/>
      <point x="80.60000000000001" y="348.6421052631579"/>
      <point x="109.60000000000001" y="276.09473684210525" type="curve"/>
      <point x="142.50526315789472" y="187.82105263157894" type="line"/>
      <point x="164.13684210526316" y="126.72631578947369"/>
      <point x="186.22105263157894" y="62.54736842105264"/>
    </contour>
  </outline>
</glyph>
<glyph name="w" format="2">
  <advance width="806.8947368421053"/>
  <unicode hex="0077"/>
  <anchor x="404.12631578947367" y="0.0" name="bottom"/>
  <anchor x="404.12631578947367" y="496.18947368421055" name="top"/>
  <outline>
    <contour>
      <point x="186.85263157894738" y="0.0" type="curve"/>
      <point x="287.5052631578947" y="0.0" type="line"/>
      <point x="309.38947368421054" y="77.58947368421053"/>
      <point x="333.0" y="162.0842105263158"/>
      <point x="353.4315789473684" y="235.0421052631579" type="curve"/>
      <point x="396.66315789473686" y="381.13684210526316" type="line"/>
      <point x="404.85263157894735" y="381.13684210526316" type="line"/>
      <point x="448.3578947368421" y="236.76842105263157" type="line"/>
      <point x="470.06315789473683" y="162.3578947368421"/>
      <point x="495.40000000000003" y="76.86315789473684"/>
      <point x="517.8315789473685" y="0.0" type="curve"/>
      <point x="622.2210526315789" y="0.0" type="line"/>
      <point x="640.8526315789474" y="61.0"/>
      <point x="659.7578947368421" y="124.82105263157895"/>
      <point x="679.3894736842105" y="189.82105263157894" type="curve"/>
      <point x="707.8421052631579" y="277.09473684210525" type="line"/>
      <point x="733.1157894736842" y="349.6421052631579"/>
      <point x="759.1157894736842" y="422.6421052631579"/>
      <point x="785.3894736842105" y="496.18947368421055" type="curve"/>
      <point x="686.0842105263158" y="496.18947368421055" type="line"/>
      <point x="665.6526315789474" y="422.22105263157897"/>
      <point x="640.8631578947369" y="330.4421052631579"/>
      <point x="617.978947368421" y="248.56842105263158" type="curve"/>
      <point x="571.2947368421053" y="88.27368421052631" type="line"/>
      <point x="563.5578947368421" y="88.27368421052631" type="line"/>
      <point x="516.8736842105263" y="247.29473684210527" type="line"/>
      <point x="493.7157894736842" y="330.89473684210526"/>
      <point x="469.8315789473684" y="416.0421052631579"/>
      <point x="447.4" y="496.18947368421055" type="curve"/>
      <point x="360.41052631578947" y="496.18947368421055" type="line"/>
      <point x="337.2526315789474" y="411.86315789473684"/>
      <point x="314.09473684210525" y="328.2631578947368"/>
      <point x="291.66315789473686" y="245.8421052631579" type="curve"/>
      <point x="246.43157894736842" y="88.27368421052631" type="line"/>
      <point x="238.69473684210527" y="88.27368421052631" type="line"/>
      <point x="192.46315789473684" y="242.21052631578948" type="line"/>
      <point x="169.30526315789473" y="324.3578947368421"/>
      <point x="143.2421052631579" y="417.13684210526316"/>
      <point x="120.08421052631579" y="499.2842105263158" type="curve"/>
      <point x="21.50526315789474" y="496.18947368421055" type="line"/>
      <point x="47.77894736842104" y="421.9157894736842"/>
      <point x="73.05263157894737" y="350.6421052631579"/>
      <point x="99.32631578947368" y="277.09473684210525" type="curve"/>
      <point x="128.2315789473684" y="188.82105263157894" type="line"/>
      <point x="147.86315789473684" y="125.27368421052631"/>
      <point x="167.22105263157894" y="62.27368421052632"/>
    </contour>
  </outline>
</glyph>
<glyph name="x" format="2">
  <advance width="538.1894736842105"/>
  <unicode hex="0078"/>
  <outline>
    <contour>
      <point x="25.42105263157895" y="0.0" type="curve"/>
      <point x="129.90526315789475" y="0.0" type="line"/>
      <point x="157.14736842105265" y="44.62105263157895"/>
      <point x="176.85263157894735" y="76.78947368421052"/>
      <point x="204.09473684210528" y="121.13684210526316" type="curve"/>
      <point x="258.76842105263154" y="205.10526315789474" type="line"/>
      <point x="265.9578947368421" y="205.10526315789474" type="line"/>
      <point x="326.53684210526313" y="117.13684210526316" type="line"/>
      <point x="354.7789473684211" y="75.06315789473685"/>
      <point x="376.93684210526317" y="40.89473684210527"/>
      <point x="403.7263157894737" y="0.0" type="curve"/>
      <point x="514.1368421052631" y="0.0" type="line"/>
      <point x="464.05263157894734" y="64.36842105263159"/>
      <point x="433.14736842105265" y="104.46315789473684"/>
      <point x="396.5157894736842" y="151.55789473684212" type="curve"/>
      <point x="312.4421052631579" y="266.5684210526316" type="line"/>
      <point x="316.4526315789474" y="244.6315789473684" type="line"/>
      <point x="391.34736842105264" y="351.0" type="line"/>
      <point x="427.7052631578947" y="400.82105263157894"/>
      <point x="450.88421052631577" y="431.36842105263156"/>
      <point x="498.69473684210527" y="496.18947368421055" type="curve"/>
      <point x="393.2105263157895" y="496.18947368421055" type="line"/>
      <point x="365.69473684210527" y="451.29473684210524"/>
      <point x="345.7157894736842" y="418.57894736842104"/>
      <point x="320.10526315789474" y="376.86315789473684" type="curve"/>
      <point x="267.7894736842105" y="297.0736842105263" type="line"/>
      <point x="260.77894736842103" y="297.0736842105263" type="line"/>
      <point x="207.9157894736842" y="376.6842105263158" type="line"/>
      <point x="182.30526315789473" y="417.85263157894735"/>
      <point x="161.05263157894737" y="452.2105263157895"/>
      <point x="131.53684210526316" y="499.2842105263158" type="curve"/>
      <point x="26.957894736842103" y="496.18947368421055" type="line"/>
      <point x="73.22105263157894" y="433.9157894736842"/>
      <point x="100.12631578947368" y="397.09473684210525"/>
      <point x="136.93684210526317" y="347.82105263157894" type="curve"/>
      <point x="210.46315789473684" y="241.7263157894737" type="line"/>
      <point x="209.73684210526315" y="265.11578947368423" type="line"/>
      <point x="134.57894736842104" y="153.10526315789474" type="line"/>
      <point x="98.76842105263158" y="102.73684210526316"/>
      <point x="72.6842105263158" y="66.18947368421053"/>
    </contour>
  </outline>
</glyph>
<glyph name="y" format="2">
  <advance width="522.7157894736843"/>
  <unicode hex="0079"/>
  <anchor x="389.41052631578947" y="0.0" name="bottom"/>
  <anchor x="262.0421052631579" y="496.18947368421055" name="top"/>
  <outline>
    <contour>
      <point x="128.65263157894736" y="-195.09473684210528" type="curve"/>
      <point x="228.68421052631578" y="-192.0" type="line"/>
      <point x="256.3157894736842" y="-120.0"/>
      <point x="287.2210526315789" y="-38.178947368421056"/>
      <point x="335.30526315789473" y="89.09473684210526" type="curve"/>
      <point x="390.4842105263158" y="228.6421052631579" type="line"/>
      <point x="441.93684210526317" y="353.9157894736842"/>
      <point x="466.66315789473686" y="415.18947368421055"/>
      <point x="500.11578947368423" y="496.18947368421055" type="curve"/>
      <point x="402.2736842105263" y="496.18947368421055" type="line"/>
      <point x="374.7578947368421" y="412.58947368421053"/>
      <point x="347.9684210526316" y="332.7157894736842"/>
      <point x="319.4526315789474" y="248.38947368421054" type="curve"/>
      <point x="261.77894736842103" y="88.36842105263159" type="line"/>
      <point x="253.0421052631579" y="88.36842105263159" type="line"/>
      <point x="200.2736842105263" y="247.93684210526317" type="line"/>
      <point x="173.4842105263158" y="333.53684210526313"/>
      <point x="147.42105263157896" y="413.6842105263158"/>
      <point x="120.63157894736842" y="499.2842105263158" type="curve"/>
      <point x="22.6" y="496.18947368421055" type="line"/>
      <point x="50.32631578947368" y="425.1894736842105"/>
      <point x="80.32631578947368" y="349.1894736842105"/>
      <point x="108.32631578947368" y="277.6421052631579" type="curve"/>
      <point x="141.23157894736843" y="187.6421052631579" type="line"/>
      <point x="164.5894736842105" y="121.64210526315789"/>
      <point x="189.94736842105263" y="50.6421052631579"/>
      <point x="212.85263157894738" y="-17.905263157894737" type="curve"/>
      <point x="217.0421052631579" y="2.8421052631578956" type="line"/>
      <point x="187.85263157894735" y="-61.62105263157895"/>
      <point x="157.8421052631579" y="-129.90526315789472"/>
    </contour>
  </outline>
</glyph>
<glyph name="z" format="2">
  <advance width="496.77894736842103"/>
  <unicode hex="007A"/>
  <anchor x="246.66315789473686" y="0.0" name="bottom"/>
  <anchor x="246.66315789473686" y="248.09473684210528" name="center"/>
  <anchor x="246.66315789473686" y="496.18947368421055" name="top"/>
  <outline>
    <contour>
      <point x="38.526315789473685" y="0.0" type="line"/>
      <point x="461.1578947368421" y="0.0" type="line"/>
      <point x="461.1578947368421" y="73.14736842105265" type="line"/>
      <point x="392.90526315789475" y="69.95789473684212"/>
      <point x="303.0315789473684" y="66.49473684210527"/>
      <point x="248.77894736842106" y="64.1263157894737" type="curve"/>
      <point x="128.09473684210528" y="64.1263157894737" type="line"/>
      <point x="137.74736842105264" y="44.72631578947369" type="line"/>
      <point x="295.30526315789473" y="250.89473684210526" type="line"/>
      <point x="344.8315789473684" y="312.58947368421053"/>
      <point x="405.2631578947368" y="388.09473684210525"/>
      <point x="445.2526315789474" y="438.07368421052627" type="curve"/>
      <point x="445.2526315789474" y="496.18947368421055" type="line"/>
      <point x="40.44210526315789" y="496.18947368421055" type="line"/>
      <point x="40.44210526315789" y="421.6736842105263" type="line"/>
      <point x="112.87368421052632" y="425.1368421052631"/>
      <point x="205.56842105263158" y="429.14736842105265"/>
      <point x="259.36842105263156" y="431.7894736842105" type="curve"/>
      <point x="368.9684210526316" y="431.7894736842105" type="line"/>
      <point x="356.4947368421053" y="459.9157894736842" type="line"/>
      <point x="196.92631578947368" y="250.3684210526316" type="line"/>
      <point x="149.57894736842107" y="191.30526315789476"/>
      <point x="95.3263157894737" y="123.15789473684211"/>
      <point x="38.526315789473685" y="51.73684210526316" type="curve"/>
    </contour>
  </outline>
</glyph>
<glyph name="braceleft" format="2">
  <advance width="404.2947368421053"/>
  <unicode hex="007B"/>
  <outline>
    <contour>
      <point x="301.42105263157896" y="-116.92631578947369" type="curve" smooth="yes"/>
      <point x="388.82105263157894" y="-116.92631578947369" type="line"/>
      <point x="388.82105263157894" y="-45.694736842105264" type="line"/>
      <point x="362.08421052631576" y="-46.24210526315789"/>
      <point x="328.5473684210526" y="-47.51578947368421"/>
      <point x="311.5473684210526" y="-47.78947368421053" type="curve"/>
      <point x="248.7684210526316" y="-45.96842105263158"/>
      <point x="218.33684210526317" y="-18.34736842105263"/>
      <point x="217.78947368421052" y="36.810526315789474" type="curve" smooth="yes"/>
      <point x="214.8736842105263" y="237.5263157894737" type="line" smooth="yes"/>
      <point x="214.6" y="247.9894736842105"/>
      <point x="166.58947368421053" y="298.4421052631579"/>
      <point x="138.56842105263158" y="320.4526315789474" type="curve"/>
      <point x="138.56842105263158" y="328.9157894736842" type="line"/>
      <point x="166.58947368421053" y="350.4736842105263"/>
      <point x="214.6" y="400.5578947368421"/>
      <point x="214.8736842105263" y="411.11578947368423" type="curve" smooth="yes"/>
      <point x="217.78947368421052" y="612.5578947368421" type="line" smooth="yes"/>
      <point x="218.33684210526317" y="667.7157894736843"/>
      <point x="248.7684210526316" y="695.3368421052631"/>
      <point x="311.5473684210526" y="697.1578947368421" type="curve"/>
      <point x="329.2736842105263" y="696.8842105263158"/>
      <point x="363.2631578947368" y="695.6105263157895"/>
      <point x="387.4526315789474" y="695.0631578947368" type="curve"/>
      <point x="387.4526315789474" y="766.2947368421053" type="line"/>
      <point x="301.42105263157896" y="766.2947368421053" type="line" smooth="yes"/>
      <point x="200.10526315789474" y="766.2947368421053"/>
      <point x="136.3473684210526" y="715.2736842105263"/>
      <point x="136.3473684210526" y="624.3263157894737" type="curve"/>
      <point x="136.3473684210526" y="615.6947368421053"/>
      <point x="138.7157894736842" y="463.93684210526317"/>
      <point x="138.7157894736842" y="455.30526315789473" type="curve"/>
      <point x="138.7157894736842" y="398.0421052631579"/>
      <point x="91.02105263157895" y="355.7894736842105"/>
      <point x="52.92631578947368" y="355.7894736842105" type="curve" smooth="yes"/>
      <point x="12.736842105263158" y="355.7894736842105" type="line"/>
      <point x="12.736842105263158" y="292.85263157894735" type="line"/>
      <point x="52.92631578947368" y="292.85263157894735" type="line" smooth="yes"/>
      <point x="91.02105263157895" y="292.85263157894735"/>
      <point x="138.7157894736842" y="250.6"/>
      <point x="138.7157894736842" y="193.33684210526314" type="curve"/>
      <point x="138.7157894736842" y="184.70526315789473"/>
      <point x="136.3473684210526" y="33.67368421052632"/>
      <point x="136.3473684210526" y="25.042105263157893" type="curve"/>
      <point x="136.3473684210526" y="-65.90526315789474"/>
      <point x="200.10526315789474" y="-116.92631578947369"/>
    </contour>
  </outline>
</glyph>
<glyph name="bar" format="2">
  <advance width="264.2315789473684"/>
  <unicode hex="007C"/>
  <outline>
    <contour>
      <point x="90.48421052631578" y="-156.73684210526315" type="curve"/>
      <point x="173.74736842105264" y="-156.73684210526315" type="line"/>
      <point x="171.6526315789474" y="-18.736842105263158"/>
      <point x="169.2842105263158" y="134.26315789473682"/>
      <point x="169.0105263157895" y="172.26315789473685" type="curve"/>
      <point x="169.0105263157895" y="454.2631578947368" type="line"/>
      <point x="169.2842105263158" y="492.2631578947369"/>
      <point x="171.6526315789474" y="645.2631578947369"/>
      <point x="173.74736842105264" y="783.2631578947369" type="curve"/>
      <point x="90.48421052631578" y="783.2631578947369" type="line"/>
      <point x="92.57894736842105" y="645.2631578947369"/>
      <point x="94.94736842105263" y="492.2631578947369"/>
      <point x="95.22105263157894" y="454.2631578947368" type="curve"/>
      <point x="95.22105263157894" y="172.26315789473685" type="line"/>
      <point x="94.94736842105263" y="134.26315789473682"/>
      <point x="92.57894736842105" y="-18.736842105263158"/>
    </contour>
  </outline>
</glyph>
<glyph name="sterling" format="2">
  <advance width="591.0421052631579"/>
  <unicode hex="00A3"/>
  <outline>
    <contour>
      <point x="64.05263157894737" y="0.0" type="line"/>
      <point x="557.4105263157895" y="0.0" type="line"/>
      <point x="557.4105263157895" y="84.45263157894738" type="line"/>
      <point x="479.6" y="82.0842105263158"/>
      <point x="356.5368421052632" y="79.16842105263159"/>
      <point x="268.3578947368421" y="76.52631578947368" type="curve"/>
      <point x="126.10526315789474" y="76.52631578947368" type="line"/>
      <point x="142.05263157894737" y="54.515789473684215" type="line"/>
      <point x="212.60000000000002" y="176.0315789473684"/>
      <point x="227.87368421052633" y="211.8421052631579"/>
      <point x="227.87368421052633" y="249.37894736842105" type="curve" smooth="yes"/>
      <point x="227.87368421052633" y="447.3263157894737" type="line" smooth="yes"/>
      <point x="227.87368421052633" y="567.7052631578947"/>
      <point x="278.7578947368421" y="620.8526315789474"/>
      <point x="379.42105263157896" y="622.6736842105263" type="curve"/>
      <point x="398.51578947368426" y="622.6736842105263"/>
      <point x="458.0421052631579" y="606.5894736842105"/>
      <point x="520.0421052631579" y="582.4947368421052" type="curve"/>
      <point x="529.421052631579" y="662.1052631578947" type="line"/>
      <point x="490.3263157894737" y="675.6526315789473"/>
      <point x="413.8" y="698.7368421052631"/>
      <point x="373.22105263157897" y="698.7368421052631" type="curve" smooth="yes"/>
      <point x="224.9578947368421" y="698.7368421052631"/>
      <point x="139.22105263157897" y="617.0736842105263"/>
      <point x="139.22105263157897" y="452.14736842105265" type="curve" smooth="yes"/>
      <point x="139.22105263157897" y="377.4421052631579"/>
      <point x="141.0421052631579" y="303.7368421052632"/>
      <point x="141.0421052631579" y="229.30526315789473" type="curve"/>
      <point x="141.0421052631579" y="201.76842105263157"/>
      <point x="127.58947368421053" y="164.32631578947368"/>
      <point x="64.05263157894737" y="52.45263157894737" type="curve"/>
    </contour>
    <contour>
      <point x="59.705263157894734" y="341.5473684210526" type="line"/>
      <point x="122.3578947368421" y="343.09473684210525"/>
      <point x="191.82105263157894" y="344.6421052631579"/>
      <point x="232.8421052631579" y="345.1894736842105" type="curve"/>
      <point x="266.6736842105263" y="345.1894736842105" type="line"/>
      <point x="307.6947368421052" y="344.6421052631579"/>
      <point x="377.1578947368421" y="343.09473684210525"/>
      <point x="439.8105263157895" y="341.5473684210526" type="curve"/>
      <point x="439.8105263157895" y="410.2210526315789" type="line"/>
      <point x="377.1578947368421" y="408.6736842105263"/>
      <point x="307.6947368421052" y="407.12631578947367"/>
      <point x="266.6736842105263" y="406.57894736842104" type="curve"/>
      <point x="232.8421052631579" y="406.57894736842104" type="line"/>
      <point x="191.82105263157894" y="407.12631578947367"/>
      <point x="122.3578947368421" y="408.6736842105263"/>
      <point x="59.705263157894734" y="410.2210526315789" type="curve"/>
    </contour>
  </outline>
</glyph>
<glyph name="currency" format="2">
  <advance width="622.9894736842106"/>
  <unicode hex="00A4"/>
  <outline>
    <contour>
      <point x="309.7684210526316" y="115.49473684210525" type="curve" smooth="yes"/>
      <point x="430.63157894736844" y="115.49473684210525"/>
      <point x="518.7473684210527" y="191.68421052631578"/>
      <point x="518.7473684210527" y="320.5473684210526" type="curve" smooth="yes"/>
      <point x="518.7473684210527" y="441.2105263157895"/>
      <point x="431.3578947368421" y="525.2315789473685"/>
      <point x="311.7684210526316" y="525.2315789473685" type="curve" smooth="yes"/>
      <point x="190.17894736842106" y="525.2315789473685"/>
      <point x="102.78947368421052" y="441.85263157894735"/>
      <point x="102.78947368421052" y="320.5473684210526" type="curve" smooth="yes"/>
      <point x="102.78947368421052" y="191.9578947368421"/>
      <point x="190.17894736842106" y="115.49473684210525"/>
    </contour>
    <contour>
      <point x="100.89473684210526" y="51.642105263157895" type="line"/>
      <point x="143.90526315789472" y="96.47368421052632"/>
      <point x="192.0" y="146.66315789473683"/>
      <point x="220.10526315789474" y="176.31578947368422" type="curve"/>
      <point x="167.0842105263158" y="229.33684210526314" type="line"/>
      <point x="137.43157894736842" y="201.2315789473684"/>
      <point x="87.2421052631579" y="153.13684210526316"/>
      <point x="42.41052631578947" y="110.12631578947368" type="curve"/>
    </contour>
    <contour>
      <point x="310.0421052631579" y="186.90526315789475" type="curve"/>
      <point x="236.90526315789472" y="190.00000000000003"/>
      <point x="179.1263157894737" y="230.8842105263158"/>
      <point x="179.1263157894737" y="320.2736842105263" type="curve" smooth="yes"/>
      <point x="179.1263157894737" y="403.66315789473686"/>
      <point x="237.6315789473684" y="451.0"/>
      <point x="311.4947368421053" y="454.09473684210525" type="curve"/>
      <point x="384.90526315789475" y="451.0"/>
      <point x="442.41052631578947" y="403.11578947368423"/>
      <point x="442.41052631578947" y="320.2736842105263" type="curve" smooth="yes"/>
      <point x="442.41052631578947" y="230.8842105263158"/>
      <point x="384.63157894736844" y="190.00000000000003"/>
    </contour>
    <contour>
      <point x="167.6315789473684" y="412.66315789473686" type="curve"/>
      <point x="219.55789473684212" y="464.58947368421053" type="line"/>
      <point x="191.45263157894735" y="494.2421052631579"/>
      <point x="143.3578947368421" y="544.4315789473684"/>
      <point x="100.34736842105264" y="589.2631578947369" type="curve"/>
      <point x="42.9578947368421" y="531.8736842105263" type="line"/>
      <point x="87.78947368421052" y="488.86315789473684"/>
      <point x="137.97894736842105" y="440.76842105263154"/>
    </contour>
    <contour>
      <point x="522.6421052631579" y="52.18947368421052" type="curve"/>
      <point x="580.0315789473684" y="109.57894736842105" type="line"/>
      <point x="535.2" y="152.5894736842105"/>
      <point x="485.01052631578943" y="200.68421052631578"/>
      <point x="455.3578947368421" y="228.78947368421052" type="curve"/>
      <point x="403.4315789473684" y="176.86315789473684" type="line"/>
      <point x="431.53684210526313" y="147.21052631578945"/>
      <point x="479.63157894736844" y="97.02105263157894"/>
    </contour>
    <contour>
      <point x="455.90526315789475" y="412.11578947368423" type="line"/>
      <point x="485.55789473684206" y="440.2210526315789"/>
      <point x="535.7473684210527" y="488.3157894736842"/>
      <point x="580.578947368421" y="531.3263157894737" type="curve"/>
      <point x="522.0947368421052" y="589.8105263157895" type="line"/>
      <point x="479.0842105263158" y="544.978947368421"/>
      <point x="430.9894736842105" y="494.7894736842105"/>
      <point x="402.88421052631577" y="465.13684210526316" type="curve"/>
    </contour>
  </outline>
</glyph>
<glyph name="yen" format="2">
  <advance width="624.8947368421052"/>
  <unicode hex="00A5"/>
  <outline>
    <contour>
      <point x="271.6736842105263" y="269.38947368421054" type="line"/>
      <point x="354.3157894736842" y="269.38947368421054" type="line"/>
      <point x="501.4736842105263" y="521.978947368421" type="line"/>
      <point x="534.7473684210526" y="574.9894736842106"/>
      <point x="571.1999999999999" y="632.6315789473684"/>
      <point x="604.4736842105264" y="685.6421052631579" type="curve"/>
      <point x="494.32631578947365" y="685.6421052631579" type="line"/>
      <point x="445.8315789473684" y="594.9473684210526"/>
      <point x="421.4947368421053" y="551.5157894736842"/>
      <point x="383.7157894736842" y="480.3578947368421" type="curve"/>
      <point x="317.41052631578947" y="362.6736842105263" type="line"/>
      <point x="308.12631578947367" y="362.6736842105263" type="line"/>
      <point x="243.09473684210525" y="479.3578947368421" type="line"/>
      <point x="205.13684210526316" y="550.3263157894737"/>
      <point x="182.2526315789474" y="593.6736842105263"/>
      <point x="133.30526315789473" y="685.6421052631579" type="curve"/>
      <point x="19.873684210526317" y="685.6421052631579" type="line"/>
      <point x="71.69473684210526" y="603.5368421052632"/>
      <point x="93.69473684210527" y="569.1684210526316"/>
      <point x="123.96842105263158" y="521.7052631578947" type="curve"/>
    </contour>
    <contour>
      <point x="263.4736842105263" y="0.0" type="curve"/>
      <point x="363.5157894736842" y="0.0" type="line"/>
      <point x="361.14736842105265" y="76.3578947368421"/>
      <point x="359.05263157894734" y="141.7157894736842"/>
      <point x="356.41052631578947" y="225.81052631578947" type="curve"/>
      <point x="356.41052631578947" y="339.82105263157894" type="line"/>
      <point x="269.85263157894735" y="339.82105263157894" type="line"/>
      <point x="269.85263157894735" y="225.81052631578947" type="line"/>
      <point x="267.2105263157895" y="141.7157894736842"/>
      <point x="265.84210526315786" y="76.3578947368421"/>
    </contour>
    <contour>
      <point x="80.43157894736842" y="137.66315789473683" type="line"/>
      <point x="143.0842105263158" y="139.21052631578948"/>
      <point x="212.54736842105262" y="140.7578947368421"/>
      <point x="253.56842105263158" y="141.30526315789473" type="curve"/>
      <point x="372.87368421052633" y="141.30526315789473" type="line"/>
      <point x="413.8947368421052" y="140.7578947368421"/>
      <point x="483.3578947368421" y="139.21052631578948"/>
      <point x="546.0105263157894" y="137.66315789473683" type="curve"/>
      <point x="546.0105263157894" y="199.49473684210525" type="line"/>
      <point x="483.3578947368421" y="198.49473684210525"/>
      <point x="413.8947368421052" y="197.49473684210525"/>
      <point x="372.87368421052633" y="197.22105263157894" type="curve"/>
      <point x="253.56842105263158" y="197.22105263157894" type="line"/>
      <point x="212.54736842105262" y="197.49473684210525"/>
      <point x="143.0842105263158" y="198.49473684210525"/>
      <point x="80.43157894736842" y="199.49473684210525" type="curve"/>
    </contour>
    <contour>
      <point x="80.43157894736842" y="282.4421052631579" type="line"/>
      <point x="143.0842105263158" y="283.4421052631579"/>
      <point x="212.54736842105262" y="284.4421052631579"/>
      <point x="253.56842105263158" y="284.7157894736842" type="curve"/>
      <point x="372.87368421052633" y="284.7157894736842" type="line"/>
      <point x="413.8947368421052" y="284.4421052631579"/>
      <point x="483.3578947368421" y="283.4421052631579"/>
      <point x="546.0105263157894" y="282.4421052631579" type="curve"/>
      <point x="546.0105263157894" y="344.2736842105263" type="line"/>
      <point x="483.3578947368421" y="342.7263157894737"/>
      <point x="413.8947368421052" y="341.17894736842106"/>
      <point x="372.87368421052633" y="340.63157894736844" type="curve"/>
      <point x="253.56842105263158" y="340.63157894736844" type="line"/>
      <point x="212.54736842105262" y="341.17894736842106"/>
      <point x="143.0842105263158" y="342.7263157894737"/>
      <point x="80.43157894736842" y="344.2736842105263" type="curve"/>
    </contour>
  </outline>
</glyph>
<glyph name="copyright" format="2">
  <advance width="817.5052631578948"/>
  <unicode hex="00A9"/>
  <outline>
    <contour>
      <point x="412.2526315789474" y="-10.91578947368421" type="curve" smooth="yes"/>
      <point x="634.3684210526316" y="-10.91578947368421"/>
      <point x="767.3578947368421" y="140.6315789473684"/>
      <point x="767.3578947368421" y="344.2736842105263" type="curve" smooth="yes"/>
      <point x="767.3578947368421" y="541.0947368421052"/>
      <point x="640.6421052631579" y="698.7368421052631"/>
      <point x="409.1578947368421" y="698.7368421052631" type="curve" smooth="yes"/>
      <point x="181.4" y="698.7368421052631"/>
      <point x="50.14736842105263" y="543.5473684210526"/>
      <point x="50.14736842105263" y="344.0" type="curve" smooth="yes"/>
      <point x="50.14736842105263" y="152.3684210526316"/>
      <point x="170.76842105263157" y="-10.91578947368421"/>
    </contour>
    <contour>
      <point x="420.0736842105263" y="155.7263157894737" type="curve" smooth="yes"/>
      <point x="456.5052631578947" y="155.7263157894737"/>
      <point x="501.89473684210526" y="169.26315789473685"/>
      <point x="528.7157894736843" y="178.44210526315788" type="curve"/>
      <point x="522.7157894736843" y="239.4421052631579" type="line"/>
      <point x="490.82105263157894" y="223.7263157894737"/>
      <point x="456.5473684210527" y="213.0"/>
      <point x="431.8421052631579" y="213.0" type="curve"/>
      <point x="349.2526315789474" y="214.7263157894737"/>
      <point x="303.7263157894737" y="264.3263157894737"/>
      <point x="303.7263157894737" y="345.5473684210526" type="curve" smooth="yes"/>
      <point x="303.7263157894737" y="429.38947368421054"/>
      <point x="352.0526315789474" y="472.3578947368421"/>
      <point x="418.7263157894737" y="474.63157894736844" type="curve"/>
      <point x="434.71578947368425" y="474.63157894736844"/>
      <point x="476.81052631578945" y="464.5368421052632"/>
      <point x="521.8947368421053" y="444.0" type="curve"/>
      <point x="527.8105263157895" y="506.09473684210525" type="line"/>
      <point x="495.4315789473684" y="517.6421052631579"/>
      <point x="445.59999999999997" y="533.0"/>
      <point x="413.2526315789474" y="533.0" type="curve" smooth="yes"/>
      <point x="301.05263157894734" y="533.0"/>
      <point x="237.14736842105262" y="451.2736842105263"/>
      <point x="237.14736842105262" y="344.17894736842106" type="curve" smooth="yes"/>
      <point x="237.14736842105262" y="237.0842105263158"/>
      <point x="303.33684210526314" y="155.7263157894737"/>
    </contour>
    <contour>
      <point x="411.9789473684211" y="43.25263157894737" type="curve"/>
      <point x="218.0842105263158" y="48.347368421052636"/>
      <point x="106.50526315789475" y="160.61052631578949"/>
      <point x="106.50526315789475" y="344.0" type="curve" smooth="yes"/>
      <point x="106.50526315789475" y="526.4947368421052"/>
      <point x="222.3578947368421" y="639.4736842105264"/>
      <point x="409.4315789473684" y="644.5684210526316" type="curve"/>
      <point x="597.7789473684211" y="639.4736842105264"/>
      <point x="711.0" y="527.6736842105263"/>
      <point x="711.0" y="344.2736842105263" type="curve" smooth="yes"/>
      <point x="711.0" y="158.77894736842106"/>
      <point x="595.6842105263158" y="48.347368421052636"/>
    </contour>
  </outline>
</glyph>
<glyph name="ordfeminine" format="2">
  <advance width="395.17241379310343"/>
  <unicode hex="00AA"/>
  <outline>
    <contour>
      <point x="150.0344827586207" y="332.60919540229884" type="curve" smooth="yes"/>
      <point x="185.04597701149424" y="332.60919540229884"/>
      <point x="237.2528735632184" y="365.41379310344826"/>
      <point x="279.2643678160919" y="399.2183908045977" type="curve"/>
      <point x="286.0574712643678" y="399.2183908045977" type="line"/>
      <point x="300.45977011494256" y="340.2068965517241" type="line"/>
      <point x="363.735632183908" y="340.2068965517241" type="line"/>
      <point x="354.13793103448273" y="381.7816091954023"/>
      <point x="346.735632183908" y="414.97701149425285"/>
      <point x="339.735632183908" y="447.35632183908046" type="curve"/>
      <point x="339.735632183908" y="500.8045977011494" type="line" smooth="yes"/>
      <point x="339.735632183908" y="532.816091954023"/>
      <point x="341.735632183908" y="571.0114942528736"/>
      <point x="341.735632183908" y="594.2068965517242" type="curve" smooth="yes"/>
      <point x="341.735632183908" y="687.0"/>
      <point x="288.7471264367816" y="726.1954022988506"/>
      <point x="206.17241379310346" y="726.1954022988506" type="curve" smooth="yes"/>
      <point x="180.9655172413793" y="726.1954022988506"/>
      <point x="92.816091954023" y="708.1954022988505"/>
      <point x="56.62068965517241" y="698.1954022988506" type="curve"/>
      <point x="59.81609195402299" y="632.919540229885" type="line"/>
      <point x="119.41379310344828" y="653.3103448275863"/>
      <point x="180.80459770114942" y="668.7011494252873"/>
      <point x="193.41379310344828" y="668.7011494252873" type="curve" smooth="yes"/>
      <point x="242.03448275862067" y="668.7011494252873"/>
      <point x="283.4597701149425" y="654.8965517241379"/>
      <point x="280.0574712643678" y="585.3908045977012" type="curve"/>
      <point x="158.42528735632183" y="560.7816091954023" type="line" smooth="yes"/>
      <point x="108.63218390804597" y="550.7816091954023"/>
      <point x="39.62068965517241" y="521.1954022988505"/>
      <point x="39.62068965517241" y="436.2068965517241" type="curve" smooth="yes"/>
      <point x="39.62068965517241" y="376.4022988505747"/>
      <point x="79.22988505747126" y="332.60919540229884"/>
    </contour>
    <contour>
      <point x="173.16091954022988" y="387.71264367816093" type="curve" smooth="yes"/>
      <point x="132.51724137931035" y="387.71264367816093"/>
      <point x="102.49425287356323" y="405.1264367816092"/>
      <point x="102.49425287356323" y="448.7701149425287" type="curve" smooth="yes"/>
      <point x="102.49425287356323" y="495.2183908045977"/>
      <point x="142.93103448275863" y="512.2298850574713"/>
      <point x="184.17241379310346" y="520.4367816091954" type="curve" smooth="yes"/>
      <point x="249.4367816091954" y="534.0459770114943"/>
      <point x="266.2528735632184" y="540.8505747126437"/>
      <point x="278.8620689655172" y="547.448275862069" type="curve"/>
      <point x="278.4597701149425" y="445.9655172413793" type="line"/>
      <point x="243.22988505747128" y="412.735632183908"/>
      <point x="196.98850574712645" y="387.71264367816093"/>
    </contour>
  </outline>
</glyph>
<glyph name="registered" format="2">
  <advance width="569.1157894736842"/>
  <unicode hex="00AE"/>
  <outline>
    <contour>
      <point x="286.8315789473684" y="254.77894736842106" type="curve" smooth="yes"/>
      <point x="442.0421052631579" y="254.77894736842106"/>
      <point x="533.2210526315789" y="359.5157894736842"/>
      <point x="533.2210526315789" y="500.34736842105264" type="curve" smooth="yes"/>
      <point x="533.2210526315789" y="636.0842105263158"/>
      <point x="446.86315789473684" y="745.3684210526316"/>
      <point x="284.46315789473687" y="745.3684210526316" type="curve" smooth="yes"/>
      <point x="123.88421052631578" y="745.3684210526316"/>
      <point x="35.89473684210526" y="637.8105263157895"/>
      <point x="35.89473684210526" y="500.0736842105263" type="curve" smooth="yes"/>
      <point x="35.89473684210526" y="368.70526315789476"/>
      <point x="117.70526315789473" y="254.77894736842106"/>
    </contour>
    <contour>
      <point x="183.1684210526316" y="364.1684210526316" type="curve"/>
      <point x="234.05263157894737" y="364.1684210526316" type="line"/>
      <point x="232.50526315789472" y="403.7052631578947"/>
      <point x="231.9578947368421" y="415.90526315789475"/>
      <point x="230.41052631578947" y="458.1684210526316" type="curve"/>
      <point x="230.41052631578947" y="550.1684210526316" type="line"/>
      <point x="231.9578947368421" y="591.978947368421"/>
      <point x="232.50526315789472" y="605.6315789473684"/>
      <point x="233.77894736842106" y="642.4315789473684" type="curve"/>
      <point x="182.34736842105264" y="649.1684210526316" type="line"/>
      <point x="183.8947368421053" y="609.0842105263158"/>
      <point x="184.4421052631579" y="595.7052631578948"/>
      <point x="185.98947368421054" y="554.1684210526316" type="curve"/>
      <point x="185.98947368421054" y="458.1684210526316" type="line"/>
      <point x="184.71578947368423" y="415.3578947368421"/>
      <point x="184.4421052631579" y="404.5263157894737"/>
    </contour>
    <contour>
      <point x="286.5578947368421" y="292.7157894736842" type="curve"/>
      <point x="147.62105263157895" y="295.53684210526313"/>
      <point x="75.74736842105263" y="377.2842105263158"/>
      <point x="75.74736842105263" y="500.0736842105263" type="curve" smooth="yes"/>
      <point x="75.74736842105263" y="623.9684210526316"/>
      <point x="150.44210526315788" y="704.8842105263158"/>
      <point x="284.7368421052632" y="707.7052631578947" type="curve"/>
      <point x="419.57894736842104" y="704.8842105263158"/>
      <point x="492.6421052631579" y="624.6"/>
      <point x="492.6421052631579" y="500.34736842105264" type="curve" smooth="yes"/>
      <point x="492.6421052631579" y="374.90526315789475"/>
      <point x="417.38947368421054" y="295.53684210526313"/>
    </contour>
    <contour>
      <point x="353.87368421052633" y="364.1684210526316" type="curve"/>
      <point x="415.57894736842104" y="364.1684210526316" type="line"/>
      <point x="397.12631578947367" y="387.2631578947368"/>
      <point x="372.58947368421053" y="418.1684210526316"/>
      <point x="349.9578947368421" y="446.7157894736842" type="curve"/>
      <point x="307.2421052631579" y="503.2631578947368" type="line"/>
      <point x="290.12631578947367" y="484.70526315789476" type="line"/>
      <point x="360.94736842105266" y="484.70526315789476"/>
      <point x="387.12631578947367" y="522.978947368421"/>
      <point x="387.12631578947367" y="569.8" type="curve" smooth="yes"/>
      <point x="387.12631578947367" y="626.6210526315789"/>
      <point x="348.12631578947367" y="650.7157894736843"/>
      <point x="285.8315789473684" y="650.7157894736843" type="curve"/>
      <point x="242.82105263157894" y="650.7157894736843"/>
      <point x="208.6315789473684" y="649.1684210526316"/>
      <point x="182.34736842105264" y="649.1684210526316" type="curve"/>
      <point x="216.21052631578948" y="611.2210526315789" type="line"/>
      <point x="284.0105263157895" y="611.2210526315789" type="line" smooth="yes"/>
      <point x="305.17894736842106" y="611.2210526315789"/>
      <point x="340.88421052631577" y="609.4947368421052"/>
      <point x="340.88421052631577" y="566.5157894736842" type="curve" smooth="yes"/>
      <point x="340.88421052631577" y="526.2631578947369"/>
      <point x="313.53684210526313" y="513.9052631578948"/>
      <point x="272.9263157894737" y="513.9052631578948" type="curve" smooth="yes"/>
      <point x="221.85263157894738" y="513.9052631578948" type="line"/>
      <point x="221.85263157894738" y="480.5157894736842" type="line"/>
      <point x="287.94736842105266" y="480.5157894736842" type="line"/>
      <point x="260.36842105263156" y="497.9894736842105" type="line"/>
      <point x="307.7157894736842" y="433.4421052631579" type="line"/>
      <point x="322.5263157894737" y="411.1684210526316"/>
      <point x="336.3368421052632" y="390.4421052631579"/>
    </contour>
  </outline>
</glyph>
<glyph name="degree" format="2">
  <advance width="478.3578947368421"/>
  <unicode hex="00B0"/>
  <outline>
    <contour>
      <point x="239.0421052631579" y="315.13684210526316" type="curve" smooth="yes"/>
      <point x="358.81052631578945" y="315.13684210526316"/>
      <point x="441.09473684210525" y="389.5052631578947"/>
      <point x="441.09473684210525" y="506.1684210526316" type="curve" smooth="yes"/>
      <point x="441.09473684210525" y="615.7263157894737"/>
      <point x="358.81052631578945" y="698.7368421052631"/>
      <point x="240.0421052631579" y="698.7368421052631" type="curve" smooth="yes"/>
      <point x="120.27368421052631" y="698.7368421052631"/>
      <point x="37.26315789473684" y="615.7263157894737"/>
      <point x="37.26315789473684" y="506.1684210526316" type="curve" smooth="yes"/>
      <point x="37.26315789473684" y="389.5052631578947"/>
      <point x="120.27368421052631" y="315.13684210526316"/>
    </contour>
    <contour>
      <point x="239.0421052631579" y="378.4315789473684" type="curve"/>
      <point x="160.73684210526318" y="381.52631578947364"/>
      <point x="109.31578947368422" y="427.4947368421052"/>
      <point x="109.31578947368422" y="505.62105263157895" type="curve" smooth="yes"/>
      <point x="109.31578947368422" y="580.4736842105264"/>
      <point x="160.46315789473684" y="632.3473684210527"/>
      <point x="240.0421052631579" y="635.4421052631579" type="curve"/>
      <point x="318.89473684210526" y="632.0736842105264"/>
      <point x="369.0421052631579" y="579.6526315789474"/>
      <point x="369.0421052631579" y="505.62105263157895" type="curve" smooth="yes"/>
      <point x="369.0421052631579" y="427.4947368421052"/>
      <point x="318.34736842105264" y="381.52631578947364"/>
    </contour>
  </outline>
</glyph>
<glyph name="plusminus" format="2">
  <advance width="568.2105263157895"/>
  <unicode hex="00B1"/>
  <outline>
    <contour>
      <point x="61.78947368421053" y="-3.642105263157895" type="line"/>
      <point x="124.4421052631579" y="-2.094736842105263"/>
      <point x="193.90526315789472" y="-0.5473684210526316"/>
      <point x="234.92631578947368" y="0.0" type="curve"/>
      <point x="333.2842105263158" y="0.0" type="line"/>
      <point x="374.30526315789473" y="-0.5473684210526316"/>
      <point x="443.7684210526316" y="-2.094736842105263"/>
      <point x="506.42105263157896" y="-3.642105263157895" type="curve"/>
      <point x="506.42105263157896" y="77.43157894736842" type="line"/>
      <point x="443.7684210526316" y="75.88421052631578"/>
      <point x="374.30526315789473" y="74.33684210526316"/>
      <point x="333.2842105263158" y="73.78947368421052" type="curve"/>
      <point x="234.92631578947368" y="73.78947368421052" type="line"/>
      <point x="193.90526315789472" y="74.33684210526316"/>
      <point x="124.4421052631579" y="75.88421052631578"/>
      <point x="61.78947368421053" y="77.43157894736842" type="curve"/>
    </contour>
    <contour>
      <point x="61.78947368421053" y="355.10526315789474" type="line"/>
      <point x="124.4421052631579" y="356.65263157894736"/>
      <point x="193.90526315789472" y="358.2"/>
      <point x="234.92631578947368" y="358.7473684210526" type="curve"/>
      <point x="333.2842105263158" y="358.7473684210526" type="line"/>
      <point x="374.30526315789473" y="358.2"/>
      <point x="443.7684210526316" y="356.65263157894736"/>
      <point x="506.42105263157896" y="355.10526315789474" type="curve"/>
      <point x="506.42105263157896" y="436.17894736842106" type="line"/>
      <point x="443.7684210526316" y="434.63157894736844"/>
      <point x="374.30526315789473" y="433.0842105263158"/>
      <point x="333.2842105263158" y="432.5368421052632" type="curve"/>
      <point x="234.92631578947368" y="432.5368421052632" type="line"/>
      <point x="193.90526315789472" y="433.0842105263158"/>
      <point x="124.4421052631579" y="434.63157894736844"/>
      <point x="61.78947368421053" y="436.17894736842106" type="curve"/>
    </contour>
    <contour>
      <point x="242.7473684210526" y="161.53684210526316" type="curve"/>
      <point x="325.4631578947368" y="161.53684210526316" type="line"/>
      <point x="323.9157894736842" y="224.18947368421053"/>
      <point x="322.36842105263156" y="293.6526315789474"/>
      <point x="321.82105263157894" y="334.6736842105263" type="curve"/>
      <point x="321.82105263157894" y="456.61052631578946" type="line"/>
      <point x="322.36842105263156" y="497.6315789473684"/>
      <point x="323.9157894736842" y="567.0947368421052"/>
      <point x="325.4631578947368" y="629.7473684210527" type="curve"/>
      <point x="242.7473684210526" y="629.7473684210527" type="line"/>
      <point x="244.29473684210527" y="567.0947368421052"/>
      <point x="245.8421052631579" y="497.6315789473684"/>
      <point x="246.38947368421051" y="456.61052631578946" type="curve"/>
      <point x="246.38947368421051" y="334.6736842105263" type="line"/>
      <point x="245.8421052631579" y="293.6526315789474"/>
      <point x="244.29473684210527" y="224.18947368421053"/>
    </contour>
  </outline>
</glyph>
<glyph name="micro" format="2">
  <advance width="560.4947368421052"/>
  <unicode hex="00B5"/>
  <outline>
    <contour>
      <point x="67.02105263157894" y="-195.09473684210528" type="curve"/>
      <point x="165.14736842105265" y="-192.0" type="line"/>
      <point x="162.23157894736846" y="-118.6421052631579"/>
      <point x="159.86315789473687" y="-55.01052631578948"/>
      <point x="156.67368421052635" y="23.25263157894737" type="curve" smooth="yes"/>
      <point x="156.67368421052635" y="40.78947368421053" type="line"/>
      <point x="126.30526315789473" y="40.78947368421053" type="line"/>
      <point x="148.93684210526317" y="6.347368421052631"/>
      <point x="184.37894736842105" y="-10.91578947368421"/>
      <point x="237.62105263157895" y="-10.91578947368421" type="curve" smooth="yes"/>
      <point x="288.2421052631579" y="-10.91578947368421"/>
      <point x="365.7473684210526" y="47.05263157894737"/>
      <point x="404.8315789473684" y="89.70526315789475" type="curve"/>
      <point x="413.021052631579" y="89.70526315789475" type="line"/>
      <point x="435.378947368421" y="0.0" type="line"/>
      <point x="515.4526315789474" y="0.0" type="line"/>
      <point x="502.7263157894737" y="52.8421052631579"/>
      <point x="494.17894736842106" y="93.23157894736842"/>
      <point x="484.17894736842106" y="139.8842105263158" type="curve"/>
      <point x="484.90526315789475" y="271.5473684210526" type="line"/>
      <point x="485.4526315789474" y="357.7473684210526"/>
      <point x="486.4526315789474" y="419.82105263157894"/>
      <point x="487.0" y="496.18947368421055" type="curve"/>
      <point x="395.0736842105263" y="496.18947368421055" type="line"/>
      <point x="397.4421052631579" y="422.8315789473684"/>
      <point x="399.5368421052632" y="357.9263157894737"/>
      <point x="401.63157894736844" y="279.7578947368421" type="curve"/>
      <point x="401.63157894736844" y="156.61052631578946" type="line"/>
      <point x="349.2315789473684" y="106.8421052631579"/>
      <point x="284.8315789473684" y="65.69473684210527"/>
      <point x="254.7684210526316" y="65.69473684210527" type="curve" smooth="yes"/>
      <point x="180.6526315789474" y="65.69473684210527"/>
      <point x="156.67368421052635" y="108.85263157894738"/>
      <point x="156.67368421052635" y="193.6315789473684" type="curve"/>
      <point x="157.40000000000003" y="279.7578947368421" type="line"/>
      <point x="157.94736842105266" y="355.28421052631575"/>
      <point x="158.7684210526316" y="430.0315789473684"/>
      <point x="160.0421052631579" y="499.2842105263158" type="curve"/>
      <point x="66.47368421052632" y="496.18947368421055" type="line"/>
      <point x="69.1157894736842" y="422.8315789473684"/>
      <point x="71.21052631578947" y="358.4736842105263"/>
      <point x="74.12631578947368" y="271.5473684210526" type="curve"/>
      <point x="74.12631578947368" y="26.810526315789474" type="line"/>
      <point x="71.48421052631578" y="-55.01052631578948"/>
      <point x="69.38947368421051" y="-121.73684210526316"/>
    </contour>
  </outline>
</glyph>
<glyph name="paragraph" format="2">
  <advance width="547.1789473684211"/>
  <unicode hex="00B6"/>
  <outline>
    <contour>
      <point x="221.7157894736842" y="299.58947368421053" type="curve" smooth="yes"/>
      <point x="241.98947368421054" y="299.58947368421053" type="line"/>
      <point x="241.98947368421054" y="713.0" type="line"/>
      <point x="221.7157894736842" y="713.0" type="line"/>
      <point x="107.78947368421052" y="713.0"/>
      <point x="33.1578947368421" y="627.9894736842106"/>
      <point x="33.1578947368421" y="509.4315789473684" type="curve" smooth="yes"/>
      <point x="33.1578947368421" y="397.87368421052633"/>
      <point x="100.51578947368421" y="299.58947368421053"/>
    </contour>
    <contour>
      <point x="219.16842105263157" y="-213.3157894736842" type="curve"/>
      <point x="285.1894736842105" y="-213.3157894736842" type="line"/>
      <point x="283.36842105263156" y="-75.31578947368422"/>
      <point x="281.5473684210526" y="77.6842105263158"/>
      <point x="281.2736842105263" y="115.68421052631581" type="curve"/>
      <point x="281.2736842105263" y="384.0" type="line"/>
      <point x="281.5473684210526" y="422.0"/>
      <point x="283.9157894736842" y="575.0"/>
      <point x="286.0105263157895" y="713.0" type="curve"/>
      <point x="223.90526315789472" y="713.0" type="line"/>
      <point x="223.90526315789472" y="575.0"/>
      <point x="223.90526315789472" y="422.0"/>
      <point x="223.90526315789472" y="384.0" type="curve"/>
      <point x="223.90526315789472" y="115.68421052631581" type="line"/>
      <point x="223.6315789473684" y="77.6842105263158"/>
      <point x="221.26315789473682" y="-75.31578947368422"/>
    </contour>
    <contour>
      <point x="366.4105263157895" y="-213.3157894736842" type="curve"/>
      <point x="432.43157894736845" y="-213.3157894736842" type="line"/>
      <point x="430.33684210526314" y="-75.31578947368422"/>
      <point x="427.9684210526316" y="77.6842105263158"/>
      <point x="427.69473684210527" y="115.68421052631581" type="curve"/>
      <point x="427.69473684210527" y="384.0" type="line"/>
      <point x="427.9684210526316" y="422.0"/>
      <point x="430.33684210526314" y="575.0"/>
      <point x="432.43157894736845" y="713.0" type="curve"/>
      <point x="365.58947368421053" y="713.0" type="line"/>
      <point x="367.68421052631584" y="575.0"/>
      <point x="370.0526315789474" y="422.0"/>
      <point x="370.3263157894737" y="384.0" type="curve"/>
      <point x="370.3263157894737" y="115.68421052631581" type="line"/>
      <point x="370.0526315789474" y="77.6842105263158"/>
      <point x="368.23157894736846" y="-75.31578947368422"/>
    </contour>
    <contour>
      <point x="248.42105263157896" y="658.3684210526316" type="line"/>
      <point x="346.77894736842103" y="658.3684210526316" type="line"/>
      <point x="387.79999999999995" y="657.8210526315789"/>
      <point x="457.2631578947368" y="656.2736842105263"/>
      <point x="519.9157894736842" y="654.7263157894737" type="curve"/>
      <point x="519.9157894736842" y="713.0" type="line"/>
      <point x="457.2631578947368" y="713.0"/>
      <point x="387.79999999999995" y="713.0"/>
      <point x="346.77894736842103" y="713.0" type="curve"/>
      <point x="248.42105263157896" y="713.0" type="line"/>
    </contour>
  </outline>
</glyph>
<glyph name="ordmasculine" format="2">
  <advance width="455.2842105263158"/>
  <unicode hex="00BA"/>
  <outline>
    <contour>
      <point x="228.9157894736842" y="331.9894736842105" type="curve" smooth="yes"/>
      <point x="344.85263157894735" y="331.9894736842105"/>
      <point x="417.12631578947367" y="419.4421052631579"/>
      <point x="417.12631578947367" y="531.3578947368421" type="curve" smooth="yes"/>
      <point x="417.12631578947367" y="641.4526315789474"/>
      <point x="348.6736842105263" y="726.0947368421052"/>
      <point x="227.82105263157894" y="726.0947368421052" type="curve" smooth="yes"/>
      <point x="110.2421052631579" y="726.0947368421052"/>
      <point x="38.1578947368421" y="643.6315789473684"/>
      <point x="38.1578947368421" y="531.3578947368421" type="curve" smooth="yes"/>
      <point x="38.1578947368421" y="425.81052631578945"/>
      <point x="104.06315789473683" y="331.9894736842105"/>
    </contour>
    <contour>
      <point x="228.6421052631579" y="389.0842105263158" type="curve"/>
      <point x="145.1684210526316" y="391.63157894736844"/>
      <point x="104.83157894736843" y="456.67368421052635"/>
      <point x="104.83157894736843" y="531.3578947368421" type="curve" smooth="yes"/>
      <point x="104.83157894736843" y="608.1263157894737"/>
      <point x="146.79999999999998" y="666.4526315789474"/>
      <point x="228.6421052631579" y="669.0" type="curve"/>
      <point x="306.12631578947367" y="665.9052631578948"/>
      <point x="350.17894736842106" y="612.7578947368421"/>
      <point x="350.17894736842106" y="531.3578947368421" type="curve" smooth="yes"/>
      <point x="350.17894736842106" y="457.40000000000003"/>
      <point x="311.8421052631579" y="391.63157894736844"/>
    </contour>
  </outline>
</glyph>
